<svg id="Camada_1" data-name="Camada 1" xmlns="http://www.w3.org/2000/svg" viewBox="0 0 107.5 30"><title>ifms_logo</title><rect x="14.56" y="14.68" width="5.99" height="5.99" rx="0.58" ry="0.58" style="fill:#fff"/><rect x="7.36" y="0.3" width="5.99" height="5.99" rx="0.58" ry="0.58" style="fill:#fff"/><rect x="14.56" y="0.3" width="5.99" height="5.99" rx="0.58" ry="0.58" style="fill:#fff"/><rect x="0.17" y="7.49" width="5.99" height="5.99" rx="0.58" ry="0.58" style="fill:#fff"/><rect x="7.36" y="7.49" width="5.99" height="5.99" rx="0.58" ry="0.58" style="fill:#fff"/><rect x="0.17" y="14.68" width="5.99" height="5.99" rx="0.58" ry="0.58" style="fill:#fff"/><rect x="7.36" y="14.68" width="5.99" height="5.99" rx="0.58" ry="0.58" style="fill:#fff"/><rect x="0.17" y="21.88" width="5.99" height="5.99" rx="0.58" ry="0.58" style="fill:#fff"/><rect x="7.36" y="21.88" width="5.99" height="5.99" rx="0.58" ry="0.58" style="fill:#fff"/><path d="M6.47,3.3A3.3,3.3,0,1,1,3.17,0a3.3,3.3,0,0,1,3.3,3.3" style="fill:#fff"/><text transform="translate(23.99 13.35)" style="font-size:8.35177993774414px;fill:#fff;font-family:OpenSans-Bold, Open Sans;font-weight:700">I</text><text transform="translate(26.77 13.35)" style="font-size:8.35177993774414px;fill:#fff;font-family:OpenSans-Bold, Open Sans;font-weight:700"><tspan style="letter-spacing:0.0019843481086588262em">N</tspan><tspan x="6.81" y="0">S</tspan></text><text transform="translate(38.21 13.35)" style="font-size:8.35177993774414px;fill:#fff;font-family:OpenSans-Bold, Open Sans;font-weight:700">TIT</text><text transform="translate(50.7 13.35)" style="font-size:8.35177993774414px;fill:#fff;font-family:OpenSans-Bold, Open Sans;font-weight:700">U</text><text transform="translate(57.04 13.35)" style="font-size:8.35177993774414px;fill:#fff;font-family:OpenSans-Bold, Open Sans;font-weight:700">T</text><text transform="translate(61.89 13.35)" style="font-size:8.35177993774414px;fill:#fff;font-family:OpenSans-Bold, Open Sans;font-weight:700"><tspan style="letter-spacing:0.002101074467991699em">O </tspan><tspan x="8.85" y="0">F</tspan></text><text transform="translate(75.37 13.35)" style="font-size:8.35177993774414px;fill:#fff;font-family:OpenSans-Bold, Open Sans;font-weight:700">EDER</text><text transform="translate(96.49 13.35)" style="font-size:8.35177993774414px;fill:#fff;font-family:OpenSans-Bold, Open Sans;font-weight:700">A</text><text transform="translate(102.27 13.35)" style="font-size:8.35177993774414px;fill:#fff;font-family:OpenSans-Bold, Open Sans;font-weight:700">L</text><text transform="translate(24.15 20.73)" style="font-size:6.310534954071045px;fill:#fff;font-family:OpenSans-Regular, Open Sans">Mato Grosso do Sul</text><text transform="translate(24.15 27.9)" style="font-size:6.310700416564941px;fill:#fff;font-family:OpenSans-Regular, Open Sans">Campus </text><text transform="translate(49.94 27.9)" style="font-size:6.310700416564941px;fill:#fff;font-family:OpenSans-Regular, Open Sans">Dourados</text></svg>