<?xml version="1.0" encoding="utf-8"?>
<!-- Generator: Adobe Illustrator 21.0.0, SVG Export Plug-In . SVG Version: 6.00 Build 0)  -->
<svg version="1.1" id="Camada_1" xmlns="http://www.w3.org/2000/svg" xmlns:xlink="http://www.w3.org/1999/xlink" x="0px" y="0px"
	 viewBox="0 0 387 512" style="enable-background:new 0 0 387 512;" xml:space="preserve">
<style type="text/css">
	.st0{fill:#FFFFFF;}
</style>
<path id="XMLID_32_" class="st0" d="M386.8,331.4L195.5,0L-0.2,331.3L24.7,346l11.8-20c12.8-17.8,34.9-29,59.4-29
	c38.8,0,70.4,28.1,70.4,61.1h24.8h4.1h24.8c0-33.1,31.6-61.2,70.4-61.2c29.8,0,54.5,16.7,67,41.7l0,0l4.3,7.4L386.8,331.4z
	 M290.5,268c-47.9,0-88,30.9-97.3,71.9c-9.3-40.9-49.4-72-97.3-72c-9.4,0-18.5,1.3-27.2,3.6L195.2,57.4L319,271.9
	C309.9,269.4,300.3,268,290.5,268z"/>
<g id="XMLID_2_">
	<polygon id="XMLID_27_" class="st0" points="157.2,154.8 230.4,154.8 193.8,94.9 	"/>
	<rect id="XMLID_34_" x="-0.4" y="390.9" class="st0" width="28.9" height="121.1"/>
	<rect id="XMLID_35_" x="358" y="390.9" class="st0" width="28.9" height="121.1"/>
	<rect id="XMLID_36_" x="179.3" y="390.9" class="st0" width="28.9" height="71.5"/>
</g>
</svg>
