<?xml version="1.0" encoding="utf-8"?>
<!-- Generator: Adobe Illustrator 21.0.0, SVG Export Plug-In . SVG Version: 6.00 Build 0)  -->
<svg version="1.1" id="Camada_1" xmlns="http://www.w3.org/2000/svg" xmlns:xlink="http://www.w3.org/1999/xlink" x="0px" y="0px"
	 viewBox="0 0 115 42" style="enable-background:new 0 0 115 42;" xml:space="preserve">
<style type="text/css">
	.st0{fill:#FFFFFF;}
</style>
<g>
	<path class="st0" d="M38.8,26.8h2.8V17h-2.8V26.8z M38.7,15.9h2.9v-2.5h-2.9L38.7,15.9L38.7,15.9z M43.9,22.5h5.6v-2.7h-5.6V22.5z
		 M51.9,14h9.7v2.5h-6.9v2.6h6v2.5h-6v2.7h6.9v2.5h-9.7L51.9,14z M70.8,21.9L70.8,21.9c0-1.7-1.1-2.8-2.4-2.8S66,20.2,66,21.9v0
		c0,1.6,1.1,2.7,2.4,2.7S70.8,23.6,70.8,21.9 M63.3,21.9L63.3,21.9c0-3.3,2.1-5.1,4.5-5.1c1.5,0,2.4,0.7,3.1,1.5v-4.9h2.8v13.4h-2.8
		v-1.4c-0.7,0.9-1.6,1.6-3.1,1.6C65.4,27,63.3,25.2,63.3,21.9 M76,23.4V17h2.8v5.5c0,1.3,0.6,2,1.7,2c1.1,0,1.7-0.7,1.7-2V17h2.8
		v9.8h-2.8v-1.4c-0.6,0.8-1.5,1.6-2.9,1.6C77.2,27,76,25.6,76,23.4 M87,22L87,22c0-2.8,2.1-5.2,5.1-5.2c1.8,0,3,0.6,3.9,1.7
		l-1.7,1.8c-0.6-0.7-1.2-1.1-2.2-1.1c-1.4,0-2.4,1.2-2.4,2.7v0c0,1.5,1,2.7,2.5,2.7c0.9,0,1.6-0.4,2.2-1l1.6,1.7c-0.9,1-2,1.8-4,1.8
		C89.1,27.1,87,24.8,87,22 M103.7,23.4v-0.5c-0.6-0.2-1.2-0.4-1.8-0.4c-1.2,0-1.9,0.5-1.9,1.4v0c0,0.8,0.6,1.2,1.5,1.2
		C102.8,25.1,103.7,24.4,103.7,23.4 M97.3,24L97.3,24c0-2.2,1.6-3.2,3.9-3.2c1,0,1.7,0.2,2.4,0.4v-0.2c0-1.2-0.7-1.8-2.1-1.8
		c-1.1,0-1.8,0.2-2.7,0.5l-0.7-2.1c1.1-0.5,2.1-0.8,3.8-0.8c1.5,0,2.6,0.4,3.3,1.1c0.7,0.7,1.1,1.8,1.1,3.1v5.7h-2.7v-1.1
		c-0.7,0.8-1.6,1.2-3,1.2C98.8,27,97.3,26,97.3,24 M108.7,17h2.8v2c0.6-1.4,1.5-2.2,3.1-2.2v2.9h-0.1c-1.8,0-3,1.1-3,3.5v3.6h-2.8
		C108.7,26.8,108.7,17,108.7,17z M23.7,21.9c-3.9,0-7.2,2.5-7.9,5.9c-0.8-3.4-4-5.9-7.9-5.9c-0.7,0-1.5,0.1-2.2,0.3L15.9,4.7
		L26,22.3C25.3,22,24.5,21.9,23.7,21.9z M31.6,27.1L16,0L0,27.1l2,1.2l1-1.6c1-1.5,2.8-2.4,4.8-2.4c3.2,0,5.7,2.3,5.7,5H18
		c0-2.7,2.6-5,5.7-5c2.4,0,4.4,1.4,5.5,3.4l0.3,0.6C29.5,28.3,31.6,27.1,31.6,27.1z"/>
	<path class="st0" d="M12.8,12.7h6l-3-4.9L12.8,12.7z M0,41.9h2.4V32H0V41.9z M29.2,41.9h2.4V32h-2.4V41.9z M14.6,37.8H17V32h-2.4
		L14.6,37.8z"/>
</g>
</svg>
