<?xml version="1.0" encoding="utf-8"?>
<!-- Generator: Adobe Illustrator 21.0.0, SVG Export Plug-In . SVG Version: 6.00 Build 0)  -->
<svg version="1.1" id="Camada_1" xmlns="http://www.w3.org/2000/svg" xmlns:xlink="http://www.w3.org/1999/xlink" x="0px" y="0px"
	 viewBox="0 0 84.3 141.7" style="enable-background:new 0 0 84.3 141.7;" xml:space="preserve">
<style type="text/css">
	.st0{fill:#FFFFFF;}
</style>
<path id="XMLID_32_" class="st0" d="M84.3,73.2L42.6,1L0,73.2l5.4,3.2L8,72c2.8-3.9,7.6-6.3,12.9-6.3c8.5,0,15.3,6.1,15.3,13.3h5.4
	h0.9H48c0-7.2,6.9-13.3,15.3-13.3c6.5,0,11.9,3.6,14.6,9.1l0,0l0.9,1.6L84.3,73.2z M63.3,59.4c-10.4,0-19.2,6.7-21.2,15.7
	c-2-8.9-10.8-15.7-21.2-15.7c-2,0-4,0.3-5.9,0.8l27.6-46.6l27,46.7C67.6,59.7,65.5,59.4,63.3,59.4z"/>
<g id="XMLID_2_">
	<polygon id="XMLID_27_" class="st0" points="34.3,34.7 50.2,34.7 42.3,21.7 	"/>
	<rect id="XMLID_34_" x="0" y="86.2" class="st0" width="6.3" height="26.4"/>
	<rect id="XMLID_35_" x="78" y="86.2" class="st0" width="6.3" height="26.4"/>
	<rect id="XMLID_36_" x="39.1" y="86.2" class="st0" width="6.3" height="15.6"/>
</g>
<g id="XMLID_1_">
	<path id="XMLID_4_" class="st0" d="M1.3,127.2h3.1v2.6H1.3V127.2z M1.4,131h3v10.5h-3V131z"/>
	<path id="XMLID_17_" class="st0" d="M6.8,134h6v2.9h-6V134z"/>
	<path id="XMLID_37_" class="st0" d="M15.5,127.8h10.4v2.7h-7.4v2.8H25v2.7h-6.5v2.9h7.5v2.7H15.5V127.8z"/>
	<path id="XMLID_39_" class="st0" d="M27.6,136.3L27.6,136.3c0-3.6,2.3-5.5,4.8-5.5c1.6,0,2.6,0.7,3.3,1.6v-5.2h3v14.3h-3V140
		c-0.7,1-1.7,1.7-3.3,1.7C30,141.7,27.6,139.8,27.6,136.3z M35.8,136.3L35.8,136.3c0-1.8-1.2-2.9-2.6-2.9c-1.4,0-2.6,1.1-2.6,2.9v0
		c0,1.7,1.2,2.9,2.6,2.9C34.6,139.2,35.8,138,35.8,136.3z"/>
	<path id="XMLID_42_" class="st0" d="M41.3,137.8V131h3v5.9c0,1.4,0.7,2.1,1.8,2.1c1.1,0,1.9-0.7,1.9-2.1V131h3v10.5h-3V140
		c-0.7,0.9-1.6,1.7-3.1,1.7C42.6,141.7,41.3,140.2,41.3,137.8z"/>
	<path id="XMLID_44_" class="st0" d="M53.1,136.3L53.1,136.3c0-3,2.3-5.5,5.5-5.5c2,0,3.2,0.7,4.2,1.8l-1.8,2
		c-0.7-0.7-1.3-1.2-2.4-1.2c-1.5,0-2.6,1.3-2.6,2.9v0c0,1.6,1,2.9,2.7,2.9c1,0,1.7-0.4,2.4-1.1l1.7,1.8c-1,1.1-2.2,1.9-4.3,1.9
		C55.4,141.7,53.1,139.3,53.1,136.3z"/>
	<path id="XMLID_48_" class="st0" d="M64.2,138.5L64.2,138.5c0-2.3,1.7-3.4,4.2-3.4c1.1,0,1.8,0.2,2.6,0.4v-0.2
		c0-1.2-0.8-1.9-2.3-1.9c-1.1,0-1.9,0.2-2.9,0.6l-0.7-2.3c1.2-0.5,2.3-0.8,4.1-0.8c1.6,0,2.8,0.4,3.6,1.2c0.8,0.8,1.1,1.9,1.1,3.4
		v6.1h-2.9v-1.1c-0.7,0.8-1.7,1.3-3.2,1.3C65.8,141.7,64.2,140.6,64.2,138.5z M71,137.8v-0.5c-0.5-0.2-1.2-0.4-1.9-0.4
		c-1.3,0-2.1,0.5-2.1,1.5v0c0,0.8,0.7,1.3,1.6,1.3C70.1,139.6,71,138.9,71,137.8z"/>
	<path id="XMLID_67_" class="st0" d="M76.4,131h3v2.1c0.6-1.5,1.6-2.4,3.4-2.3v3.1h-0.2c-2,0-3.2,1.2-3.2,3.7v3.9h-3V131z"/>
</g>
</svg>
