<?xml version="1.0" encoding="UTF-8"?>
<svg width="53px" height="11px" viewBox="0 0 53 11" version="1.1" xmlns="http://www.w3.org/2000/svg" xmlns:xlink="http://www.w3.org/1999/xlink">
    <!-- Generator: sketchtool 50.2 (55047) - http://www.bohemiancoding.com/sketch -->
    <title>B35797DB-3DF2-4543-A6BB-FE9BBB54A710</title>
    <desc>Created with sketchtool.</desc>
    <defs></defs>
    <g id="Symbols" stroke="none" stroke-width="1" fill="none" fill-rule="evenodd">
        <g id="footer" transform="translate(-222.000000, -141.000000)" fill="#2696FF">
            <g id="Group-35">
                <g id="Group-29">
                    <g id="Group-34" transform="translate(135.000000, 136.000000)">
                        <path d="M94.9063638,7.10031318 C94.7551178,7.9682042 94.6321062,9.47243513 93.5562165,9.39695401 L90.3366345,9.35538264 L91.1032219,7.06172133 C91.3901069,6.51888153 91.7643911,6.4005521 92.1791117,6.4005521 L94.308332,6.4005521 C94.6269985,6.4005521 95.0137683,6.69197733 94.9063638,7.10031318 L94.9063638,7.10031318 Z M94.9581506,5.00854968 C97.3255905,5.26280188 96.0635518,8.52296207 95.6113745,9.82231567 C95.0534952,10.7224139 94.4201348,10.7407166 93.7461962,10.7949155 L89.918225,10.7949155 C89.4183754,12.3605812 88.9694614,13.9364625 88.4714562,15.5 L87,15.5 L89.6195638,6.98368633 C90.0020772,6.08983094 90.5046225,5.43632333 91.1750141,5.15610676 C91.5291511,5.00741462 91.9197517,4.99932736 92.2980086,5.00003677 L94.9581506,5.00854968 Z M105.87326,10.3123754 C105.305449,10.3123754 104.481258,10.1182811 104.179475,10.7388722 L103.195525,13.8659472 L102.692979,15.5 L101.425407,15.5 L101.851336,14.1677298 L103.031509,10.3475621 C103.29697,9.490596 103.723467,9.08552344 104.452739,9.0866585 L107.926857,9.09006366 L107.091457,10.3275568 L105.87326,10.3123754 Z M111.085146,10.3123754 L109.554667,10.3123754 L108.407553,13.8659472 C108.421457,14.1739726 108.560785,14.3154288 108.823125,14.2925858 L110.112688,14.2925858 L109.587868,15.5 L108.232613,15.5 C107.416934,15.5 107.026759,15.0559099 107.063932,14.1677298 L109.256006,7.10627221 L110.659075,6.51036862 L109.894049,9.0866585 L112.488074,9.09006366 L111.649694,10.2966266 L111.085146,10.3123754 Z M113.42875,11.6090333 L116.322146,11.6083239 L115.430986,12.8970363 L113.831978,12.8892328 C113.716486,13.2517409 113.189963,14.2386707 113.941511,14.2386707 L115.667078,14.2566897 C115.829674,14.2585342 116.024194,14.1160848 116.104215,13.8476445 L116.771911,11.6077563 C116.862432,11.3352014 117.371646,10.2947821 116.728637,10.2947821 L113.351566,10.2947821 L114.173488,9.06665316 L116.93621,9.05090428 C117.926829,9.04508713 118.433773,9.46534104 118.455055,10.2947821 L117.296732,14.2036259 C117.056526,15.0671186 116.455657,15.5 115.493272,15.5 L113.374126,15.5 C112.429193,15.5 112.003264,15.0217164 112.182744,14.1494271 L112.794964,12.1778375 C112.912584,11.7967429 113.130515,11.6090333 113.42875,11.6090333 Z M123.279178,9.45413238 C124.270507,9.45413238 124.918765,9.93057149 124.781565,10.7480945 C124.630603,11.6372678 123.76413,14.2036259 123.76413,14.2036259 C123.524066,15.0671186 122.922771,15.5 121.960813,15.5 L119.840957,15.5 C118.895598,15.5 118.470946,15.0217164 118.610558,14.3114561 L120.963242,6.88933493 L122.316368,6.31187597 L121.369875,9.38915051 L123.279178,9.45413238 Z M123.494981,11.0688892 C123.699007,10.5903219 122.532171,10.6107529 122.179878,10.5869167 C121.712519,10.5545677 121.136763,10.4370895 120.938412,11.0688892 L119.993905,14.0343609 C120.001141,14.2948559 120.139476,14.4249615 120.408909,14.4249615 L122.13632,14.4429805 C122.303599,14.4075101 122.438954,14.2710198 122.541393,14.0343609 L123.494981,11.0688892 Z M125.791621,15.5 L124.534832,15.5 L126.436616,9.49556187 L127.821808,8.91668409 L125.791621,15.5 Z M131.213351,6.35117723 L128.363229,15.5 L127.107008,15.5 L129.93003,6.86734325 L131.213351,6.35117723 Z M131.324019,15.5 L130.066662,15.5 L132.039813,9.53997087 L133.369955,8.96776154 L131.324019,15.5 Z M137.175508,12.8885234 L133.995653,12.8885234 C133.124925,12.8885234 134.005585,9.00067812 135.569123,9.05090428 L139.580263,9.05090428 L138.718473,10.2862692 L135.919003,10.2947821 C135.24847,10.2959171 135.165894,11.1134401 135.001595,11.6090333 L138.049784,11.6090333 C139.220877,11.6090333 138.171944,15.5 136.279241,15.5 L132.541932,15.4821229 L133.375772,14.2386707 L136.454465,14.2566897 C136.889191,14.1646084 137.122303,13.2571324 137.175508,12.8885234 Z M100.285813,9.05047863 C101.276148,9.05047863 101.782666,9.46534104 101.805225,10.2947821 L100.64605,14.2036259 C100.406554,15.0671186 99.8048332,15.5 98.8434421,15.5 L96.7231603,15.5 C95.7783694,15.5 95.3530077,15.0217164 95.531495,14.1494271 L96.7563607,10.1876613 C96.9382532,9.40660197 97.3978083,9.02706814 98.1327561,9.05047863 L100.285813,9.05047863 Z M99.4224617,13.8476445 L100.416911,10.7208532 C100.37534,10.1825536 99.9501202,10.2947821 99.5541281,10.2947821 C98.9858914,10.2947821 98.1609906,10.1008297 97.8599174,10.7208532 L96.8758252,13.8476445 C96.8837705,14.1079976 97.0222472,14.2386707 97.2916807,14.2386707 L99.0176729,14.2566897 C99.1855191,14.2212193 99.3198812,14.0851546 99.4224617,13.8476445 Z" id="Combined-Shape"></path>
                    </g>
                </g>
            </g>
        </g>
    </g>
</svg>