<?xml version="1.0" encoding="UTF-8"?>
<svg width="115px" height="42px" viewBox="0 0 115 42" version="1.1" xmlns="http://www.w3.org/2000/svg" xmlns:xlink="http://www.w3.org/1999/xlink">
    <!-- Generator: sketchtool 50.2 (55047) - http://www.bohemiancoding.com/sketch -->
    <title>8FBB0E9F-AFD5-4006-97B4-2E7A35682A82</title>
    <desc>Created with sketchtool.</desc>
    <defs></defs>
    <g id="Symbols" stroke="none" stroke-width="1" fill="none" fill-rule="evenodd">
        <g id="navbar" transform="translate(-32.000000, -19.000000)">
            <g id="Group-7">
                <g id="Group-30" transform="translate(32.000000, 19.000000)">
                    <path d="M38.7930726,26.8404845 L41.5717934,26.8404845 L41.5717934,16.9926995 L38.7930726,16.9926995 L38.7930726,26.8404845 Z M38.7201023,15.9090904 L41.6450715,15.9090904 L41.6450715,13.4284238 L38.7201023,13.4284238 L38.7201023,15.9090904 Z" id="Fill-10" fill="#2696FF"></path>
                    <polygon id="Fill-11" fill="#2696FF" points="43.8557325 22.4862449 49.4864523 22.4862449 49.4864523 19.8041421 43.8557325 19.8041421"></polygon>
                    <polygon id="Fill-12" fill="#2696FF" points="51.9340358 13.9799444 61.5867423 13.9799444 61.5867423 16.4971231 54.7312301 16.4971231 54.7312301 19.1058919 60.7640562 19.1058919 60.7640562 21.6227613 54.7312301 21.6227613 54.7312301 24.3234295 61.6781861 24.3234295 61.6781861 26.8406083 51.9340358 26.8406083"></polygon>
                    <path d="M70.8164675,21.9352504 L70.8164675,21.8981193 C70.8164675,20.2631134 69.7376157,19.1791949 68.439853,19.1791949 C67.1417824,19.1791949 66.044765,20.2445479 66.044765,21.8981193 L66.044765,21.9352504 C66.044765,23.5699468 67.1417824,24.6541747 68.439853,24.6541747 C69.7376157,24.6541747 70.8164675,23.5699468 70.8164675,21.9352504 M63.2663521,21.9352504 L63.2663521,21.8981193 C63.2663521,18.609542 65.4049664,16.8093028 67.7267763,16.8093028 C69.2074265,16.8093028 70.1215564,17.4891112 70.7798284,18.2790753 L70.7798284,13.4285167 L73.5585492,13.4285167 L73.5585492,26.8405773 L70.7798284,26.8405773 L70.7798284,25.4255732 C70.1033908,26.3442584 69.1710953,27.0243763 67.7267763,27.0243763 C65.4416055,27.0243763 63.2663521,25.2235182 63.2663521,21.9352504" id="Fill-13" fill="#2696FF"></path>
                    <path d="M75.9686931,23.3681702 L75.9686931,16.9927613 L78.7477218,16.9927613 L78.7477218,22.4859973 C78.7477218,23.8094114 79.3693548,24.4889104 80.4294252,24.4889104 C81.4901114,24.4889104 82.1662412,23.8094114 82.1662412,22.4859973 L82.1662412,16.9927613 L84.944962,16.9927613 L84.944962,26.8405464 L82.1662412,26.8405464 L82.1662412,25.4441078 C81.5264426,26.2712029 80.7037565,27.0243453 79.2960766,27.0243453 C77.1937934,27.0243453 75.9686931,25.6282162 75.9686931,23.3681702" id="Fill-14" fill="#2696FF"></path>
                    <path d="M86.9535538,21.9718245 L86.9535538,21.9353122 C86.9535538,19.1238696 89.0921682,16.8090553 92.0907235,16.8090553 C93.936841,16.8090553 95.088971,17.4337859 96.0024851,18.4626267 L94.3023082,20.2996875 C93.6809831,19.6387541 93.0596581,19.2160784 92.0719421,19.2160784 C90.6824278,19.2160784 89.6956355,20.4469742 89.6956355,21.8981811 L89.6956355,21.9353122 C89.6956355,23.4419064 90.664878,24.6542366 92.1815515,24.6542366 C93.1144628,24.6542366 93.7542613,24.2498171 94.430391,23.6065209 L96.0572897,25.2607112 C95.1065208,26.307808 94.0101191,27.0609504 92.0540844,27.0609504 C89.1106417,27.0609504 86.9535538,24.7826483 86.9535538,21.9718245" id="Fill-15" fill="#2696FF"></path>
                    <path d="M103.66027,23.3681702 L103.66027,22.8718513 C103.184886,22.6515401 102.563253,22.5045629 101.886507,22.5045629 C100.698354,22.5045629 99.9671116,22.9823163 99.9671116,23.8644892 L99.9671116,23.9010014 C99.9671116,24.6541438 100.588437,25.095385 101.485017,25.095385 C102.782164,25.095385 103.66027,24.3787548 103.66027,23.3681702 M97.2798345,24.011157 L97.2798345,23.9746448 C97.2798345,21.8250638 98.9070411,20.8327353 101.228543,20.8327353 C102.215951,20.8327353 102.928412,20.9979687 103.623323,21.2368454 L103.623323,21.071612 C103.623323,19.9143596 102.910554,19.2713728 101.521348,19.2713728 C100.460662,19.2713728 99.7112537,19.4731184 98.8155973,19.8038946 L98.1209941,17.6728792 C99.1995381,17.1948164 100.259916,16.8822963 101.922838,16.8822963 C103.440744,16.8822963 104.537453,17.2870253 105.232056,17.9853993 C105.962991,18.7199761 106.292435,19.8038946 106.292435,21.1266898 L106.292435,26.8405464 L103.605158,26.8405464 L103.605158,25.774884 C102.928412,26.5283358 101.996424,27.0243453 100.643241,27.0243453 C98.7971239,27.0243453 97.2798345,25.9583735 97.2798345,24.011157" id="Fill-16" fill="#2696FF"></path>
                    <path d="M108.685152,16.9926066 L111.463257,16.9926066 L111.463257,18.9769542 C112.030393,17.6179561 112.944831,16.7357832 114.590203,16.8091171 L114.590203,19.730406 L114.443339,19.730406 C112.597221,19.730406 111.463257,20.8511462 111.463257,23.2027821 L111.463257,26.8403917 L108.685152,26.8403917 L108.685152,16.9926066 Z" id="Fill-17" fill="#2696FF"></path>
                    <path d="M23.7101702,21.9288631 C19.8067999,21.9288631 16.5400383,24.4610739 15.7803867,27.8097103 C15.0208587,24.4594599 11.7539734,21.9212898 7.85047949,21.9212898 C7.08711803,21.9212898 6.34280042,22.0254536 5.63224235,22.2152825 L15.9407754,4.69391372 L26.0382186,22.2529007 C25.2940246,22.0438282 24.5118666,21.9288631 23.7101702,21.9288631 Z M31.5583372,27.1174369 L15.9640238,-3.72456979e-05 L0.0155442306,27.1072564 L2.04569247,28.3112857 L3.0109929,26.6707369 C4.0528397,25.216789 5.8595319,24.2959513 7.85047949,24.2959513 C11.0149732,24.2959513 13.589355,26.5941349 13.589355,29.299414 L15.6135675,29.299414 L15.9470822,29.299414 L17.9712946,29.299414 C17.9712946,26.5941349 20.5458001,24.2885021 23.7101702,24.2885021 C26.1364057,24.2885021 28.1540641,25.6590196 29.1690764,27.69698 L29.5163175,28.3011052 L31.5583372,27.1174369 Z" id="Fill-1" fill="#2696FF"></path>
                    <polygon id="Fill-4" fill="#8100F7" points="12.8426507 12.6685401 18.8107944 12.6685401 15.8267226 7.76638571"></polygon>
                    <polygon id="Fill-6" fill="#8100F7" points="0 41.8981805 2.35772713 41.8981805 2.35772713 31.9900803 0 31.9900803"></polygon>
                    <polygon id="Fill-8" fill="#8100F7" points="29.2161048 41.8981805 31.573832 41.8981805 31.573832 31.9900803 29.2161048 31.9900803"></polygon>
                    <polygon id="Fill-9" fill="#8100F7" points="14.6478095 37.840386 17.0055367 37.840386 17.0055367 31.9902045 14.6478095 31.9902045"></polygon>
                </g>
            </g>
        </g>
    </g>
</svg>