<?xml version="1.0" encoding="UTF-8" standalone="no"?>
<svg
   xmlns:dc="http://purl.org/dc/elements/1.1/"
   xmlns:cc="http://creativecommons.org/ns#"
   xmlns:rdf="http://www.w3.org/1999/02/22-rdf-syntax-ns#"
   xmlns:svg="http://www.w3.org/2000/svg"
   xmlns="http://www.w3.org/2000/svg"
   xmlns:sodipodi="http://sodipodi.sourceforge.net/DTD/sodipodi-0.dtd"
   xmlns:inkscape="http://www.inkscape.org/namespaces/inkscape"
   width="110mm"
   height="50mm"
   viewBox="0 0 110 50"
   version="1.1"
   id="svg2687"
   inkscape:version="1.0.2-2 (e86c870879, 2021-01-15)"
   sodipodi:docname="Cloud-animation_02.svg">
  <defs
     id="defs2681" />
  <sodipodi:namedview
     id="base"
     pagecolor="#ffffff"
     bordercolor="#666666"
     borderopacity="1.0"
     inkscape:pageopacity="0.0"
     inkscape:pageshadow="2"
     inkscape:zoom="0.81741712"
     inkscape:cx="161.89974"
     inkscape:cy="90.659744"
     inkscape:document-units="mm"
     inkscape:current-layer="layer5"
     inkscape:document-rotation="0"
     showgrid="false"
     inkscape:window-width="1366"
     inkscape:window-height="705"
     inkscape:window-x="-8"
     inkscape:window-y="-8"
     inkscape:window-maximized="1"
     inkscape:snap-bbox="true"
     inkscape:bbox-nodes="true"
     inkscape:snap-page="true"
     height="25mm" />
  <metadata
     id="metadata2684">
    <rdf:RDF>
      <cc:Work
         rdf:about="">
        <dc:format>image/svg+xml</dc:format>
        <dc:type
           rdf:resource="http://purl.org/dc/dcmitype/StillImage" />
        <dc:title />
      </cc:Work>
    </rdf:RDF>
  </metadata>
  <g
     inkscape:groupmode="layer"
     id="layer5"
     inkscape:label="logo"
     style="display:inline">
    <path
       id="path6180-8"
       style="display:inline;mix-blend-mode:normal;fill:#2497c6;fill-opacity:1;fill-rule:evenodd;stroke:none;stroke-width:0.529168;stroke-linecap:round;stroke-linejoin:round;paint-order:stroke fill markers"
       d="M 71.873922,54.080813 5.7911641,-11.57734 1.0940484,-10.546326 67.177032,55.112783 Z M 64.397009,57.042863 -1.8282915,-8.6489413 -3.3787462,-8.2430053 62.845814,57.44733 Z M 60.0319,59.829512 -6.0729279,-5.9289103 -11.24049,-5.1768713 54.864335,60.581549 Z"
       sodipodi:nodetypes="ccccccccccccccc" />
    <g
       id="g875"
       transform="translate(0,-5.2916667)">
      <path
         d="m 102.48144,18.716696 c -1.76962,0 -4.856865,0.81081 -5.456035,2.754922 -0.07282,0.189391 -0.112814,0.395051 -0.112814,0.610091 0,0.939246 0.761393,1.700639 1.700638,1.700639 0.764477,0 1.411121,-0.504442 1.625291,-1.198607 0.53253,-0.610716 1.31541,-0.99827 2.18441,-0.99827 h 2e-5 c 1.18987,0 2.21811,0.726437 2.66362,1.75757 0.0344,0.03096 0.0681,0.06257 0.10134,0.0947 h 0.2688 c 1.5104,0 2.7508,1.214682 2.79274,2.715421 -0.0419,1.500731 -1.28234,2.715421 -2.79274,2.715421 h -0.2688 c -0.0332,0.03213 -0.067,0.06374 -0.10134,0.09469 -0.44551,1.031142 -1.47375,1.757578 -2.66362,1.757578 h -2e-5 c -0.869,0 -1.65188,-0.387553 -2.18441,-0.99827 -0.21417,-0.694165 -0.860814,-1.198607 -1.625291,-1.198607 -0.939245,0 -1.700638,0.761394 -1.700638,1.700639 0,0.21504 0.04,0.420701 0.112814,0.610091 0.59917,1.944112 3.686415,2.754914 5.456035,2.754914 4.12514,0 7.47391,-3.321877 7.51856,-7.436461 -0.0447,-4.114584 -3.39342,-7.436469 -7.51856,-7.436469 z"
         style="fill:#545454;fill-rule:evenodd;stroke-width:0.264583"
         id="path519" />
      <path
         d="m 94.744228,18.718359 c 1.769628,0 4.856868,0.810802 5.456042,2.754914 0.0728,0.189391 0.11282,0.395051 0.11282,0.610092 0,0.939245 -0.761403,1.700638 -1.70064,1.700638 -0.764485,0 -1.411124,-0.504442 -1.625296,-1.198607 -0.532526,-0.610716 -1.315406,-0.998269 -2.184405,-0.998269 h -2.4e-5 c -1.189867,0 -2.218104,0.726436 -2.663626,1.757577 -0.03437,0.03096 -0.06811,0.06256 -0.101342,0.0947 h -0.268798 c -1.510396,0 -2.7508,1.21469 -2.792727,2.715421 0.04193,1.500732 1.282331,2.715421 2.792727,2.715421 h 0.268798 c 0.03324,0.03213 0.06698,0.06374 0.101342,0.0947 0.445522,1.031133 1.473759,1.757569 2.663626,1.757569 h 2.4e-5 c 0.868999,0 1.651879,-0.387553 2.184405,-0.998269 0.214172,-0.694166 0.860811,-1.198607 1.625296,-1.198607 0.939237,0 1.70064,0.761393 1.70064,1.700638 0,0.215041 -0.04,0.420701 -0.11282,0.610092 -0.599174,1.944112 -3.686414,2.754914 -5.456042,2.754914 -4.125141,0 -7.473909,-3.321878 -7.518555,-7.436462 0.04465,-4.114584 3.393414,-7.436461 7.518555,-7.436461 z"
         style="fill:#2497c6;fill-rule:evenodd;stroke-width:0.264583"
         id="path521" />
      <text
         x="88.911438"
         y="38.167393"
         id="text525"
         style="font-size:0.973732px;stroke-width:0.264583"><tspan
           font-family="Impact"
           font-size="2.96177px"
           fill="#2497c6"
           id="tspan523"
           style="stroke-width:1.0427">Cloud</tspan></text>
      <text
         x="96.436798"
         y="38.265732"
         id="text529"
         style="font-size:0.973732px;stroke-width:0.264583"><tspan
           font-family="Impact"
           font-size="2.96177px"
           fill="#545454"
           id="tspan527"
           style="stroke-width:1.0427">Soluções</tspan></text>
    </g>
  </g>
  <g
     inkscape:label="Layer 1"
     inkscape:groupmode="layer"
     id="layer1"
     style="display:inline">
    <animateMotion
       path="M 0 0 L -100 -100"
       begin="0"
       dur="1s"
       fill="freeze"
       repeatCount="indefinite" />
    <rect
       style="display:inline;opacity:0.75;mix-blend-mode:normal;fill:#545454;fill-opacity:1;fill-rule:evenodd;stroke:none;stroke-width:0.552144;stroke-linecap:round;stroke-linejoin:round;paint-order:stroke fill markers"
       id="rect1948-4-6-8"
       width="6.3075247"
       height="0.87230855"
       x="62.591118"
       y="-7.3323488"
       transform="matrix(0.71000528,0.70419636,-0.92754617,0.37370857,0,0)"
       rx="1"
       ry="1" />
    <rect
       style="display:inline;opacity:0.75;mix-blend-mode:normal;fill:#545454;fill-opacity:1;fill-rule:evenodd;stroke:none;stroke-width:0.552144;stroke-linecap:round;stroke-linejoin:round;paint-order:stroke fill markers"
       id="rect1946-7-9-1-8"
       width="6.3075247"
       height="0.87230855"
       x="-63.015091"
       y="-11.527035"
       transform="matrix(-0.71000528,-0.70419636,-0.92754617,0.37370857,0,0)"
       rx="1"
       ry="1" />
    <rect
       style="display:inline;opacity:0.75;mix-blend-mode:normal;fill:#545454;fill-opacity:1;fill-rule:evenodd;stroke:none;stroke-width:0.552144;stroke-linecap:round;stroke-linejoin:round;paint-order:stroke fill markers"
       id="rect2006-4-6-5"
       width="6.3075247"
       height="0.87230855"
       x="-97.596626"
       y="-8.9322186"
       transform="matrix(-0.71000528,-0.70419636,-0.92754617,0.37370857,0,0)"
       rx="1"
       ry="1" />
    <rect
       style="display:inline;opacity:0.75;mix-blend-mode:normal;fill:#545454;fill-opacity:1;fill-rule:evenodd;stroke:none;stroke-width:0.552144;stroke-linecap:round;stroke-linejoin:round;paint-order:stroke fill markers"
       id="rect2018-3-1-9"
       width="6.3075247"
       height="0.87230855"
       x="87.437477"
       y="7.1547866"
       transform="matrix(0.71000528,0.70419636,-0.92754617,0.37370857,0,0)"
       rx="1"
       ry="1" />
    <rect
       style="display:inline;opacity:0.75;mix-blend-mode:normal;fill:#545454;fill-opacity:1;fill-rule:evenodd;stroke:none;stroke-width:0.552144;stroke-linecap:round;stroke-linejoin:round;paint-order:stroke fill markers"
       id="rect2006-5-6-5-0"
       width="6.3075247"
       height="0.87230855"
       x="-105.40539"
       y="-14.207365"
       transform="matrix(-0.71000528,-0.70419636,-0.92754617,0.37370857,0,0)"
       rx="1"
       ry="1" />
    <rect
       style="display:inline;opacity:0.75;mix-blend-mode:normal;fill:#545454;fill-opacity:1;fill-rule:evenodd;stroke:none;stroke-width:0.552144;stroke-linecap:round;stroke-linejoin:round;paint-order:stroke fill markers"
       id="rect2006-6-8-7-0"
       width="6.3075247"
       height="0.87230855"
       x="-49.076389"
       y="7.4640017"
       transform="matrix(-0.71000528,-0.70419636,-0.92754617,0.37370857,0,0)"
       rx="1"
       ry="1" />
    <rect
       style="display:inline;opacity:0.75;mix-blend-mode:normal;fill:#545454;fill-opacity:1;fill-rule:evenodd;stroke:none;stroke-width:0.552144;stroke-linecap:round;stroke-linejoin:round;paint-order:stroke fill markers"
       id="rect2012-2-5-1-8"
       width="6.3075247"
       height="0.87230855"
       x="77.57917"
       y="3.7083309"
       transform="matrix(0.71000528,0.70419636,-0.92754617,0.37370857,0,0)"
       rx="1"
       ry="1" />
    <rect
       style="display:inline;opacity:0.75;mix-blend-mode:normal;fill:#545454;fill-opacity:1;fill-rule:evenodd;stroke:none;stroke-width:0.552144;stroke-linecap:round;stroke-linejoin:round;paint-order:stroke fill markers"
       id="rect2006-8-4-8-2-2"
       width="6.3075247"
       height="0.87230855"
       x="-113.99048"
       y="3.3522873"
       transform="matrix(-0.71000528,-0.70419636,-0.92754617,0.37370857,0,0)"
       rx="1"
       ry="1" />
    <rect
       style="display:inline;opacity:0.75;mix-blend-mode:normal;fill:#545454;fill-opacity:1;fill-rule:evenodd;stroke:none;stroke-width:0.552146;stroke-linecap:round;stroke-linejoin:round;paint-order:stroke fill markers"
       id="rect2016-2-0-2"
       width="10.233231"
       height="0.87230855"
       x="107.69941"
       y="-5.2387242"
       transform="matrix(0.71000528,0.70419636,-0.92754617,0.37370857,0,0)"
       rx="1"
       ry="1" />
    <rect
       style="display:inline;opacity:0.75;mix-blend-mode:normal;fill:#545454;fill-opacity:1;fill-rule:evenodd;stroke:none;stroke-width:0.552144;stroke-linecap:round;stroke-linejoin:round;paint-order:stroke fill markers"
       id="rect884"
       width="6.3075247"
       height="0.87230855"
       x="50.787659"
       y="3.0644798"
       transform="matrix(0.70419635,0.71000528,0.37370857,-0.92754617,0,0)"
       rx="1"
       ry="1" />
    <rect
       style="display:inline;opacity:0.75;mix-blend-mode:normal;fill:#2497c6;fill-opacity:1;fill-rule:evenodd;stroke:none;stroke-width:0.552144;stroke-linecap:round;stroke-linejoin:round;paint-order:stroke fill markers"
       id="rect886"
       width="6.3075247"
       height="0.87230855"
       x="-41.139763"
       y="-1.1751565"
       transform="matrix(-0.70419635,-0.71000528,0.37370857,-0.92754617,0,0)"
       rx="1"
       ry="1" />
  </g>
  <g
     inkscape:groupmode="layer"
     id="layer2"
     inkscape:label="Layer 2"
     style="display:inline">
    <animateMotion
       path="M 0 0 L -100 -100"
       begin="0"
       dur="1.3s"
       fill="freeze"
       repeatCount="indefinite" />
    <rect
       style="display:inline;opacity:0.75;mix-blend-mode:normal;fill:#545454;fill-opacity:1;fill-rule:evenodd;stroke:none;stroke-width:0.552144;stroke-linecap:round;stroke-linejoin:round;paint-order:stroke fill markers"
       id="rect1950-1-1-6-7"
       width="10.233231"
       height="2.5065999"
       x="-54.71843"
       y="-4.1632924"
       transform="matrix(-0.71000528,-0.70419636,-0.92754617,0.37370857,0,0)"
       rx="1"
       ry="1" />
    <rect
       style="display:inline;opacity:0.75;mix-blend-mode:normal;fill:#545454;fill-opacity:1;fill-rule:evenodd;stroke:none;stroke-width:0.552144;stroke-linecap:round;stroke-linejoin:round;paint-order:stroke fill markers"
       id="rect2010-3-3-8-3"
       width="10.233231"
       height="2.5065999"
       x="-93.996498"
       y="-0.31669858"
       transform="matrix(-0.71000528,-0.70419636,-0.92754617,0.37370857,0,0)"
       rx="1"
       ry="1" />
  </g>
  <g
     inkscape:groupmode="layer"
     id="layer3"
     inkscape:label="Layer 3"
     style="display:inline">
    <animateMotion
       path="M 0 0 L -100 -100"
       begin="0"
       dur="1.8s"
       fill="freeze"
       repeatCount="indefinite" />
    <rect
       style="display:inline;opacity:0.75;mix-blend-mode:normal;fill:#545454;fill-opacity:1;fill-rule:evenodd;stroke:none;stroke-width:0.552144;stroke-linecap:round;stroke-linejoin:round;paint-order:stroke fill markers"
       id="rect1946-6-9-6"
       width="6.3075247"
       height="2.5065498"
       x="67.457779"
       y="-13.508741"
       transform="matrix(0.71000528,0.70419636,-0.92754617,0.37370857,0,0)"
       rx="1"
       ry="1" />
    <rect
       style="display:inline;opacity:0.75;mix-blend-mode:normal;fill:#545454;fill-opacity:1;fill-rule:evenodd;stroke:none;stroke-width:0.552144;stroke-linecap:round;stroke-linejoin:round;paint-order:stroke fill markers"
       id="rect1948-2-5-5-1"
       width="6.3075247"
       height="2.5065498"
       x="-56.520714"
       y="-9.7867126"
       transform="matrix(-0.71000528,-0.70419636,-0.92754617,0.37370857,0,0)"
       rx="1"
       ry="1" />
    <rect
       style="display:inline;opacity:0.75;mix-blend-mode:normal;fill:#545454;fill-opacity:1;fill-rule:evenodd;stroke:none;stroke-width:0.552144;stroke-linecap:round;stroke-linejoin:round;paint-order:stroke fill markers"
       id="rect2008-7-3-5"
       width="6.3075247"
       height="2.5065498"
       x="-83.73587"
       y="-3.7860034"
       transform="matrix(-0.71000528,-0.70419636,-0.92754617,0.37370857,0,0)"
       rx="1"
       ry="1" />
    <rect
       style="display:inline;opacity:0.75;mix-blend-mode:normal;fill:#545454;fill-opacity:1;fill-rule:evenodd;stroke:none;stroke-width:0.552144;stroke-linecap:round;stroke-linejoin:round;paint-order:stroke fill markers"
       id="rect2012-5-7-0"
       width="6.3075247"
       height="2.5065498"
       x="98.210922"
       y="-1.0959024"
       transform="matrix(0.71000528,0.70419636,-0.92754617,0.37370857,0,0)"
       rx="1"
       ry="1" />
    <rect
       style="display:inline;opacity:0.75;mix-blend-mode:normal;fill:#545454;fill-opacity:1;fill-rule:evenodd;stroke:none;stroke-width:0.552144;stroke-linecap:round;stroke-linejoin:round;paint-order:stroke fill markers"
       id="rect2006-7-6-9-4"
       width="6.3075247"
       height="2.5065498"
       x="-64.839752"
       y="4.7864833"
       transform="matrix(-0.71000528,-0.70419636,-0.92754617,0.37370857,0,0)"
       rx="1"
       ry="1" />
    <rect
       style="display:inline;opacity:0.75;mix-blend-mode:normal;fill:#545454;fill-opacity:1;fill-rule:evenodd;stroke:none;stroke-width:0.552144;stroke-linecap:round;stroke-linejoin:round;paint-order:stroke fill markers"
       id="rect2014-6-6-1"
       width="6.3075247"
       height="2.5065498"
       x="117.33395"
       y="6.2523065"
       transform="matrix(0.71000528,0.70419636,-0.92754617,0.37370857,0,0)"
       rx="1"
       ry="1" />
    <rect
       style="display:inline;opacity:0.75;mix-blend-mode:normal;fill:#545454;fill-opacity:1;fill-rule:evenodd;stroke:none;stroke-width:0.552144;stroke-linecap:round;stroke-linejoin:round;paint-order:stroke fill markers"
       id="rect2006-9-6-6-2"
       width="6.3075247"
       height="2.5065498"
       x="-103.38181"
       y="-11.868416"
       transform="matrix(-0.71000528,-0.70419636,-0.92754617,0.37370857,0,0)"
       rx="1"
       ry="1" />
  </g>
  <g
     inkscape:groupmode="layer"
     id="layer4"
     inkscape:label="Layer 4"
     style="display:inline">
    <animateMotion
       path="M 0 0 L -100 -100"
       begin="0"
       dur="2s"
       fill="freeze"
       repeatCount="indefinite" />
    <rect
       style="display:inline;opacity:0.75;mix-blend-mode:normal;fill:#545454;fill-opacity:1;fill-rule:evenodd;stroke:none;stroke-width:0.552144;stroke-linecap:round;stroke-linejoin:round;paint-order:stroke fill markers"
       id="rect2010-30-2-6"
       width="10.233231"
       height="4.0665884"
       x="-90.172867"
       y="-11.476325"
       transform="matrix(-0.71000528,-0.70419636,-0.92754617,0.37370857,0,0)"
       rx="1"
       ry="1" />
  </g>
</svg>
