<?xml version="1.0" encoding="UTF-8" standalone="no"?>
<svg
   xmlns:dc="http://purl.org/dc/elements/1.1/"
   xmlns:cc="http://creativecommons.org/ns#"
   xmlns:rdf="http://www.w3.org/1999/02/22-rdf-syntax-ns#"
   xmlns:svg="http://www.w3.org/2000/svg"
   xmlns="http://www.w3.org/2000/svg"
   xmlns:sodipodi="http://sodipodi.sourceforge.net/DTD/sodipodi-0.dtd"
   xmlns:inkscape="http://www.inkscape.org/namespaces/inkscape"
   width="110mm"
   height="50mm"
   viewBox="0 0 110 50"
   version="1.1"
   id="svg2687"
   inkscape:version="1.0.2-2 (e86c870879, 2021-01-15)"
   sodipodi:docname="Cloud-animation_02.svg">
  <defs
     id="defs2681" />
  <sodipodi:namedview
     id="base"
     pagecolor="#ffffff"
     bordercolor="#666666"
     borderopacity="1.0"
     inkscape:pageopacity="0.0"
     inkscape:pageshadow="2"
     inkscape:zoom="1.2972806"
     inkscape:cx="291.4418"
     inkscape:cy="168.66623"
     inkscape:document-units="mm"
     inkscape:current-layer="layer5"
     inkscape:document-rotation="0"
     showgrid="false"
     inkscape:window-width="1366"
     inkscape:window-height="705"
     inkscape:window-x="-8"
     inkscape:window-y="-8"
     inkscape:window-maximized="1"
     inkscape:snap-bbox="true"
     inkscape:bbox-nodes="true"
     inkscape:snap-page="true"
     height="25mm" />
  <metadata
     id="metadata2684">
    <rdf:RDF>
      <cc:Work
         rdf:about="">
        <dc:format>image/svg+xml</dc:format>
        <dc:type
           rdf:resource="http://purl.org/dc/dcmitype/StillImage" />
        <dc:title />
      </cc:Work>
    </rdf:RDF>
  </metadata>
  <g
     inkscape:groupmode="layer"
     id="layer5"
     inkscape:label="logo"
     style="display:inline">
    <path
       id="path6180-8"
       style="display:inline;mix-blend-mode:normal;fill:#2497c6;fill-opacity:1;fill-rule:evenodd;stroke:none;stroke-width:0.529168;stroke-linecap:round;stroke-linejoin:round;paint-order:stroke fill markers"
       d="M 65.523921,54.080813 -0.55883593,-11.57734 -5.2559516,-10.546326 60.827031,55.112783 Z M 58.047008,57.042863 -8.1782916,-8.6489413 -9.7287463,-8.2430053 56.495813,57.44733 Z m -4.365109,2.786649 -66.104827,-65.7584223 -5.167563,0.752039 66.104825,65.7584203 z"
       sodipodi:nodetypes="ccccccccccccccc" />
    <g
       id="Layer1003"
       transform="matrix(0.0811443,0,0,0.0811443,74.664422,17.177575)"
       style="stroke-width:3.26065">
      <path
         d="m 342.8093,18.9677 c -21.8084,0 -59.8547,9.9922 -67.2387,33.9509 -0.8974,2.334 -1.3903,4.8685 -1.3903,7.5186 0,11.575 9.3832,20.9582 20.9582,20.9582 9.4212,0 17.3903,-6.2166 20.0296,-14.7713 6.5628,-7.5263 16.2108,-12.3024 26.9201,-12.3024 h 2e-4 c 14.6637,0 27.3354,8.9524 32.8258,21.6598 0.4235,0.3816 0.8393,0.7711 1.2489,1.1671 h 3.3126 c 18.6137,0 33.9001,14.9694 34.4169,33.4641 -0.5168,18.4946 -15.8032,33.4641 -34.4169,33.4641 h -3.3126 c -0.4096,0.396 -0.8254,0.7855 -1.2489,1.167 -5.4904,12.7075 -18.1621,21.6599 -32.8258,21.6599 h -2e-4 c -10.7093,0 -20.3573,-4.7761 -26.9201,-12.3024 -2.6393,-8.5547 -10.6084,-14.7713 -20.0296,-14.7713 -11.575,0 -20.9582,9.3832 -20.9582,20.9582 0,2.6501 0.4929,5.1846 1.3903,7.5186 7.384,23.9587 45.4303,33.9508 67.2387,33.9508 50.8371,0 92.1064,-40.9379 92.6566,-91.6449 -0.5502,-50.707 -41.8195,-91.645 -92.6566,-91.645 z"
         style="fill:#545454;fill-rule:evenodd;stroke-width:3.26065"
         id="path519" />
      <path
         d="m 247.458,18.9882 c 21.8084,0 59.8547,9.9921 67.2387,33.9508 0.8974,2.334 1.3904,4.8685 1.3904,7.5186 0,11.575 -9.3833,20.9582 -20.9582,20.9582 -9.4213,0 -17.3903,-6.2166 -20.0297,-14.7713 -6.5627,-7.5263 -16.2107,-12.3024 -26.92,-12.3024 h -3e-4 c -14.6636,0 -27.3353,8.9524 -32.8258,21.6599 -0.4235,0.3815 -0.8393,0.771 -1.2489,1.167 h -3.3126 c -18.6137,0 -33.9001,14.9695 -34.4168,33.4641 0.5167,18.4946 15.8031,33.4641 34.4168,33.4641 h 3.3126 c 0.4096,0.396 0.8254,0.7855 1.2489,1.1671 5.4905,12.7074 18.1622,21.6598 32.8258,21.6598 h 3e-4 c 10.7093,0 20.3573,-4.7761 26.92,-12.3024 2.6394,-8.5547 10.6084,-14.7713 20.0297,-14.7713 11.5749,0 20.9582,9.3832 20.9582,20.9582 0,2.6501 -0.493,5.1846 -1.3904,7.5186 -7.384,23.9587 -45.4303,33.9508 -67.2387,33.9508 -50.8371,0 -92.1064,-40.9379 -92.6566,-91.6449 0.5502,-50.707 41.8195,-91.6449 92.6566,-91.6449 z"
         style="fill:#2497c6;fill-rule:evenodd;stroke-width:3.26065"
         id="path521" />
      <text
         x="175.57629"
         y="253.9111"
         id="text525"
         style="stroke-width:3.26065"><tspan
           font-family="Impact"
           font-size="36.5px"
           fill="#2497c6"
           id="tspan523"
           style="stroke-width:12.85">Cloud</tspan></text>
      <text
         x="268.3168"
         y="259.88461"
         id="text529"
         style="stroke-width:3.26065"><tspan
           font-family="Impact"
           font-size="36.5px"
           fill="#545454"
           id="tspan527"
           style="stroke-width:12.85">Soluções</tspan></text>
    </g>
  </g>
  <g
     inkscape:label="Layer 1"
     inkscape:groupmode="layer"
     id="layer1"
     style="display:inline">
    <animateMotion
       path="M 0 0 L -100 -100"
       begin="0"
       dur="1s"
       fill="freeze"
       repeatCount="indefinite" />
    <rect
       style="display:inline;opacity:0.75;mix-blend-mode:normal;fill:#545454;fill-opacity:1;fill-rule:evenodd;stroke:none;stroke-width:0.552144;stroke-linecap:round;stroke-linejoin:round;paint-order:stroke fill markers"
       id="rect1948-4-6-8"
       width="6.3075247"
       height="0.87230855"
       x="60.007534"
       y="-2.4639764"
       transform="matrix(0.71000528,0.70419636,-0.92754617,0.37370857,0,0)"
       rx="1"
       ry="1" />
    <rect
       style="display:inline;opacity:0.75;mix-blend-mode:normal;fill:#545454;fill-opacity:1;fill-rule:evenodd;stroke:none;stroke-width:0.552144;stroke-linecap:round;stroke-linejoin:round;paint-order:stroke fill markers"
       id="rect1946-7-9-1-8"
       width="6.3075247"
       height="0.87230855"
       x="-60.431507"
       y="-6.6586628"
       transform="matrix(-0.71000528,-0.70419636,-0.92754617,0.37370857,0,0)"
       rx="1"
       ry="1" />
    <rect
       style="display:inline;opacity:0.75;mix-blend-mode:normal;fill:#545454;fill-opacity:1;fill-rule:evenodd;stroke:none;stroke-width:0.552144;stroke-linecap:round;stroke-linejoin:round;paint-order:stroke fill markers"
       id="rect2006-4-6-5"
       width="6.3075247"
       height="0.87230855"
       x="-95.013031"
       y="-4.0638461"
       transform="matrix(-0.71000528,-0.70419636,-0.92754617,0.37370857,0,0)"
       rx="1"
       ry="1" />
    <rect
       style="display:inline;opacity:0.75;mix-blend-mode:normal;fill:#545454;fill-opacity:1;fill-rule:evenodd;stroke:none;stroke-width:0.552144;stroke-linecap:round;stroke-linejoin:round;paint-order:stroke fill markers"
       id="rect2018-3-1-9"
       width="6.3075247"
       height="0.87230855"
       x="84.853882"
       y="12.023159"
       transform="matrix(0.71000528,0.70419636,-0.92754617,0.37370857,0,0)"
       rx="1"
       ry="1" />
    <rect
       style="display:inline;opacity:0.75;mix-blend-mode:normal;fill:#545454;fill-opacity:1;fill-rule:evenodd;stroke:none;stroke-width:0.552144;stroke-linecap:round;stroke-linejoin:round;paint-order:stroke fill markers"
       id="rect2006-5-6-5-0"
       width="6.3075247"
       height="0.87230855"
       x="-102.8218"
       y="-9.3389931"
       transform="matrix(-0.71000528,-0.70419636,-0.92754617,0.37370857,0,0)"
       rx="1"
       ry="1" />
    <rect
       style="display:inline;opacity:0.75;mix-blend-mode:normal;fill:#545454;fill-opacity:1;fill-rule:evenodd;stroke:none;stroke-width:0.552144;stroke-linecap:round;stroke-linejoin:round;paint-order:stroke fill markers"
       id="rect2006-6-8-7-0"
       width="6.3075247"
       height="0.87230855"
       x="-46.492805"
       y="12.332374"
       transform="matrix(-0.71000528,-0.70419636,-0.92754617,0.37370857,0,0)"
       rx="1"
       ry="1" />
    <rect
       style="display:inline;opacity:0.75;mix-blend-mode:normal;fill:#545454;fill-opacity:1;fill-rule:evenodd;stroke:none;stroke-width:0.552144;stroke-linecap:round;stroke-linejoin:round;paint-order:stroke fill markers"
       id="rect2012-2-5-1-8"
       width="6.3075247"
       height="0.87230855"
       x="74.995575"
       y="8.5767031"
       transform="matrix(0.71000528,0.70419636,-0.92754617,0.37370857,0,0)"
       rx="1"
       ry="1" />
    <rect
       style="display:inline;opacity:0.75;mix-blend-mode:normal;fill:#545454;fill-opacity:1;fill-rule:evenodd;stroke:none;stroke-width:0.552144;stroke-linecap:round;stroke-linejoin:round;paint-order:stroke fill markers"
       id="rect2006-8-4-8-2-2"
       width="6.3075247"
       height="0.87230855"
       x="-111.40688"
       y="8.2206593"
       transform="matrix(-0.71000528,-0.70419636,-0.92754617,0.37370857,0,0)"
       rx="1"
       ry="1" />
    <rect
       style="display:inline;opacity:0.75;mix-blend-mode:normal;fill:#545454;fill-opacity:1;fill-rule:evenodd;stroke:none;stroke-width:0.552146;stroke-linecap:round;stroke-linejoin:round;paint-order:stroke fill markers"
       id="rect2016-2-0-2"
       width="10.233231"
       height="0.87230855"
       x="105.11582"
       y="-0.37035188"
       transform="matrix(0.71000528,0.70419636,-0.92754617,0.37370857,0,0)"
       rx="1"
       ry="1" />
    <rect
       style="display:inline;opacity:0.75;mix-blend-mode:normal;fill:#545454;fill-opacity:1;fill-rule:evenodd;stroke:none;stroke-width:0.552144;stroke-linecap:round;stroke-linejoin:round;paint-order:stroke fill markers"
       id="rect884"
       width="6.3075247"
       height="0.87230855"
       x="44.375183"
       y="-1.8440514"
       transform="matrix(0.70419635,0.71000528,0.37370857,-0.92754617,0,0)"
       rx="1"
       ry="1" />
    <rect
       style="display:inline;opacity:0.75;mix-blend-mode:normal;fill:#2497c6;fill-opacity:1;fill-rule:evenodd;stroke:none;stroke-width:0.552144;stroke-linecap:round;stroke-linejoin:round;paint-order:stroke fill markers"
       id="rect886"
       width="6.3075247"
       height="0.87230855"
       x="-34.727287"
       y="-6.0836878"
       transform="matrix(-0.70419635,-0.71000528,0.37370857,-0.92754617,0,0)"
       rx="1"
       ry="1" />
  </g>
  <g
     inkscape:groupmode="layer"
     id="layer2"
     inkscape:label="Layer 2"
     style="display:inline">
    <animateMotion
       path="M 0 0 L -100 -100"
       begin="0"
       dur="1.3s"
       fill="freeze"
       repeatCount="indefinite" />
    <rect
       style="display:inline;opacity:0.75;mix-blend-mode:normal;fill:#545454;fill-opacity:1;fill-rule:evenodd;stroke:none;stroke-width:0.552144;stroke-linecap:round;stroke-linejoin:round;paint-order:stroke fill markers"
       id="rect1950-1-1-6-7"
       width="10.233231"
       height="2.5065999"
       x="-52.134846"
       y="0.70507967"
       transform="matrix(-0.71000528,-0.70419636,-0.92754617,0.37370857,0,0)"
       rx="1"
       ry="1" />
    <rect
       style="display:inline;opacity:0.75;mix-blend-mode:normal;fill:#545454;fill-opacity:1;fill-rule:evenodd;stroke:none;stroke-width:0.552144;stroke-linecap:round;stroke-linejoin:round;paint-order:stroke fill markers"
       id="rect2010-3-3-8-3"
       width="10.233231"
       height="2.5065999"
       x="-91.412903"
       y="4.5516734"
       transform="matrix(-0.71000528,-0.70419636,-0.92754617,0.37370857,0,0)"
       rx="1"
       ry="1" />
  </g>
  <g
     inkscape:groupmode="layer"
     id="layer3"
     inkscape:label="Layer 3"
     style="display:inline">
    <animateMotion
       path="M 0 0 L -100 -100"
       begin="0"
       dur="1.8s"
       fill="freeze"
       repeatCount="indefinite" />
    <rect
       style="display:inline;opacity:0.75;mix-blend-mode:normal;fill:#545454;fill-opacity:1;fill-rule:evenodd;stroke:none;stroke-width:0.552144;stroke-linecap:round;stroke-linejoin:round;paint-order:stroke fill markers"
       id="rect1946-6-9-6"
       width="6.3075247"
       height="2.5065498"
       x="64.874184"
       y="-8.6403694"
       transform="matrix(0.71000528,0.70419636,-0.92754617,0.37370857,0,0)"
       rx="1"
       ry="1" />
    <rect
       style="display:inline;opacity:0.75;mix-blend-mode:normal;fill:#545454;fill-opacity:1;fill-rule:evenodd;stroke:none;stroke-width:0.552144;stroke-linecap:round;stroke-linejoin:round;paint-order:stroke fill markers"
       id="rect1948-2-5-5-1"
       width="6.3075247"
       height="2.5065498"
       x="-53.93713"
       y="-4.9183402"
       transform="matrix(-0.71000528,-0.70419636,-0.92754617,0.37370857,0,0)"
       rx="1"
       ry="1" />
    <rect
       style="display:inline;opacity:0.75;mix-blend-mode:normal;fill:#545454;fill-opacity:1;fill-rule:evenodd;stroke:none;stroke-width:0.552144;stroke-linecap:round;stroke-linejoin:round;paint-order:stroke fill markers"
       id="rect2008-7-3-5"
       width="6.3075247"
       height="2.5065498"
       x="-81.152275"
       y="1.0823685"
       transform="matrix(-0.71000528,-0.70419636,-0.92754617,0.37370857,0,0)"
       rx="1"
       ry="1" />
    <rect
       style="display:inline;opacity:0.75;mix-blend-mode:normal;fill:#545454;fill-opacity:1;fill-rule:evenodd;stroke:none;stroke-width:0.552144;stroke-linecap:round;stroke-linejoin:round;paint-order:stroke fill markers"
       id="rect2012-5-7-0"
       width="6.3075247"
       height="2.5065498"
       x="95.627327"
       y="3.7724695"
       transform="matrix(0.71000528,0.70419636,-0.92754617,0.37370857,0,0)"
       rx="1"
       ry="1" />
    <rect
       style="display:inline;opacity:0.75;mix-blend-mode:normal;fill:#545454;fill-opacity:1;fill-rule:evenodd;stroke:none;stroke-width:0.552144;stroke-linecap:round;stroke-linejoin:round;paint-order:stroke fill markers"
       id="rect2006-7-6-9-4"
       width="6.3075247"
       height="2.5065498"
       x="-62.256161"
       y="9.6548557"
       transform="matrix(-0.71000528,-0.70419636,-0.92754617,0.37370857,0,0)"
       rx="1"
       ry="1" />
    <rect
       style="display:inline;opacity:0.75;mix-blend-mode:normal;fill:#545454;fill-opacity:1;fill-rule:evenodd;stroke:none;stroke-width:0.552144;stroke-linecap:round;stroke-linejoin:round;paint-order:stroke fill markers"
       id="rect2014-6-6-1"
       width="6.3075247"
       height="2.5065498"
       x="114.75036"
       y="11.120679"
       transform="matrix(0.71000528,0.70419636,-0.92754617,0.37370857,0,0)"
       rx="1"
       ry="1" />
    <rect
       style="display:inline;opacity:0.75;mix-blend-mode:normal;fill:#545454;fill-opacity:1;fill-rule:evenodd;stroke:none;stroke-width:0.552144;stroke-linecap:round;stroke-linejoin:round;paint-order:stroke fill markers"
       id="rect2006-9-6-6-2"
       width="6.3075247"
       height="2.5065498"
       x="-100.79822"
       y="-7.0000439"
       transform="matrix(-0.71000528,-0.70419636,-0.92754617,0.37370857,0,0)"
       rx="1"
       ry="1" />
  </g>
  <g
     inkscape:groupmode="layer"
     id="layer4"
     inkscape:label="Layer 4"
     style="display:inline">
    <animateMotion
       path="M 0 0 L -100 -100"
       begin="0"
       dur="2s"
       fill="freeze"
       repeatCount="indefinite" />
    <rect
       style="display:inline;opacity:0.75;mix-blend-mode:normal;fill:#545454;fill-opacity:1;fill-rule:evenodd;stroke:none;stroke-width:0.552144;stroke-linecap:round;stroke-linejoin:round;paint-order:stroke fill markers"
       id="rect2010-30-2-6"
       width="10.233231"
       height="4.0665884"
       x="-87.589272"
       y="-6.6079531"
       transform="matrix(-0.71000528,-0.70419636,-0.92754617,0.37370857,0,0)"
       rx="1"
       ry="1" />
  </g>
</svg>
