<?xml version="1.0" encoding="UTF-8" standalone="no"?>
<svg
   xmlns:dc="http://purl.org/dc/elements/1.1/"
   xmlns:cc="http://creativecommons.org/ns#"
   xmlns:rdf="http://www.w3.org/1999/02/22-rdf-syntax-ns#"
   xmlns:svg="http://www.w3.org/2000/svg"
   xmlns="http://www.w3.org/2000/svg"
   xmlns:xlink="http://www.w3.org/1999/xlink"
   xmlns:sodipodi="http://sodipodi.sourceforge.net/DTD/sodipodi-0.dtd"
   xmlns:inkscape="http://www.inkscape.org/namespaces/inkscape"
   width="280"
   height="720"
   viewBox="0 0 74.083335 190.5"
   version="1.1"
   id="svg8"
   inkscape:version="1.0.2-2 (e86c870879, 2021-01-15)"
   sodipodi:docname="TecSis_borda.svg"
   inkscape:export-filename="\\wsl$\Debian\home\kisaki\i-educar\ieducar\intranet\imagens\login\bg_art_3.png"
   inkscape:export-xdpi="120"
   inkscape:export-ydpi="120">
  <defs
     id="defs2">
    <mask
       maskUnits="userSpaceOnUse"
       id="mask11812-1">
      <rect
         style="opacity:1;fill:#ffffff;fill-rule:evenodd;stroke:none;stroke-width:0.529169;stroke-linecap:round;stroke-linejoin:round;paint-order:stroke fill markers"
         id="rect11814-9"
         width="297"
         height="210"
         x="3.3984375e-06"
         y="3.8085939e-06" />
    </mask>
    <filter
       inkscape:collect="always"
       style="color-interpolation-filters:sRGB"
       id="filter11457-2-0"
       x="-0.29801711"
       width="1.5960342"
       y="-0.025873959"
       height="1.0517479">
      <feGaussianBlur
         inkscape:collect="always"
         stdDeviation="1.6587561"
         id="feGaussianBlur11459-6-6" />
    </filter>
    <linearGradient
       inkscape:collect="always"
       xlink:href="#linearGradient7529"
       id="linearGradient1594"
       gradientUnits="userSpaceOnUse"
       gradientTransform="translate(-61.58417,-1101.6656)"
       x1="581.19983"
       y1="1543.928"
       x2="619.46912"
       y2="1543.928" />
    <linearGradient
       inkscape:collect="always"
       id="linearGradient7529">
      <stop
         style="stop-color:#f37530;stop-opacity:1"
         offset="0"
         id="stop7525" />
      <stop
         style="stop-color:#f37530;stop-opacity:0"
         offset="1"
         id="stop7527" />
    </linearGradient>
    <linearGradient
       inkscape:collect="always"
       xlink:href="#linearGradient7539"
       id="linearGradient1596"
       gradientUnits="userSpaceOnUse"
       gradientTransform="matrix(0.26458333,0,0,0.26458333,-16.615007,-291.48236)"
       x1="613.68042"
       y1="1593.9149"
       x2="546.88428"
       y2="1595.3622" />
    <linearGradient
       inkscape:collect="always"
       id="linearGradient7539">
      <stop
         style="stop-color:#000000;stop-opacity:0.51657459"
         offset="0"
         id="stop7535" />
      <stop
         style="stop-color:#4d4d4d;stop-opacity:0"
         offset="1"
         id="stop7537" />
    </linearGradient>
    <linearGradient
       inkscape:collect="always"
       xlink:href="#linearGradient13358"
       id="linearGradient1598"
       gradientUnits="userSpaceOnUse"
       gradientTransform="translate(-565.984,-552.52318)"
       x1="765.03949"
       y1="970.06116"
       x2="800.18622"
       y2="970.06116" />
    <linearGradient
       inkscape:collect="always"
       id="linearGradient13358">
      <stop
         style="stop-color:#000000;stop-opacity:0.5"
         offset="0"
         id="stop13354" />
      <stop
         style="stop-color:#4d4d4d;stop-opacity:0"
         offset="1"
         id="stop13356" />
    </linearGradient>
    <linearGradient
       inkscape:collect="always"
       xlink:href="#linearGradient12867"
       id="linearGradient1600"
       gradientUnits="userSpaceOnUse"
       gradientTransform="translate(-157.34752,-103.28747)"
       x1="362.72485"
       y1="520.00378"
       x2="391.6886"
       y2="520.00378" />
    <linearGradient
       inkscape:collect="always"
       id="linearGradient12867">
      <stop
         style="stop-color:#f3c230;stop-opacity:1"
         offset="0"
         id="stop12863" />
      <stop
         style="stop-color:#f37530;stop-opacity:0"
         offset="1"
         id="stop12865" />
    </linearGradient>
    <clipPath
       clipPathUnits="userSpaceOnUse"
       id="clipPath1450">
      <rect
         style="display:inline;opacity:0.734807;mix-blend-mode:normal;fill:none;fill-rule:evenodd;stroke:none;stroke-width:0.529169;stroke-linecap:round;stroke-linejoin:round;paint-order:stroke fill markers"
         id="rect1452"
         width="219.99998"
         height="210"
         x="76.448288"
         y="0" />
    </clipPath>
    <clipPath
       clipPathUnits="userSpaceOnUse"
       id="clipPath1680">
      <rect
         style="opacity:0.734807;fill:#cccccc;fill-rule:evenodd;stroke:none;stroke-width:0.529169;stroke-linecap:round;stroke-linejoin:round;paint-order:stroke fill markers"
         id="rect1682"
         width="227.54167"
         height="190.49998"
         x="111.12499"
         y="0" />
    </clipPath>
    <clipPath
       clipPathUnits="userSpaceOnUse"
       id="clipPath2741">
      <rect
         style="opacity:0.5;fill:#ff0000;fill-rule:evenodd;stroke:none;stroke-width:0.529169;stroke-linecap:round;stroke-linejoin:round;paint-order:stroke fill markers"
         id="rect2743"
         width="285.75"
         height="190.5"
         x="-2.8976821e-14"
         y="-2.8421709e-14" />
    </clipPath>
  </defs>
  <sodipodi:namedview
     id="base"
     pagecolor="#ffffff"
     bordercolor="#666666"
     borderopacity="1.0"
     inkscape:pageopacity="0.0"
     inkscape:pageshadow="2"
     inkscape:zoom="0.52253322"
     inkscape:cx="205.31419"
     inkscape:cy="455.98935"
     inkscape:document-units="mm"
     inkscape:current-layer="layer1"
     inkscape:document-rotation="0"
     showgrid="false"
     width="298mm"
     units="px"
     inkscape:window-width="1366"
     inkscape:window-height="705"
     inkscape:window-x="-8"
     inkscape:window-y="-8"
     inkscape:window-maximized="1"
     inkscape:snap-page="true"
     showguides="true"
     inkscape:guide-bbox="true"
     inkscape:snap-bbox="true"
     inkscape:bbox-paths="true"
     inkscape:bbox-nodes="true"
     inkscape:snap-global="false" />
  <metadata
     id="metadata5">
    <rdf:RDF>
      <cc:Work
         rdf:about="">
        <dc:format>image/svg+xml</dc:format>
        <dc:type
           rdf:resource="http://purl.org/dc/dcmitype/StillImage" />
        <dc:title></dc:title>
      </cc:Work>
    </rdf:RDF>
  </metadata>
  <g
     inkscape:label="Layer 1"
     inkscape:groupmode="layer"
     id="layer1">
    <g
       id="g937">
      <path
         id="path7683-6-3-2"
         style="display:inline;mix-blend-mode:normal;fill:#666666;fill-opacity:1;fill-rule:evenodd;stroke:none;stroke-width:1.60307;stroke-linecap:round;stroke-linejoin:round;stroke-miterlimit:4;stroke-dasharray:none;paint-order:stroke fill markers;filter:url(#filter11457-2-0)"
         d="m 135.22676,43.650082 c -3.46238,0.103981 -6.93782,-0.08316 -10.39266,0.103849 -1.17831,0.39587 -1.1452,1.818217 -1.06867,2.832391 0.0245,3.266625 -0.0768,6.544892 0.0822,9.804056 0.38719,1.16549 1.77185,1.143635 2.77606,1.072806 1.22156,-0.01429 2.44566,-0.004 3.66954,0.0037 -0.19296,0.569807 -0.16667,1.266137 -0.12196,1.837082 0.0245,3.266545 -0.0757,6.544019 0.0786,9.803553 0.002,0.0077 0.006,0.01402 0.009,0.0217 -1.80499,-0.01111 -3.60946,-0.01508 -5.40898,0.07596 -1.18613,0.388858 -1.16667,1.820254 -1.08417,2.840646 0.0234,3.26345 -0.0745,6.537351 0.0801,9.79371 0.37492,1.179936 1.78626,1.158822 2.79311,1.080559 1.21679,-0.0127 2.43569,-0.004 3.65456,0.0032 -0.19476,0.572029 -0.16886,1.271402 -0.12196,1.843293 0.0244,3.26591 -0.0756,6.54294 0.0786,9.80197 0.002,0.006 0.005,0.0114 0.007,0.0175 -1.80926,-0.0114 -3.61803,-0.0151 -5.42137,0.0801 -1.1725,0.39621 -1.15587,1.8129 -1.07022,2.82927 0.026,3.267783 -0.0797,6.546923 0.0822,9.807143 0.40203,1.2157 1.85063,1.13016 2.88303,1.07436 1.18636,-0.0122 2.37469,-0.003 3.56308,0.004 -0.19579,0.57499 -0.16723,1.27802 -0.12195,1.85258 0.0246,3.26282 -0.0769,6.5363 0.078,9.79218 0.002,0.007 0.006,0.013 0.008,0.0201 -1.80621,-0.01 -3.61211,-0.013 -5.41259,0.0734 -1.18454,0.39283 -1.16215,1.82351 -1.08004,2.84271 0.0233,3.26412 -0.0744,6.53913 0.0801,9.79631 0.38302,1.16824 1.76882,1.15408 2.7745,1.07952 1.22285,-0.0137 2.44772,-0.005 3.67265,0.003 -0.19503,0.57491 -0.16687,1.27717 -0.12092,1.85052 0.0251,3.26282 -0.0781,6.53651 0.0801,9.79218 0.002,0.007 0.005,0.0127 0.008,0.0196 -1.81092,-0.0116 -3.62103,-0.0156 -5.42551,0.0822 -1.17831,0.39584 -1.1452,1.81872 -1.06867,2.83289 0.0233,3.26477 -0.0744,6.54002 0.0801,9.79787 0.40139,1.21787 1.85086,1.13516 2.88509,1.07796 1.18589,-0.0132 2.3739,-0.004 3.56206,0.004 -0.19541,0.57512 -0.16702,1.27814 -0.12092,1.85105 0.0247,3.26345 -0.0769,6.53719 0.078,9.79373 0.002,0.006 0.005,0.0117 0.007,0.018 -1.80447,-0.0111 -3.60842,-0.0151 -5.40742,0.076 -1.18613,0.38886 -1.16667,1.82025 -1.08417,2.84067 0.0234,3.26342 -0.0745,6.53785 0.0801,9.79421 0.37492,1.17994 1.78626,1.1583 2.79311,1.08006 1.21713,-0.0127 2.43638,-0.003 3.65559,0.004 -0.19594,0.57515 -0.1688,1.27836 -0.12247,1.85055 0.0247,3.26213 -0.077,6.53502 0.078,9.79009 0,1.11413 0.65936,1.11413 2.89337,1.11413 3.13219,-0.0292 1.95102,0 3.89794,0 0,-3.69589 0.0484,-147.726476 0.0484,-152.752195 -0.23875,-0.775891 -1.10076,-1.154774 -1.86293,-1.10535 z"
         transform="matrix(1.2526122,0,0,1.2426215,-135.00504,-55.021184)"
         sodipodi:nodetypes="ccccccccccccccccccccccccccccccccccccccccccccccccccccc" />
      <g
         id="g7593-5-4"
         transform="matrix(1.2515088,0,0,1.2381237,-137.51688,-72.977258)"
         style="mix-blend-mode:normal;stroke-width:0.803343">
        <path
           id="rect6273-0-2-3"
           style="display:inline;fill:#f32e21;fill-opacity:1;fill-rule:evenodd;stroke:none;stroke-width:1.60669;stroke-linecap:round;stroke-linejoin:round;stroke-miterlimit:4;stroke-dasharray:none;paint-order:stroke fill markers"
           d="m 139.23538,58.943285 c -3.46237,0.103981 -6.93781,-0.08316 -10.39265,0.103849 -1.17831,0.39587 -1.1452,1.818217 -1.06867,2.832391 0.0245,3.266625 -0.0768,6.544892 0.0822,9.804056 0.38719,1.16549 1.77185,1.143635 2.77606,1.072806 1.22156,-0.01429 2.44566,-0.004 3.66954,0.0037 -0.19296,0.569807 -0.16667,1.266137 -0.12196,1.837082 0.0245,3.266545 -0.0757,6.544019 0.0786,9.803553 0.002,0.0077 0.006,0.01402 0.009,0.0217 -1.80499,-0.01111 -3.60946,-0.01508 -5.40898,0.07596 -1.18613,0.388858 -1.16667,1.820254 -1.08417,2.840646 0.0234,3.26345 -0.0745,6.537351 0.0801,9.79371 0.37492,1.179936 1.78626,1.158822 2.79311,1.080559 1.21679,-0.0127 2.43569,-0.004 3.65456,0.0032 -0.19476,0.572029 -0.16886,1.271402 -0.12196,1.843293 0.0244,3.26591 -0.0756,6.54294 0.0786,9.80197 0.002,0.006 0.005,0.0114 0.007,0.0175 -1.80926,-0.0114 -3.61803,-0.0151 -5.42137,0.0801 -1.1725,0.39621 -1.15587,1.8129 -1.07022,2.82927 0.026,3.26779 -0.0797,6.54693 0.0822,9.80715 0.40203,1.2157 1.85063,1.13016 2.88303,1.07436 1.18636,-0.0122 2.37469,-0.003 3.56308,0.004 -0.19579,0.57499 -0.16723,1.27802 -0.12195,1.85258 0.0246,3.26282 -0.0769,6.5363 0.078,9.79218 0.002,0.007 0.006,0.013 0.008,0.0201 -1.80621,-0.01 -3.61211,-0.013 -5.41259,0.0734 -1.18454,0.39283 -1.16215,1.82351 -1.08004,2.84271 0.0233,3.26412 -0.0744,6.53913 0.0801,9.79631 0.38302,1.16824 1.76882,1.15408 2.7745,1.07952 1.22285,-0.0137 2.44772,-0.005 3.67265,0.003 -0.19503,0.57491 -0.16687,1.27717 -0.12092,1.85052 0.0251,3.26282 -0.0781,6.53651 0.0801,9.79218 0.002,0.007 0.005,0.0127 0.008,0.0196 -1.81092,-0.0116 -3.62103,-0.0156 -5.42551,0.0822 -1.17831,0.39584 -1.1452,1.81872 -1.06867,2.83289 0.0233,3.26477 -0.0744,6.54002 0.0801,9.79787 0.40139,1.21787 1.85086,1.13516 2.88509,1.07796 1.18589,-0.0132 2.3739,-0.004 3.56206,0.004 -0.19541,0.57512 -0.16702,1.27814 -0.12092,1.85105 0.0247,3.26345 -0.0769,6.53719 0.078,9.79373 0.002,0.006 0.005,0.0117 0.007,0.018 -1.80447,-0.0111 -3.60842,-0.0151 -5.40742,0.076 -1.18613,0.38886 -1.16667,1.82025 -1.08417,2.84067 0.0234,3.26342 -0.0745,6.53785 0.0801,9.79421 0.37492,1.17994 1.78626,1.1583 2.79311,1.08006 1.21713,-0.0127 2.43638,-0.003 3.65559,0.004 -0.19594,0.57515 -0.1688,1.27836 -0.12247,1.85055 0.0247,3.26213 -0.077,6.53502 0.078,9.79009 0.3925,1.22375 1.85982,1.14797 2.89336,1.08418 3.13219,-0.0292 6.27954,0.0876 9.40201,-0.0956 1.1816,-0.44292 1.07272,-1.85426 1.02784,-2.87994 -0.0213,-3.24202 0.0705,-6.49404 -0.077,-9.72963 -0.23926,-0.77451 -1.10052,-1.15789 -1.86294,-1.10744 h -5.3e-4 c -1.52922,0.0444 -3.06032,0.0337 -4.59145,0.0243 0.19892,-0.59676 0.15092,-1.33096 0.12661,-1.93217 -0.0269,-3.23831 0.0755,-6.48748 -0.0801,-9.71878 -0.001,-0.004 -0.003,-0.007 -0.004,-0.0114 1.82214,0.008 3.6438,0.004 5.45755,-0.10025 1.19061,-0.44267 1.07542,-1.86801 1.03301,-2.89853 -0.0251,-3.23832 0.072,-6.48743 -0.0801,-9.71879 -0.2403,-0.77419 -1.10375,-1.15339 -1.86501,-1.10122 -1.52811,0.0449 -3.05861,0.0338 -4.58886,0.0243 0.19948,-0.59134 0.15534,-1.31738 0.1266,-1.91566 -0.0213,-3.24268 0.0705,-6.49544 -0.077,-9.73169 -0.002,-0.006 -0.004,-0.0109 -0.006,-0.0164 1.82211,0.008 3.64386,0.005 5.45755,-0.0987 1.18951,-0.44328 1.07558,-1.86809 1.03301,-2.89851 -0.0273,-3.24027 0.0773,-6.49134 -0.0816,-9.72447 -0.24199,-0.77653 -1.09882,-1.14223 -1.85984,-1.09606 -1.52866,0.0443 -3.05925,0.034 -4.5899,0.0249 0.19027,-0.56613 0.15904,-1.25622 0.12506,-1.82624 -0.0262,-3.27265 0.0739,-6.55547 -0.078,-9.82162 -0.002,-0.006 -0.004,-0.0106 -0.006,-0.0161 1.82278,0.009 3.64529,0.006 5.4591,-0.10075 1.18733,-0.44527 1.07291,-1.86857 1.03094,-2.89854 -0.0239,-3.23646 0.0696,-6.48309 -0.078,-9.71309 -0.24041,-0.77785 -1.09815,-1.157 -1.86294,-1.10744 h -5.2e-4 c -1.52879,0.0459 -3.05985,0.0344 -4.59094,0.0243 0.1988,-0.59669 0.15045,-1.3313 0.12609,-1.93217 -0.0269,-3.23768 0.0755,-6.48658 -0.0801,-9.71725 -0.002,-0.005 -0.004,-0.009 -0.005,-0.014 1.82454,0.009 3.64846,0.005 5.46427,-0.10129 1.17866,-0.44778 1.07339,-1.85465 1.02629,-2.88147 -0.0226,-3.2426 0.0729,-6.49607 -0.0791,-9.731712 -0.24179,-0.776314 -1.09788,-1.152076 -1.86139,-1.103286 -1.52912,0.0444 -3.0604,0.03376 -4.59145,0.02434 0.19892,-0.596767 0.15092,-1.331489 0.12661,-1.932702 -0.0269,-3.237653 0.0755,-6.486075 -0.0801,-9.716716 -0.001,-0.0045 -0.003,-0.0085 -0.005,-0.01297 1.82386,0.0087 3.64675,0.0042 5.46168,-0.102314 1.1816,-0.442886 1.07324,-1.853724 1.02836,-2.879408 -0.0213,-3.24268 0.0705,-6.495441 -0.077,-9.731692 -0.23952,-0.777875 -1.10009,-1.152816 -1.86293,-1.105377 h -5.3e-4 c -1.52929,0.04442 -3.06074,0.03376 -4.59197,0.02434 0.19924,-0.591211 0.15481,-1.317625 0.12609,-1.915663 -0.0213,-3.24268 0.0705,-6.495441 -0.077,-9.731692 -0.23875,-0.775891 -1.10076,-1.154774 -1.86293,-1.10535 z" />
        <path
           id="path7523-1-6"
           style="fill:url(#linearGradient1594);fill-opacity:1;stroke:none;stroke-width:0.804603;stroke-miterlimit:4;stroke-dasharray:none"
           d="m 526.24414,222.77734 c -12.41788,0.37293 -24.87924,-0.22934 -37.27734,0.31055 0.25659,0.51187 0.51294,1.02328 0.76953,1.53516 14.74061,28.80629 28.25378,58.83462 33.73633,90.9414 1.87185,10.53782 2.06673,21.05765 1.07226,31.61719 -1.68,28.95568 -6.67412,57.91065 -3.89258,86.96289 2.21817,25.18534 7.05588,50.16373 7.125,75.37695 0.37758,21.23657 -2.85487,42.26024 -5.28125,63.3711 -2.9323,25.9248 -3.11062,52.17717 0.0899,78.08398 3.01417,22.21259 4.98924,44.47594 4.5332,66.89844 -0.10242,14.72844 -1.83778,29.39546 -5.32031,43.78711 -2.77633,11.72545 -5.743,23.31542 -10.54492,34.17578 -0.93975,2.19049 -2.06312,5.42222 -0.87891,7.57031 2.346,1.0957 5.50253,0.92918 7.99414,0.77539 11.8382,-0.11036 23.7337,0.33109 35.53516,-0.36132 4.46589,-1.67403 4.05243,-7.00818 3.88281,-10.88477 -0.0805,-12.2533 0.26646,-24.54444 -0.29102,-36.77344 -0.90429,-2.92728 -4.15942,-4.37622 -7.04101,-4.18554 h -0.002 c -5.77972,0.16781 -11.56656,0.12732 -17.35351,0.0918 0.75182,-2.25547 0.5704,-5.03044 0.47851,-7.30273 -0.10166,-12.23928 0.28537,-24.51964 -0.30273,-36.73242 -0.004,-0.0151 -0.01,-0.0263 -0.0137,-0.043 6.88683,0.0302 13.77183,0.0151 20.62695,-0.37891 4.49995,-1.67308 4.06459,-7.0602 3.9043,-10.95508 -0.0949,-12.23932 0.27213,-24.5194 -0.30274,-36.73242 -0.90822,-2.92607 -4.17162,-4.35929 -7.04882,-4.16211 -5.77554,0.1697 -11.56013,0.1277 -17.34375,0.0918 0.75394,-2.23499 0.58714,-4.97902 0.47851,-7.24024 -0.0805,-12.25579 0.26647,-24.54975 -0.29101,-36.78125 -0.008,-0.0227 -0.0159,-0.0398 -0.0234,-0.0605 6.88671,0.0302 13.77206,0.0189 20.62695,-0.37305 4.49579,-1.67539 4.06519,-7.06058 3.9043,-10.95508 -0.10318,-12.24669 0.29197,-24.5342 -0.30859,-36.7539 -0.91461,-2.93492 -4.15301,-4.31708 -7.0293,-4.14258 -5.77761,0.16743 -11.56252,0.12814 -17.34766,0.0937 0.71913,-2.13971 0.60109,-4.74794 0.47266,-6.90235 -0.099,-12.36907 0.27919,-24.77659 -0.29492,-37.12109 -0.008,-0.0227 -0.0139,-0.0398 -0.0215,-0.0606 6.88925,0.034 13.77747,0.0226 20.63281,-0.38086 4.48755,-1.68291 4.05512,-7.06227 3.89649,-10.95507 -0.0903,-12.23229 0.26294,-24.50307 -0.29492,-36.71094 -0.90864,-2.93991 -4.15047,-4.37286 -7.04102,-4.18555 h -0.002 c -5.77811,0.17348 -11.56477,0.12997 -17.35156,0.0918 0.75137,-2.25521 0.56863,-5.03173 0.47656,-7.30274 -0.10167,-12.2369 0.28536,-24.51615 -0.30274,-36.72656 -0.008,-0.0189 -0.0158,-0.0338 -0.0195,-0.0527 6.8959,0.034 13.78944,0.0189 20.65235,-0.38282 4.45477,-1.69239 4.05692,-7.00973 3.8789,-10.89062 -0.0854,-12.2555 0.27566,-24.55205 -0.29883,-36.78125 -0.91385,-2.9341 -4.14944,-4.35433 -7.03515,-4.16992 -5.77935,0.16781 -11.56687,0.1274 -17.35352,0.0918 0.75183,-2.25549 0.5704,-5.03238 0.47852,-7.30468 -0.10167,-12.2368 0.28536,-24.51432 -0.30274,-36.72461 -0.004,-0.017 -0.012,-0.0319 -0.0195,-0.0488 6.89333,0.0329 13.783,0.0159 20.64258,-0.38672 4.46589,-1.6739 4.05634,-7.00621 3.88672,-10.88281 -0.0805,-12.2558 0.26646,-24.54975 -0.29102,-36.78125 -0.90527,-2.94 -4.15784,-4.35703 -7.04101,-4.17774 h -0.002 c -5.77999,0.16789 -11.56814,0.1274 -17.35546,0.0918 0.75303,-2.2345 0.58511,-4.97993 0.47656,-7.24023 -0.0805,-12.2558 0.26646,-24.54975 -0.29102,-36.78125 -0.90236,-2.9325 -4.16037,-4.36454 -7.04101,-4.17774 z"
           transform="scale(0.26458333)" />
        <path
           style="fill:url(#linearGradient1596);fill-opacity:1;stroke:none;stroke-width:0.212551"
           d="m 134.27063,211.88438 c -0.17146,-0.32035 -0.28752,-2.84292 -0.28752,-6.24919 v -5.71196 h -2.57675 c -4.00559,0 -3.81131,0.3406 -3.81131,-6.68155 0,-7.21569 -0.15581,-6.92779 3.74951,-6.92779 h 2.63855 v -5.97147 -5.97143 h -2.75758 c -2.13656,0 -2.85587,-0.0983 -3.19403,-0.43646 -0.36838,-0.36838 -0.43645,-1.32424 -0.43645,-6.12857 0,-3.39259 0.11615,-5.90917 0.28752,-6.22935 0.25613,-0.4786 0.60469,-0.53723 3.19402,-0.53723 h 2.90652 v -5.94543 -5.94542 l -2.80019,-0.0955 c -2.38509,-0.0813 -2.85857,-0.17536 -3.19403,-0.63457 -0.30984,-0.42416 -0.39384,-1.76255 -0.39384,-6.27557 0,-7.01178 -0.19801,-6.65578 3.70195,-6.65578 h 2.68611 v -5.97144 -5.97146 h -2.57675 c -4.00252,0 -3.81131,0.33256 -3.81131,-6.62847 0,-4.53657 0.0839,-5.87851 0.39384,-6.30288 0.33546,-0.45921 0.80894,-0.55327 3.19403,-0.63458 l 2.80019,-0.0955 v -5.94542 -5.945429 h -2.75758 c -2.13656,0 -2.85587,-0.09829 -3.19403,-0.436457 -0.36838,-0.368379 -0.43645,-1.324239 -0.43645,-6.12857 0,-3.392593 0.11615,-5.909151 0.28752,-6.22935 0.25613,-0.478604 0.60469,-0.537236 3.19402,-0.537236 h 2.90652 v -5.945399 -5.945426 l -2.80019,-0.09546 c -2.38509,-0.08131 -2.85857,-0.175393 -3.19403,-0.634603 -0.30984,-0.424154 -0.39384,-1.762549 -0.39384,-6.275573 0,-5.204645 0.0471,-5.779056 0.50792,-6.196118 0.96343,-0.871882 1.37914,-0.562557 2.64831,1.97059 3.40216,6.790399 6.01892,13.675466 7.2745,19.140223 1.08874,4.738634 1.1364,8.044074 0.26364,18.285486 -0.90068,10.568942 -0.85399,13.143152 0.4282,23.608032 1.12809,9.20718 1.21119,15.74741 0.29642,23.33032 -1.08646,9.00618 -1.17554,10.21345 -1.17835,15.97014 -0.002,4.49144 0.16037,7.07192 0.76989,12.22063 0.97894,8.26924 1.11018,19.44449 0.2802,23.86028 -0.68868,3.66409 -1.92809,8.35801 -2.93589,11.11891 -0.47069,1.2895 -0.85581,2.57058 -0.85581,2.84686 0,0.66125 -0.46136,0.6417 -0.82345,-0.0349 z"
           id="path7533-4-7" />
      </g>
    </g>
    <g
       id="g1744"
       transform="matrix(0.90967727,0,0,0.90967727,-139.11322,-284.04827)"
       style="mix-blend-mode:normal;stroke-width:1.09929">
      <rect
         style="display:inline;mix-blend-mode:normal;fill:#027381;fill-opacity:1;fill-rule:evenodd;stroke:none;stroke-width:2.19859;stroke-linecap:round;stroke-linejoin:round;stroke-miterlimit:4;stroke-dasharray:none;paint-order:stroke fill markers"
         id="rect6399-1-8"
         width="4.8714976"
         height="4.9277153"
         x="213.10933"
         y="-359.72742"
         rx="0.40601084"
         ry="0.41069624"
         transform="scale(1,-1)" />
      <rect
         style="display:inline;mix-blend-mode:normal;fill:#f32e21;fill-opacity:1;fill-rule:evenodd;stroke:none;stroke-width:2.19859;stroke-linecap:round;stroke-linejoin:round;stroke-miterlimit:4;stroke-dasharray:none;paint-order:stroke fill markers"
         id="rect6401-75-1"
         width="4.8714976"
         height="4.9277153"
         x="228.30934"
         y="-347.55872"
         rx="0.40601084"
         ry="0.41069624"
         transform="scale(1,-1)" />
      <rect
         style="display:inline;mix-blend-mode:normal;fill:#f32e21;fill-opacity:1;fill-rule:evenodd;stroke:none;stroke-width:2.19859;stroke-linecap:round;stroke-linejoin:round;stroke-miterlimit:4;stroke-dasharray:none;paint-order:stroke fill markers"
         id="rect6403-3-1"
         width="4.8714976"
         height="4.9277153"
         x="213.10933"
         y="-429.26334"
         rx="0.40601084"
         ry="0.41069624"
         transform="scale(1,-1)" />
      <rect
         style="display:inline;mix-blend-mode:normal;fill:#f32e21;fill-opacity:1;fill-rule:evenodd;stroke:none;stroke-width:2.19859;stroke-linecap:round;stroke-linejoin:round;stroke-miterlimit:4;stroke-dasharray:none;paint-order:stroke fill markers"
         id="rect6405-7-0"
         width="4.8714976"
         height="4.9277153"
         x="228.30934"
         y="-417.09442"
         rx="0.40601084"
         ry="0.41069624"
         transform="scale(1,-1)" />
      <rect
         style="display:inline;mix-blend-mode:normal;fill:#f32e21;fill-opacity:1;fill-rule:evenodd;stroke:none;stroke-width:2.19859;stroke-linecap:round;stroke-linejoin:round;stroke-miterlimit:4;stroke-dasharray:none;paint-order:stroke fill markers"
         id="rect6401-7-3-6"
         width="4.8714976"
         height="4.9277153"
         x="220.87593"
         y="-365.75882"
         rx="0.40601084"
         ry="0.41069624"
         transform="scale(1,-1)" />
      <rect
         style="display:inline;mix-blend-mode:normal;fill:#027381;fill-opacity:1;fill-rule:evenodd;stroke:none;stroke-width:2.19859;stroke-linecap:round;stroke-linejoin:round;stroke-miterlimit:4;stroke-dasharray:none;paint-order:stroke fill markers"
         id="rect6401-3-5-2"
         width="4.8714976"
         height="4.9277153"
         x="218.83492"
         y="-410.14722"
         rx="0.40601084"
         ry="0.41069624"
         transform="scale(1,-1)" />
      <rect
         style="display:inline;mix-blend-mode:normal;fill:#f32e21;fill-opacity:1;fill-rule:evenodd;stroke:none;stroke-width:2.19859;stroke-linecap:round;stroke-linejoin:round;stroke-miterlimit:4;stroke-dasharray:none;paint-order:stroke fill markers"
         id="rect6401-1-1-9"
         width="4.8714976"
         height="4.9277153"
         x="229.49355"
         y="-438.53534"
         rx="0.40601084"
         ry="0.41069624"
         transform="scale(1,-1)" />
      <rect
         style="display:inline;mix-blend-mode:normal;fill:#027381;fill-opacity:1;fill-rule:evenodd;stroke:none;stroke-width:2.19859;stroke-linecap:round;stroke-linejoin:round;stroke-miterlimit:4;stroke-dasharray:none;paint-order:stroke fill markers"
         id="rect6401-0-5-7"
         width="4.8714976"
         height="4.9277153"
         x="211.25667"
         y="-466.92325"
         rx="0.40601084"
         ry="0.41069624"
         transform="scale(1,-1)" />
      <rect
         style="display:inline;mix-blend-mode:normal;fill:#f32e21;fill-opacity:1;fill-rule:evenodd;stroke:none;stroke-width:2.19859;stroke-linecap:round;stroke-linejoin:round;stroke-miterlimit:4;stroke-dasharray:none;paint-order:stroke fill markers"
         id="rect6401-9-6-1"
         width="4.8714976"
         height="4.9277153"
         x="227.45253"
         y="-473.11697"
         rx="0.40601084"
         ry="0.41069624"
         transform="scale(1,-1)" />
      <rect
         style="display:inline;mix-blend-mode:normal;fill:#f32e21;fill-opacity:1;fill-rule:evenodd;stroke:none;stroke-width:2.19859;stroke-linecap:round;stroke-linejoin:round;stroke-miterlimit:4;stroke-dasharray:none;paint-order:stroke fill markers"
         id="rect6401-5-0-0"
         width="4.8714976"
         height="4.9277153"
         x="215.33876"
         y="-484.47214"
         rx="0.40601084"
         ry="0.41069624"
         transform="scale(1,-1)" />
      <rect
         style="display:inline;mix-blend-mode:normal;fill:#f32e21;fill-opacity:1;fill-rule:evenodd;stroke:none;stroke-width:2.19859;stroke-linecap:round;stroke-linejoin:round;stroke-miterlimit:4;stroke-dasharray:none;paint-order:stroke fill markers"
         id="rect6401-8-1-1"
         width="4.8714976"
         height="4.9277153"
         x="225.92177"
         y="-386.92075"
         rx="0.40601084"
         ry="0.41069624"
         transform="scale(1,-1)" />
      <rect
         style="display:inline;mix-blend-mode:normal;fill:#f32e21;fill-opacity:1;fill-rule:evenodd;stroke:none;stroke-width:2.19859;stroke-linecap:round;stroke-linejoin:round;stroke-miterlimit:4;stroke-dasharray:none;paint-order:stroke fill markers"
         id="rect6401-79-7-6"
         width="4.8714976"
         height="4.9277153"
         x="212.78743"
         y="-318.78976"
         rx="0.40601084"
         ry="0.41069624"
         transform="scale(1,-1)" />
      <rect
         style="display:inline;mix-blend-mode:normal;fill:#027381;fill-opacity:1;fill-rule:evenodd;stroke:none;stroke-width:2.19859;stroke-linecap:round;stroke-linejoin:round;stroke-miterlimit:4;stroke-dasharray:none;paint-order:stroke fill markers"
         id="rect6401-2-7-1"
         width="4.8714976"
         height="4.9277153"
         x="226.14876"
         y="-323.3096"
         rx="0.40601084"
         ry="0.41069624"
         transform="scale(1,-1)" />
      <rect
         style="display:inline;mix-blend-mode:normal;fill:#027381;fill-opacity:1;fill-rule:evenodd;stroke:none;stroke-width:2.19859;stroke-linecap:round;stroke-linejoin:round;stroke-miterlimit:4;stroke-dasharray:none;paint-order:stroke fill markers"
         id="rect6401-4-2-8"
         width="4.8714976"
         height="4.9277153"
         x="221.89644"
         y="-497.3757"
         rx="0.40601084"
         ry="0.41069624"
         transform="scale(1,-1)" />
      <rect
         style="display:inline;mix-blend-mode:normal;fill:#f32e21;fill-opacity:1;fill-rule:evenodd;stroke:none;stroke-width:2.19859;stroke-linecap:round;stroke-linejoin:round;stroke-miterlimit:4;stroke-dasharray:none;paint-order:stroke fill markers"
         id="rect6401-30-2-3"
         width="4.8714976"
         height="4.9277153"
         x="221.38618"
         y="-519.56989"
         rx="0.40601084"
         ry="0.41069624"
         transform="scale(1,-1)" />
      <rect
         style="display:inline;mix-blend-mode:normal;fill:#f32e21;fill-opacity:1;fill-rule:evenodd;stroke:none;stroke-width:2.19859;stroke-linecap:round;stroke-linejoin:round;stroke-miterlimit:4;stroke-dasharray:none;paint-order:stroke fill markers"
         id="rect6401-36-4-1"
         width="4.8714976"
         height="4.9277153"
         x="229.49355"
         y="-505.11789"
         rx="0.40601084"
         ry="0.41069624"
         transform="scale(1,-1)" />
      <rect
         style="display:inline;mix-blend-mode:normal;fill:#f32e21;fill-opacity:1;fill-rule:evenodd;stroke:none;stroke-width:2.19859;stroke-linecap:round;stroke-linejoin:round;stroke-miterlimit:4;stroke-dasharray:none;paint-order:stroke fill markers"
         id="rect6355-5-8"
         width="11.366828"
         height="11.498004"
         x="214.69106"
         y="444.84964"
         rx="0.94735861"
         ry="0.95829123" />
      <rect
         style="display:inline;mix-blend-mode:normal;fill:#f32e21;fill-opacity:1;fill-rule:evenodd;stroke:none;stroke-width:2.19859;stroke-linecap:round;stroke-linejoin:round;stroke-miterlimit:4;stroke-dasharray:none;paint-order:stroke fill markers"
         id="rect12637-2-8-0-6"
         width="11.366828"
         height="11.498004"
         x="206.1147"
         y="494.41806"
         rx="0.94735861"
         ry="0.95829123" />
      <rect
         style="display:inline;mix-blend-mode:normal;fill:#f32e21;fill-opacity:1;fill-rule:evenodd;stroke:none;stroke-width:2.19859;stroke-linecap:round;stroke-linejoin:round;stroke-miterlimit:4;stroke-dasharray:none;paint-order:stroke fill markers"
         id="rect6347-2-8"
         width="11.366828"
         height="11.498004"
         x="214.69106"
         y="327.98026"
         rx="0.94735861"
         ry="0.95829123" />
      <rect
         style="display:inline;mix-blend-mode:normal;fill:#f32e21;fill-opacity:1;fill-rule:evenodd;stroke:none;stroke-width:2.19859;stroke-linecap:round;stroke-linejoin:round;stroke-miterlimit:4;stroke-dasharray:none;paint-order:stroke fill markers"
         id="rect12637-4"
         width="11.366828"
         height="11.498004"
         x="204.9117"
         y="384.6763"
         rx="0.94735861"
         ry="0.95829123" />
      <path
         id="path13048-6-2-5"
         style="color:#000000;font-style:normal;font-variant:normal;font-weight:normal;font-stretch:normal;font-size:medium;line-height:normal;font-family:sans-serif;font-variant-ligatures:normal;font-variant-position:normal;font-variant-caps:normal;font-variant-numeric:normal;font-variant-alternates:normal;font-variant-east-asian:normal;font-feature-settings:normal;font-variation-settings:normal;text-indent:0;text-align:start;text-decoration:none;text-decoration-line:none;text-decoration-style:solid;text-decoration-color:#000000;letter-spacing:normal;word-spacing:normal;text-transform:none;writing-mode:lr-tb;direction:ltr;text-orientation:mixed;dominant-baseline:auto;baseline-shift:baseline;text-anchor:start;white-space:normal;shape-padding:0;shape-margin:0;inline-size:0;clip-rule:nonzero;display:inline;overflow:visible;visibility:visible;opacity:0.502;isolation:auto;mix-blend-mode:normal;color-interpolation:sRGB;color-interpolation-filters:linearRGB;solid-color:#000000;solid-opacity:1;vector-effect:none;fill:url(#linearGradient1598);fill-opacity:1;fill-rule:evenodd;stroke:none;stroke-width:0.291311;stroke-linecap:round;stroke-linejoin:round;stroke-miterlimit:4;stroke-dasharray:none;stroke-dashoffset:0;stroke-opacity:1;paint-order:stroke fill markers;color-rendering:auto;image-rendering:auto;shape-rendering:auto;text-rendering:auto;enable-background:accumulate;stop-color:#000000"
         d="m 212.62469,315.50554 v 2.87372 c 0,0.22754 0.18127,0.41082 0.40619,0.41085 h 4.05918 c 0.22493,0 0.40617,-0.18331 0.40617,-0.41085 v -2.10063 c -1.64571,-0.42529 -3.28825,-0.67112 -4.87154,-0.77309 z m 13.36146,4.88548 v 2.50838 c 0,0.22752 0.18074,0.41032 0.40566,0.41032 h 2.6448 c -0.10044,-0.11708 -0.20074,-0.23429 -0.30282,-0.34883 -0.85611,-0.9612 -1.7786,-1.81369 -2.74764,-2.56987 z m -10.51047,7.58973 c -0.52482,0 -0.94723,0.42717 -0.94723,0.95808 v 9.58133 c 0,0.53089 0.42241,0.95859 0.94723,0.95859 h 9.4723 c 0.52483,0 0.94723,-0.4277 0.94723,-0.95859 v -9.58133 c 0,-0.53091 -0.4224,-0.95808 -0.94723,-0.95808 z m 13.07672,14.65027 c -0.2249,0 -0.40566,0.18331 -0.40566,0.41082 v 4.1062 c 0,0.22754 0.18076,0.41085 0.40566,0.41085 h 0.18552 c 1.58041,-1.49646 2.96992,-3.09875 3.9641,-4.91702 -0.029,-0.007 -0.0589,-0.0109 -0.0899,-0.0109 z m -15.19957,12.16877 c -0.22493,0 -0.40619,0.1833 -0.40619,0.41082 v 4.1062 c 0,0.20876 0.15306,0.37825 0.35192,0.40516 1.25942,-1.14385 2.58043,-2.2048 3.90313,-3.21223 0.20513,-0.15626 0.41095,-0.30874 0.61648,-0.46302 v -0.83611 c 0,-0.22752 -0.18124,-0.41082 -0.40616,-0.41082 z m 12.23181,7.80674 c -0.57184,0.12356 -1.14138,0.24993 -1.70637,0.37828 -1.06162,0.24127 -2.11545,0.49159 -3.16519,0.74001 v 1.62367 c 0,0.22752 0.18127,0.41082 0.40619,0.41082 h 4.05919 c 0.22492,0 0.40618,-0.1833 0.40618,-0.41082 z m -19.88819,22.06998 c -0.52486,0 -0.94724,0.4277 -0.94724,0.95859 v 9.58133 c 0,0.53089 0.42238,0.95808 0.94724,0.95808 h 6.32364 c -0.31525,-0.38423 -0.62285,-0.77528 -0.9121,-1.18184 -1.03108,-1.4419 -1.83816,-3.13126 -1.81435,-4.92165 0.0316,-1.54432 0.72073,-2.99098 1.63142,-4.18734 0.31724,-0.41778 0.65339,-0.81918 1.0046,-1.20717 z m 13.38161,20.54345 c -0.22494,0 -0.40565,0.1828 -0.40565,0.41031 v 4.10673 c 0,0.22752 0.18071,0.41032 0.40565,0.41032 h 4.05969 c 0.22492,0 0.40619,-0.1828 0.40619,-0.41032 v -2.79879 c -0.64916,-0.57687 -1.29995,-1.14895 -1.95183,-1.71825 z m 9.47434,6.94687 c -0.2249,0 -0.40566,0.1833 -0.40566,0.41082 v 4.1062 c 0,0.22754 0.18076,0.41084 0.40566,0.41084 h 3.33158 c -0.0495,-0.46159 -0.20431,-0.92675 -0.39841,-1.36633 -0.41844,-0.9329 -1.03024,-1.77729 -1.68206,-2.58278 -0.27006,-0.33325 -0.55044,-0.65773 -0.83511,-0.97875 z m -15.19957,12.16927 c -0.22493,0 -0.40619,0.1828 -0.40619,0.41032 v 4.10673 c 0,0.22751 0.18126,0.41031 0.40619,0.41031 h 3.53311 c -0.21834,-0.12459 -0.43627,-0.25019 -0.65061,-0.38243 -0.67199,-0.4082 -1.39258,-0.85164 -1.86396,-1.54924 -0.14373,-0.20949 -0.24493,-0.46826 -0.2403,-0.75086 0.0136,-0.26249 0.12155,-0.49966 0.27337,-0.68627 0.43222,-0.53129 1.05468,-0.82 1.63142,-1.0604 0.42968,-0.18402 0.86675,-0.34692 1.30741,-0.49816 z m 15.97784,10.55595 v 3.23286 c 0,0.22755 0.18124,0.41085 0.40616,0.41085 h 4.05971 c 0.22493,0 0.40566,-0.1833 0.40566,-0.41085 v -1.05574 c -1.60607,-0.76943 -3.2408,-1.47875 -4.87153,-2.17712 z m -13.85499,9.95804 c -0.52482,0 -0.94723,0.4272 -0.94723,0.95809 v 7.45694 c 1.61168,-1.4435 3.63125,-2.4295 5.63583,-3.2753 1.86989,-0.7931 3.78749,-1.4499 5.73093,-2.05 v -2.13164 c 0,-0.53089 -0.4224,-0.95809 -0.94723,-0.95809 z m -3.97597,17.14573 c -0.22495,0 -0.40566,0.1833 -0.40566,0.4108 v 4.1062 c 0,0.2276 0.18071,0.4109 0.40566,0.4109 h 2.15749 c -0.79975,-1.5542 -1.44936,-3.2014 -1.78853,-4.9279 z m 18.71049,6.1939 c -0.43032,1.5934 -0.64154,3.2614 -0.93898,4.9274 h 2.48409 c 0.22492,0 0.40619,-0.1828 0.40619,-0.4103 v -4.1067 c 0,-0.2276 -0.18127,-0.4104 -0.40619,-0.4104 z m -14.62805,11.3549 c -0.22495,0 -0.40619,0.1833 -0.40619,0.4108 v 2.6634 c 0.2676,-0.045 0.53592,-0.091 0.801,-0.1333 1.34279,-0.2215 2.70301,-0.3952 4.07054,-0.5622 v -1.9679 c 0,-0.2275 -0.18124,-0.4108 -0.40616,-0.4108 z m 6.15156,14.3402 v 3.0804 c 0,0.2276 0.18124,0.4109 0.40617,0.4109 h 4.05918 c 0.22492,0 0.40619,-0.1833 0.40619,-0.4109 v -1.7492 c -0.12102,-0.032 -0.24083,-0.064 -0.36227,-0.097 -1.45547,-0.398 -2.9773,-0.7915 -4.50927,-1.234 z m -14.83423,0.5333 c -0.52485,0 -0.94776,0.4277 -0.94776,0.9586 v 9.5813 c 0,0.4167 0.26206,0.7662 0.62788,0.8987 0.87296,-2.3262 2.76603,-4.3241 5.07566,-5.8891 1.37287,-0.9344 2.94296,-1.7506 4.66378,-2.1207 0.32507,-0.07 0.66098,-0.1164 0.99994,-0.1437 v -2.3265 c 0,-0.5309 -0.42291,-0.9586 -0.94774,-0.9586 z m 22.83735,5.7723 c -0.22492,0 -0.40616,0.1833 -0.40616,0.4108 v 4.1062 c 0,0.2275 0.18124,0.4108 0.40616,0.4108 h 1.36427 c 0.26718,-0.8742 0.4404,-1.7881 0.55758,-2.7192 0.0899,-0.726 0.15248,-1.4703 0.13592,-2.2086 z m -8.51112,14.8399 c -3.9e-4,0.01 -0.002,0.015 -0.002,0.023 v 4.1062 c 0,0.2276 0.18074,0.4109 0.40566,0.4109 h 3.47266 c -0.25681,-0.4521 -0.55047,-0.9271 -0.88832,-1.4217 -0.64127,-0.9355 -1.65102,-2.3154 -2.98794,-3.1181 z" />
      <path
         id="rect6399-1-7-3"
         style="display:inline;mix-blend-mode:color-dodge;fill:url(#linearGradient1600);fill-opacity:1;fill-rule:evenodd;stroke:none;stroke-width:2.19859;stroke-linecap:round;stroke-linejoin:round;stroke-miterlimit:4;stroke-dasharray:none;paint-order:stroke fill markers"
         d="m 213.16975,313.86224 c -0.22492,0 -0.40619,0.18328 -0.40619,0.41082 v 1.06452 c 1.58687,0.12103 3.23038,0.39286 4.87154,0.83717 v -1.90169 c 0,-0.22754 -0.18124,-0.41082 -0.40617,-0.41082 z m 13.36093,4.52012 c -0.22492,0 -0.40566,0.1828 -0.40566,0.41031 v 1.62626 c 0.88696,0.71094 1.73458,1.50297 2.52698,2.38745 0.16341,0.1825 0.23905,0.34869 0.24392,0.50334 h 1.69447 c 0.22493,0 0.40616,-0.1828 0.40616,-0.41032 v -4.10673 c 0,-0.22751 -0.18123,-0.41031 -0.40616,-0.41031 z m -5.76554,9.59839 c -1.1154,1.21727 -1.68751,2.86885 -1.04076,5.21208 0,3.70491 2.97516,5.1348 6.1464,5.86632 0.10306,-0.15349 0.1633,-0.33872 0.1633,-0.53899 v -9.58133 c 0,-0.53091 -0.4224,-0.95808 -0.94723,-0.95808 z m 11.9905,14.65077 c -0.97145,1.8265 -2.32368,3.43559 -3.86594,4.92737 h 3.86128 c 0.22492,0 0.40619,-0.18331 0.40619,-0.41085 v -4.1062 c 0,-0.2259 -0.17883,-0.40775 -0.40153,-0.41032 z m -14.7986,13.49169 c -0.27633,0.20698 -0.55287,0.41336 -0.82836,0.62373 -1.23123,0.9403 -2.45694,1.92773 -3.63183,2.98072 h 4.05403 c 0.22492,0 0.40616,-0.18331 0.40616,-0.41085 z m 3.3011,4.70823 c -0.22492,0 -0.40619,0.18331 -0.40619,0.41085 v 2.05878 c 0.89583,-0.21297 1.79308,-0.42765 2.6996,-0.63458 0.71633,-0.16362 1.44222,-0.32388 2.17196,-0.47802 v -0.94618 c 0,-0.22754 -0.18126,-0.41085 -0.40618,-0.41085 z m 5.04569,21.16204 c -0.22493,0 -0.40566,0.18278 -0.40566,0.41029 v 4.10673 c 0,0.22754 0.18073,0.41032 0.40566,0.41032 h 4.05971 c 0.22492,0 0.40566,-0.18278 0.40566,-0.41032 v -4.10673 c 0,-0.22751 -0.18074,-0.41029 -0.40566,-0.41029 z m -14.14021,2.68303 c -0.4254,0.45556 -0.83151,0.92679 -1.20613,1.42317 -0.87371,1.16062 -1.53731,2.53802 -1.55599,3.97701 -0.0346,1.6756 0.75121,3.29152 1.74977,4.7041 0.34163,0.4808 0.70731,0.94274 1.08728,1.39372 h 3.06853 c 0.52483,0 0.94774,-0.42719 0.94774,-0.95808 v -9.58133 c 0,-0.53089 -0.42291,-0.95859 -0.94774,-0.95859 z m 9.73944,20.54345 c 0.59407,0.51913 1.18774,1.0411 1.77975,1.56786 v -1.15755 c 0,-0.22751 -0.18127,-0.41031 -0.40619,-0.41031 z m 7.31221,6.94687 c 0.21194,0.24394 0.42133,0.49032 0.62529,0.74155 0.66268,0.81481 1.2917,1.68656 1.73374,2.66496 0.21651,0.47239 0.38288,0.9901 0.43048,1.52135 h 0.7462 c 0.22492,0 0.40619,-0.1833 0.40619,-0.41084 v -4.1062 c 0,-0.22752 -0.18127,-0.41082 -0.40619,-0.41082 z m -11.35485,12.31656 c -0.65548,0.20447 -1.30157,0.43051 -1.92858,0.7002 -0.56687,0.2504 -1.14009,0.50204 -1.48309,0.94776 -0.10922,0.14251 -0.1895,0.30499 -0.19069,0.46249 -0.0114,0.17241 0.0691,0.3565 0.17725,0.52658 0.39706,0.611 1.07796,1.01616 1.74614,1.43507 0.40497,0.25001 0.82127,0.48247 1.2423,0.70797 h 0.12713 c 0.22492,0 0.40616,-0.1828 0.40616,-0.41031 v -4.10673 c 0,-0.10094 -0.0373,-0.19177 -0.0966,-0.26303 z m 12.01528,9.1245 c -0.22492,0 -0.40616,0.18331 -0.40616,0.41082 v 0.62373 c 1.6288,0.69829 3.26321,1.41169 4.87153,2.18953 v -2.81326 c 0,-0.22751 -0.18073,-0.41082 -0.40566,-0.41082 z m -3.84162,14.61153 c -2.03231,0.6205 -4.03256,1.2962 -5.97484,2.1203 -1.92911,0.8228 -3.85533,1.7516 -5.39192,3.0783 v 1.9715 c 0,0.5309 0.42241,0.9586 0.94723,0.9586 h 9.4723 c 0.52483,0 0.94723,-0.4277 0.94723,-0.9586 z m -14.03583,13.7764 c 0.34547,1.7192 1.01378,3.3668 1.83089,4.9279 h 1.86913 c 0.22495,0 0.40619,-0.1833 0.40619,-0.4109 v -4.1062 c 0,-0.2275 -0.18124,-0.4108 -0.40619,-0.4108 z m 15.83624,6.1939 c -0.22495,0 -0.40566,0.1828 -0.40566,0.4104 v 4.1067 c 0,0.2275 0.18071,0.4103 0.40566,0.4103 h 0.81182 c 0.29726,-1.6448 0.50867,-3.3039 0.93586,-4.9274 z m -7.64812,14.0069 c -1.4863,0.1783 -2.96064,0.362 -4.41214,0.6 -0.15325,0.026 -0.30591,0.053 -0.4594,0.078 v 1.187 c 0,0.2276 0.18124,0.4109 0.40619,0.4109 h 4.05919 c 0.22492,0 0.40616,-0.1833 0.40616,-0.4109 z m 2.09238,10.2516 c -0.22493,0 -0.40617,0.1833 -0.40617,0.4108 v 0.8367 c 1.42092,0.4063 2.83377,0.7741 4.19148,1.1482 0.22662,0.062 0.45334,0.1221 0.68006,0.1824 v -2.1673 c 0,-0.2275 -0.18127,-0.4108 -0.40619,-0.4108 z m -4.8209,5.4622 c -0.45606,0.012 -0.90979,0.062 -1.34617,0.154 -1.68304,0.3561 -3.23009,1.1575 -4.59145,2.0774 -2.2366,1.518 -4.08223,3.4253 -4.96456,5.6374 0.14166,0.085 0.30541,0.1369 0.48268,0.1369 h 9.47176 c 0.52483,0 0.94774,-0.4272 0.94774,-0.9581 z m 14.35418,2.28 c 0.0165,0.7564 -0.0479,1.5114 -0.14161,2.2417 -0.11546,0.9144 -0.28641,1.8171 -0.54776,2.6861 h 2.81275 c 0.22493,0 0.40566,-0.1833 0.40566,-0.4108 v -4.1062 c 0,-0.2275 -0.18073,-0.4108 -0.40566,-0.4108 z m -10.04385,14.4518 c -0.22492,0 -0.40566,0.1833 -0.40566,0.4108 v 0.097 c 1.19457,0.8359 2.0909,2.081 2.67219,2.9481 0.34541,0.5134 0.64455,1.0054 0.90384,1.4723 h 0.88934 c 0.22493,0 0.40616,-0.1833 0.40616,-0.4109 v -4.1062 c 0,-0.2275 -0.18123,-0.4108 -0.40616,-0.4108 z" />
    </g>
  </g>
</svg>
