<?xml version="1.0" encoding="UTF-8" standalone="no"?>
<svg
   xmlns:dc="http://purl.org/dc/elements/1.1/"
   xmlns:cc="http://creativecommons.org/ns#"
   xmlns:rdf="http://www.w3.org/1999/02/22-rdf-syntax-ns#"
   xmlns:svg="http://www.w3.org/2000/svg"
   xmlns="http://www.w3.org/2000/svg"
   xmlns:xlink="http://www.w3.org/1999/xlink"
   xmlns:sodipodi="http://sodipodi.sourceforge.net/DTD/sodipodi-0.dtd"
   xmlns:inkscape="http://www.inkscape.org/namespaces/inkscape"
   width="280"
   height="720"
   viewBox="0 0 74.083335 190.5"
   version="1.1"
   id="svg8"
   inkscape:version="1.0.2-2 (e86c870879, 2021-01-15)"
   sodipodi:docname="TecSis_borda.svg"
   inkscape:export-filename="\\wsl$\Debian\home\kisaki\i-educar\ieducar\intranet\imagens\login\bg_art_3.png"
   inkscape:export-xdpi="120"
   inkscape:export-ydpi="120">
  <defs
     id="defs2">
    <mask
       maskUnits="userSpaceOnUse"
       id="mask11812-1">
      <rect
         style="opacity:1;fill:#ffffff;fill-rule:evenodd;stroke:none;stroke-width:0.529169;stroke-linecap:round;stroke-linejoin:round;paint-order:stroke fill markers"
         id="rect11814-9"
         width="297"
         height="210"
         x="3.3984375e-06"
         y="3.8085939e-06" />
    </mask>
    <filter
       inkscape:collect="always"
       style="color-interpolation-filters:sRGB"
       id="filter11457-2-0"
       x="-0.29801711"
       width="1.5960342"
       y="-0.025873959"
       height="1.0517479">
      <feGaussianBlur
         inkscape:collect="always"
         stdDeviation="1.6587561"
         id="feGaussianBlur11459-6-6" />
    </filter>
    <linearGradient
       inkscape:collect="always"
       xlink:href="#linearGradient7529"
       id="linearGradient1594"
       gradientUnits="userSpaceOnUse"
       gradientTransform="translate(-61.58417,-1101.6656)"
       x1="581.19983"
       y1="1543.928"
       x2="619.46912"
       y2="1543.928" />
    <linearGradient
       inkscape:collect="always"
       id="linearGradient7529">
      <stop
         style="stop-color:#f37530;stop-opacity:1"
         offset="0"
         id="stop7525" />
      <stop
         style="stop-color:#f37530;stop-opacity:0"
         offset="1"
         id="stop7527" />
    </linearGradient>
    <linearGradient
       inkscape:collect="always"
       xlink:href="#linearGradient7539"
       id="linearGradient1596"
       gradientUnits="userSpaceOnUse"
       gradientTransform="matrix(0.26458333,0,0,0.26458333,-16.615007,-291.48236)"
       x1="613.68042"
       y1="1593.9149"
       x2="546.88428"
       y2="1595.3622" />
    <linearGradient
       inkscape:collect="always"
       id="linearGradient7539">
      <stop
         style="stop-color:#000000;stop-opacity:0.51657459"
         offset="0"
         id="stop7535" />
      <stop
         style="stop-color:#4d4d4d;stop-opacity:0"
         offset="1"
         id="stop7537" />
    </linearGradient>
    <linearGradient
       inkscape:collect="always"
       xlink:href="#linearGradient13358"
       id="linearGradient1598"
       gradientUnits="userSpaceOnUse"
       gradientTransform="matrix(0.90967727,0,0,0.90967727,-653.976,-786.66605)"
       x1="765.03949"
       y1="970.06116"
       x2="800.18622"
       y2="970.06116" />
    <linearGradient
       inkscape:collect="always"
       id="linearGradient13358">
      <stop
         style="stop-color:#000000;stop-opacity:0.5"
         offset="0"
         id="stop13354" />
      <stop
         style="stop-color:#4d4d4d;stop-opacity:0"
         offset="1"
         id="stop13356" />
    </linearGradient>
    <linearGradient
       inkscape:collect="always"
       xlink:href="#linearGradient12867"
       id="linearGradient1600"
       gradientUnits="userSpaceOnUse"
       gradientTransform="matrix(0.90967727,0,0,0.90967727,-282.24868,-378.00653)"
       x1="362.72485"
       y1="520.00378"
       x2="391.6886"
       y2="520.00378" />
    <linearGradient
       inkscape:collect="always"
       id="linearGradient12867">
      <stop
         style="stop-color:#f3c230;stop-opacity:1"
         offset="0"
         id="stop12863" />
      <stop
         style="stop-color:#f37530;stop-opacity:0"
         offset="1"
         id="stop12865" />
    </linearGradient>
    <clipPath
       clipPathUnits="userSpaceOnUse"
       id="clipPath1450">
      <rect
         style="display:inline;opacity:0.734807;mix-blend-mode:normal;fill:none;fill-rule:evenodd;stroke:none;stroke-width:0.529169;stroke-linecap:round;stroke-linejoin:round;paint-order:stroke fill markers"
         id="rect1452"
         width="219.99998"
         height="210"
         x="76.448288"
         y="0" />
    </clipPath>
    <clipPath
       clipPathUnits="userSpaceOnUse"
       id="clipPath1680">
      <rect
         style="opacity:0.734807;fill:#cccccc;fill-rule:evenodd;stroke:none;stroke-width:0.529169;stroke-linecap:round;stroke-linejoin:round;paint-order:stroke fill markers"
         id="rect1682"
         width="227.54167"
         height="190.49998"
         x="111.12499"
         y="0" />
    </clipPath>
    <clipPath
       clipPathUnits="userSpaceOnUse"
       id="clipPath2741">
      <rect
         style="opacity:0.5;fill:#ff0000;fill-rule:evenodd;stroke:none;stroke-width:0.529169;stroke-linecap:round;stroke-linejoin:round;paint-order:stroke fill markers"
         id="rect2743"
         width="285.75"
         height="190.5"
         x="-2.8976821e-14"
         y="-2.8421709e-14" />
    </clipPath>
  </defs>
  <sodipodi:namedview
     id="base"
     pagecolor="#ffffff"
     bordercolor="#666666"
     borderopacity="1.0"
     inkscape:pageopacity="0.0"
     inkscape:pageshadow="2"
     inkscape:zoom="0.71111063"
     inkscape:cx="191.81012"
     inkscape:cy="363.45221"
     inkscape:document-units="mm"
     inkscape:current-layer="layer1"
     inkscape:document-rotation="0"
     showgrid="false"
     width="298mm"
     units="px"
     inkscape:window-width="1366"
     inkscape:window-height="705"
     inkscape:window-x="-8"
     inkscape:window-y="-8"
     inkscape:window-maximized="1"
     inkscape:snap-page="true"
     showguides="true"
     inkscape:guide-bbox="true"
     inkscape:snap-bbox="true"
     inkscape:bbox-paths="true"
     inkscape:bbox-nodes="true"
     inkscape:snap-global="false" />
  <metadata
     id="metadata5">
    <rdf:RDF>
      <cc:Work
         rdf:about="">
        <dc:format>image/svg+xml</dc:format>
        <dc:type
           rdf:resource="http://purl.org/dc/dcmitype/StillImage" />
        <dc:title></dc:title>
      </cc:Work>
    </rdf:RDF>
  </metadata>
  <g
     inkscape:label="Layer 1"
     inkscape:groupmode="layer"
     id="layer1">
    <g
       id="g937">
      <path
         id="path7683-6-3-2"
         style="display:inline;mix-blend-mode:normal;fill:#666666;fill-opacity:1;fill-rule:evenodd;stroke:none;stroke-width:1.60307;stroke-linecap:round;stroke-linejoin:round;stroke-miterlimit:4;stroke-dasharray:none;paint-order:stroke fill markers;filter:url(#filter11457-2-0)"
         d="m 135.22676,43.650082 c -3.46238,0.103981 -6.93782,-0.08316 -10.39266,0.103849 -1.17831,0.39587 -1.1452,1.818217 -1.06867,2.832391 0.0245,3.266625 -0.0768,6.544892 0.0822,9.804056 0.38719,1.16549 1.77185,1.143635 2.77606,1.072806 1.22156,-0.01429 2.44566,-0.004 3.66954,0.0037 -0.19296,0.569807 -0.16667,1.266137 -0.12196,1.837082 0.0245,3.266545 -0.0757,6.544019 0.0786,9.803553 0.002,0.0077 0.006,0.01402 0.009,0.0217 -1.80499,-0.01111 -3.60946,-0.01508 -5.40898,0.07596 -1.18613,0.388858 -1.16667,1.820254 -1.08417,2.840646 0.0234,3.26345 -0.0745,6.537351 0.0801,9.79371 0.37492,1.179936 1.78626,1.158822 2.79311,1.080559 1.21679,-0.0127 2.43569,-0.004 3.65456,0.0032 -0.19476,0.572029 -0.16886,1.271402 -0.12196,1.843293 0.0244,3.26591 -0.0756,6.54294 0.0786,9.80197 0.002,0.006 0.005,0.0114 0.007,0.0175 -1.80926,-0.0114 -3.61803,-0.0151 -5.42137,0.0801 -1.1725,0.39621 -1.15587,1.8129 -1.07022,2.82927 0.026,3.267783 -0.0797,6.546923 0.0822,9.807143 0.40203,1.2157 1.85063,1.13016 2.88303,1.07436 1.18636,-0.0122 2.37469,-0.003 3.56308,0.004 -0.19579,0.57499 -0.16723,1.27802 -0.12195,1.85258 0.0246,3.26282 -0.0769,6.5363 0.078,9.79218 0.002,0.007 0.006,0.013 0.008,0.0201 -1.80621,-0.01 -3.61211,-0.013 -5.41259,0.0734 -1.18454,0.39283 -1.16215,1.82351 -1.08004,2.84271 0.0233,3.26412 -0.0744,6.53913 0.0801,9.79631 0.38302,1.16824 1.76882,1.15408 2.7745,1.07952 1.22285,-0.0137 2.44772,-0.005 3.67265,0.003 -0.19503,0.57491 -0.16687,1.27717 -0.12092,1.85052 0.0251,3.26282 -0.0781,6.53651 0.0801,9.79218 0.002,0.007 0.005,0.0127 0.008,0.0196 -1.81092,-0.0116 -3.62103,-0.0156 -5.42551,0.0822 -1.17831,0.39584 -1.1452,1.81872 -1.06867,2.83289 0.0233,3.26477 -0.0744,6.54002 0.0801,9.79787 0.40139,1.21787 1.85086,1.13516 2.88509,1.07796 1.18589,-0.0132 2.3739,-0.004 3.56206,0.004 -0.19541,0.57512 -0.16702,1.27814 -0.12092,1.85105 0.0247,3.26345 -0.0769,6.53719 0.078,9.79373 0.002,0.006 0.005,0.0117 0.007,0.018 -1.80447,-0.0111 -3.60842,-0.0151 -5.40742,0.076 -1.18613,0.38886 -1.16667,1.82025 -1.08417,2.84067 0.0234,3.26342 -0.0745,6.53785 0.0801,9.79421 0.37492,1.17994 1.78626,1.1583 2.79311,1.08006 1.21713,-0.0127 2.43638,-0.003 3.65559,0.004 -0.19594,0.57515 -0.1688,1.27836 -0.12247,1.85055 0.0247,3.26213 -0.077,6.53502 0.078,9.79009 0,1.11413 0.65936,1.11413 2.89337,1.11413 3.13219,-0.0292 1.95102,0 3.89794,0 0,-3.69589 0.0484,-147.726476 0.0484,-152.752195 -0.23875,-0.775891 -1.10076,-1.154774 -1.86293,-1.10535 z"
         transform="matrix(1.2526122,0,0,1.2426215,-135.00504,-55.021184)"
         sodipodi:nodetypes="ccccccccccccccccccccccccccccccccccccccccccccccccccccc" />
      <g
         id="g7593-5-4"
         transform="matrix(1.2515088,0,0,1.2381237,-137.51688,-72.977258)"
         style="mix-blend-mode:normal;stroke-width:0.803343">
        <path
           id="rect6273-0-2-3"
           style="display:inline;fill:#f32e21;fill-opacity:1;fill-rule:evenodd;stroke:none;stroke-width:1.60669;stroke-linecap:round;stroke-linejoin:round;stroke-miterlimit:4;stroke-dasharray:none;paint-order:stroke fill markers"
           d="m 139.23538,58.943285 c -3.46237,0.103981 -6.93781,-0.08316 -10.39265,0.103849 -1.17831,0.39587 -1.1452,1.818217 -1.06867,2.832391 0.0245,3.266625 -0.0768,6.544892 0.0822,9.804056 0.38719,1.16549 1.77185,1.143635 2.77606,1.072806 1.22156,-0.01429 2.44566,-0.004 3.66954,0.0037 -0.19296,0.569807 -0.16667,1.266137 -0.12196,1.837082 0.0245,3.266545 -0.0757,6.544019 0.0786,9.803553 0.002,0.0077 0.006,0.01402 0.009,0.0217 -1.80499,-0.01111 -3.60946,-0.01508 -5.40898,0.07596 -1.18613,0.388858 -1.16667,1.820254 -1.08417,2.840646 0.0234,3.26345 -0.0745,6.537351 0.0801,9.79371 0.37492,1.179936 1.78626,1.158822 2.79311,1.080559 1.21679,-0.0127 2.43569,-0.004 3.65456,0.0032 -0.19476,0.572029 -0.16886,1.271402 -0.12196,1.843293 0.0244,3.26591 -0.0756,6.54294 0.0786,9.80197 0.002,0.006 0.005,0.0114 0.007,0.0175 -1.80926,-0.0114 -3.61803,-0.0151 -5.42137,0.0801 -1.1725,0.39621 -1.15587,1.8129 -1.07022,2.82927 0.026,3.26779 -0.0797,6.54693 0.0822,9.80715 0.40203,1.2157 1.85063,1.13016 2.88303,1.07436 1.18636,-0.0122 2.37469,-0.003 3.56308,0.004 -0.19579,0.57499 -0.16723,1.27802 -0.12195,1.85258 0.0246,3.26282 -0.0769,6.5363 0.078,9.79218 0.002,0.007 0.006,0.013 0.008,0.0201 -1.80621,-0.01 -3.61211,-0.013 -5.41259,0.0734 -1.18454,0.39283 -1.16215,1.82351 -1.08004,2.84271 0.0233,3.26412 -0.0744,6.53913 0.0801,9.79631 0.38302,1.16824 1.76882,1.15408 2.7745,1.07952 1.22285,-0.0137 2.44772,-0.005 3.67265,0.003 -0.19503,0.57491 -0.16687,1.27717 -0.12092,1.85052 0.0251,3.26282 -0.0781,6.53651 0.0801,9.79218 0.002,0.007 0.005,0.0127 0.008,0.0196 -1.81092,-0.0116 -3.62103,-0.0156 -5.42551,0.0822 -1.17831,0.39584 -1.1452,1.81872 -1.06867,2.83289 0.0233,3.26477 -0.0744,6.54002 0.0801,9.79787 0.40139,1.21787 1.85086,1.13516 2.88509,1.07796 1.18589,-0.0132 2.3739,-0.004 3.56206,0.004 -0.19541,0.57512 -0.16702,1.27814 -0.12092,1.85105 0.0247,3.26345 -0.0769,6.53719 0.078,9.79373 0.002,0.006 0.005,0.0117 0.007,0.018 -1.80447,-0.0111 -3.60842,-0.0151 -5.40742,0.076 -1.18613,0.38886 -1.16667,1.82025 -1.08417,2.84067 0.0234,3.26342 -0.0745,6.53785 0.0801,9.79421 0.37492,1.17994 1.78626,1.1583 2.79311,1.08006 1.21713,-0.0127 2.43638,-0.003 3.65559,0.004 -0.19594,0.57515 -0.1688,1.27836 -0.12247,1.85055 0.0247,3.26213 -0.077,6.53502 0.078,9.79009 0.3925,1.22375 1.85982,1.14797 2.89336,1.08418 3.13219,-0.0292 6.27954,0.0876 9.40201,-0.0956 1.1816,-0.44292 1.07272,-1.85426 1.02784,-2.87994 -0.0213,-3.24202 0.0705,-6.49404 -0.077,-9.72963 -0.23926,-0.77451 -1.10052,-1.15789 -1.86294,-1.10744 h -5.3e-4 c -1.52922,0.0444 -3.06032,0.0337 -4.59145,0.0243 0.19892,-0.59676 0.15092,-1.33096 0.12661,-1.93217 -0.0269,-3.23831 0.0755,-6.48748 -0.0801,-9.71878 -0.001,-0.004 -0.003,-0.007 -0.004,-0.0114 1.82214,0.008 3.6438,0.004 5.45755,-0.10025 1.19061,-0.44267 1.07542,-1.86801 1.03301,-2.89853 -0.0251,-3.23832 0.072,-6.48743 -0.0801,-9.71879 -0.2403,-0.77419 -1.10375,-1.15339 -1.86501,-1.10122 -1.52811,0.0449 -3.05861,0.0338 -4.58886,0.0243 0.19948,-0.59134 0.15534,-1.31738 0.1266,-1.91566 -0.0213,-3.24268 0.0705,-6.49544 -0.077,-9.73169 -0.002,-0.006 -0.004,-0.0109 -0.006,-0.0164 1.82211,0.008 3.64386,0.005 5.45755,-0.0987 1.18951,-0.44328 1.07558,-1.86809 1.03301,-2.89851 -0.0273,-3.24027 0.0773,-6.49134 -0.0816,-9.72447 -0.24199,-0.77653 -1.09882,-1.14223 -1.85984,-1.09606 -1.52866,0.0443 -3.05925,0.034 -4.5899,0.0249 0.19027,-0.56613 0.15904,-1.25622 0.12506,-1.82624 -0.0262,-3.27265 0.0739,-6.55547 -0.078,-9.82162 -0.002,-0.006 -0.004,-0.0106 -0.006,-0.0161 1.82278,0.009 3.64529,0.006 5.4591,-0.10075 1.18733,-0.44527 1.07291,-1.86857 1.03094,-2.89854 -0.0239,-3.23646 0.0696,-6.48309 -0.078,-9.71309 -0.24041,-0.77785 -1.09815,-1.157 -1.86294,-1.10744 h -5.2e-4 c -1.52879,0.0459 -3.05985,0.0344 -4.59094,0.0243 0.1988,-0.59669 0.15045,-1.3313 0.12609,-1.93217 -0.0269,-3.23768 0.0755,-6.48658 -0.0801,-9.71725 -0.002,-0.005 -0.004,-0.009 -0.005,-0.014 1.82454,0.009 3.64846,0.005 5.46427,-0.10129 1.17866,-0.44778 1.07339,-1.85465 1.02629,-2.88147 -0.0226,-3.2426 0.0729,-6.49607 -0.0791,-9.731712 -0.24179,-0.776314 -1.09788,-1.152076 -1.86139,-1.103286 -1.52912,0.0444 -3.0604,0.03376 -4.59145,0.02434 0.19892,-0.596767 0.15092,-1.331489 0.12661,-1.932702 -0.0269,-3.237653 0.0755,-6.486075 -0.0801,-9.716716 -0.001,-0.0045 -0.003,-0.0085 -0.005,-0.01297 1.82386,0.0087 3.64675,0.0042 5.46168,-0.102314 1.1816,-0.442886 1.07324,-1.853724 1.02836,-2.879408 -0.0213,-3.24268 0.0705,-6.495441 -0.077,-9.731692 -0.23952,-0.777875 -1.10009,-1.152816 -1.86293,-1.105377 h -5.3e-4 c -1.52929,0.04442 -3.06074,0.03376 -4.59197,0.02434 0.19924,-0.591211 0.15481,-1.317625 0.12609,-1.915663 -0.0213,-3.24268 0.0705,-6.495441 -0.077,-9.731692 -0.23875,-0.775891 -1.10076,-1.154774 -1.86293,-1.10535 z" />
        <path
           id="path7523-1-6"
           style="fill:url(#linearGradient1594);fill-opacity:1;stroke:none;stroke-width:0.804603;stroke-miterlimit:4;stroke-dasharray:none"
           d="m 526.24414,222.77734 c -12.41788,0.37293 -24.87924,-0.22934 -37.27734,0.31055 0.25659,0.51187 0.51294,1.02328 0.76953,1.53516 14.74061,28.80629 28.25378,58.83462 33.73633,90.9414 1.87185,10.53782 2.06673,21.05765 1.07226,31.61719 -1.68,28.95568 -6.67412,57.91065 -3.89258,86.96289 2.21817,25.18534 7.05588,50.16373 7.125,75.37695 0.37758,21.23657 -2.85487,42.26024 -5.28125,63.3711 -2.9323,25.9248 -3.11062,52.17717 0.0899,78.08398 3.01417,22.21259 4.98924,44.47594 4.5332,66.89844 -0.10242,14.72844 -1.83778,29.39546 -5.32031,43.78711 -2.77633,11.72545 -5.743,23.31542 -10.54492,34.17578 -0.93975,2.19049 -2.06312,5.42222 -0.87891,7.57031 2.346,1.0957 5.50253,0.92918 7.99414,0.77539 11.8382,-0.11036 23.7337,0.33109 35.53516,-0.36132 4.46589,-1.67403 4.05243,-7.00818 3.88281,-10.88477 -0.0805,-12.2533 0.26646,-24.54444 -0.29102,-36.77344 -0.90429,-2.92728 -4.15942,-4.37622 -7.04101,-4.18554 h -0.002 c -5.77972,0.16781 -11.56656,0.12732 -17.35351,0.0918 0.75182,-2.25547 0.5704,-5.03044 0.47851,-7.30273 -0.10166,-12.23928 0.28537,-24.51964 -0.30273,-36.73242 -0.004,-0.0151 -0.01,-0.0263 -0.0137,-0.043 6.88683,0.0302 13.77183,0.0151 20.62695,-0.37891 4.49995,-1.67308 4.06459,-7.0602 3.9043,-10.95508 -0.0949,-12.23932 0.27213,-24.5194 -0.30274,-36.73242 -0.90822,-2.92607 -4.17162,-4.35929 -7.04882,-4.16211 -5.77554,0.1697 -11.56013,0.1277 -17.34375,0.0918 0.75394,-2.23499 0.58714,-4.97902 0.47851,-7.24024 -0.0805,-12.25579 0.26647,-24.54975 -0.29101,-36.78125 -0.008,-0.0227 -0.0159,-0.0398 -0.0234,-0.0605 6.88671,0.0302 13.77206,0.0189 20.62695,-0.37305 4.49579,-1.67539 4.06519,-7.06058 3.9043,-10.95508 -0.10318,-12.24669 0.29197,-24.5342 -0.30859,-36.7539 -0.91461,-2.93492 -4.15301,-4.31708 -7.0293,-4.14258 -5.77761,0.16743 -11.56252,0.12814 -17.34766,0.0937 0.71913,-2.13971 0.60109,-4.74794 0.47266,-6.90235 -0.099,-12.36907 0.27919,-24.77659 -0.29492,-37.12109 -0.008,-0.0227 -0.0139,-0.0398 -0.0215,-0.0606 6.88925,0.034 13.77747,0.0226 20.63281,-0.38086 4.48755,-1.68291 4.05512,-7.06227 3.89649,-10.95507 -0.0903,-12.23229 0.26294,-24.50307 -0.29492,-36.71094 -0.90864,-2.93991 -4.15047,-4.37286 -7.04102,-4.18555 h -0.002 c -5.77811,0.17348 -11.56477,0.12997 -17.35156,0.0918 0.75137,-2.25521 0.56863,-5.03173 0.47656,-7.30274 -0.10167,-12.2369 0.28536,-24.51615 -0.30274,-36.72656 -0.008,-0.0189 -0.0158,-0.0338 -0.0195,-0.0527 6.8959,0.034 13.78944,0.0189 20.65235,-0.38282 4.45477,-1.69239 4.05692,-7.00973 3.8789,-10.89062 -0.0854,-12.2555 0.27566,-24.55205 -0.29883,-36.78125 -0.91385,-2.9341 -4.14944,-4.35433 -7.03515,-4.16992 -5.77935,0.16781 -11.56687,0.1274 -17.35352,0.0918 0.75183,-2.25549 0.5704,-5.03238 0.47852,-7.30468 -0.10167,-12.2368 0.28536,-24.51432 -0.30274,-36.72461 -0.004,-0.017 -0.012,-0.0319 -0.0195,-0.0488 6.89333,0.0329 13.783,0.0159 20.64258,-0.38672 4.46589,-1.6739 4.05634,-7.00621 3.88672,-10.88281 -0.0805,-12.2558 0.26646,-24.54975 -0.29102,-36.78125 -0.90527,-2.94 -4.15784,-4.35703 -7.04101,-4.17774 h -0.002 c -5.77999,0.16789 -11.56814,0.1274 -17.35546,0.0918 0.75303,-2.2345 0.58511,-4.97993 0.47656,-7.24023 -0.0805,-12.2558 0.26646,-24.54975 -0.29102,-36.78125 -0.90236,-2.9325 -4.16037,-4.36454 -7.04101,-4.17774 z"
           transform="scale(0.26458333)" />
        <path
           style="fill:url(#linearGradient1596);fill-opacity:1;stroke:none;stroke-width:0.212551"
           d="m 134.27063,211.88438 c -0.17146,-0.32035 -0.28752,-2.84292 -0.28752,-6.24919 v -5.71196 h -2.57675 c -4.00559,0 -3.81131,0.3406 -3.81131,-6.68155 0,-7.21569 -0.15581,-6.92779 3.74951,-6.92779 h 2.63855 v -5.97147 -5.97143 h -2.75758 c -2.13656,0 -2.85587,-0.0983 -3.19403,-0.43646 -0.36838,-0.36838 -0.43645,-1.32424 -0.43645,-6.12857 0,-3.39259 0.11615,-5.90917 0.28752,-6.22935 0.25613,-0.4786 0.60469,-0.53723 3.19402,-0.53723 h 2.90652 v -5.94543 -5.94542 l -2.80019,-0.0955 c -2.38509,-0.0813 -2.85857,-0.17536 -3.19403,-0.63457 -0.30984,-0.42416 -0.39384,-1.76255 -0.39384,-6.27557 0,-7.01178 -0.19801,-6.65578 3.70195,-6.65578 h 2.68611 v -5.97144 -5.97146 h -2.57675 c -4.00252,0 -3.81131,0.33256 -3.81131,-6.62847 0,-4.53657 0.0839,-5.87851 0.39384,-6.30288 0.33546,-0.45921 0.80894,-0.55327 3.19403,-0.63458 l 2.80019,-0.0955 v -5.94542 -5.945429 h -2.75758 c -2.13656,0 -2.85587,-0.09829 -3.19403,-0.436457 -0.36838,-0.368379 -0.43645,-1.324239 -0.43645,-6.12857 0,-3.392593 0.11615,-5.909151 0.28752,-6.22935 0.25613,-0.478604 0.60469,-0.537236 3.19402,-0.537236 h 2.90652 v -5.945399 -5.945426 l -2.80019,-0.09546 c -2.38509,-0.08131 -2.85857,-0.175393 -3.19403,-0.634603 -0.30984,-0.424154 -0.39384,-1.762549 -0.39384,-6.275573 0,-5.204645 0.0471,-5.779056 0.50792,-6.196118 0.96343,-0.871882 1.37914,-0.562557 2.64831,1.97059 3.40216,6.790399 6.01892,13.675466 7.2745,19.140223 1.08874,4.738634 1.1364,8.044074 0.26364,18.285486 -0.90068,10.568942 -0.85399,13.143152 0.4282,23.608032 1.12809,9.20718 1.21119,15.74741 0.29642,23.33032 -1.08646,9.00618 -1.17554,10.21345 -1.17835,15.97014 -0.002,4.49144 0.16037,7.07192 0.76989,12.22063 0.97894,8.26924 1.11018,19.44449 0.2802,23.86028 -0.68868,3.66409 -1.92809,8.35801 -2.93589,11.11891 -0.47069,1.2895 -0.85581,2.57058 -0.85581,2.84686 0,0.66125 -0.46136,0.6417 -0.82345,-0.0349 z"
           id="path7533-4-7" />
      </g>
    </g>
    <rect
       style="display:inline;mix-blend-mode:normal;fill:#f32e21;fill-opacity:1;fill-rule:evenodd;stroke:none;stroke-width:2.00001;stroke-linecap:round;stroke-linejoin:round;stroke-miterlimit:4;stroke-dasharray:none;paint-order:stroke fill markers"
       id="rect6403-3-1"
       width="4.4314909"
       height="4.4826307"
       x="54.747494"
       y="-106.44283"
       rx="0.36933884"
       ry="0.37360102"
       transform="scale(1,-1)" />
    <rect
       style="display:inline;mix-blend-mode:normal;fill:#f32e21;fill-opacity:1;fill-rule:evenodd;stroke:none;stroke-width:2.00001;stroke-linecap:round;stroke-linejoin:round;stroke-miterlimit:4;stroke-dasharray:none;paint-order:stroke fill markers"
       id="rect6405-7-0"
       width="4.4314909"
       height="4.4826307"
       x="68.5746"
       y="-95.373047"
       rx="0.36933884"
       ry="0.37360102"
       transform="scale(1,-1)" />
    <rect
       style="display:inline;mix-blend-mode:normal;fill:#027381;fill-opacity:1;fill-rule:evenodd;stroke:none;stroke-width:2.00001;stroke-linecap:round;stroke-linejoin:round;stroke-miterlimit:4;stroke-dasharray:none;paint-order:stroke fill markers"
       id="rect6401-3-5-2"
       width="4.4314909"
       height="4.4826307"
       x="59.955929"
       y="-89.053329"
       rx="0.36933884"
       ry="0.37360102"
       transform="scale(1,-1)" />
    <rect
       style="display:inline;mix-blend-mode:normal;fill:#f32e21;fill-opacity:1;fill-rule:evenodd;stroke:none;stroke-width:2.00001;stroke-linecap:round;stroke-linejoin:round;stroke-miterlimit:4;stroke-dasharray:none;paint-order:stroke fill markers"
       id="rect6401-1-1-9"
       width="4.4314909"
       height="4.4826307"
       x="69.65184"
       y="-114.87736"
       rx="0.36933884"
       ry="0.37360102"
       transform="scale(1,-1)" />
    <rect
       style="display:inline;mix-blend-mode:normal;fill:#027381;fill-opacity:1;fill-rule:evenodd;stroke:none;stroke-width:2.00001;stroke-linecap:round;stroke-linejoin:round;stroke-miterlimit:4;stroke-dasharray:none;paint-order:stroke fill markers"
       id="rect6401-0-5-7"
       width="4.4314909"
       height="4.4826307"
       x="53.062168"
       y="-140.7012"
       rx="0.36933884"
       ry="0.37360102"
       transform="scale(1,-1)" />
    <rect
       style="display:inline;mix-blend-mode:normal;fill:#f32e21;fill-opacity:1;fill-rule:evenodd;stroke:none;stroke-width:2.00001;stroke-linecap:round;stroke-linejoin:round;stroke-miterlimit:4;stroke-dasharray:none;paint-order:stroke fill markers"
       id="rect6401-9-6-1"
       width="4.4314909"
       height="4.4826307"
       x="67.795174"
       y="-146.33548"
       rx="0.36933884"
       ry="0.37360102"
       transform="scale(1,-1)" />
    <rect
       style="display:inline;mix-blend-mode:normal;fill:#f32e21;fill-opacity:1;fill-rule:evenodd;stroke:none;stroke-width:2.00001;stroke-linecap:round;stroke-linejoin:round;stroke-miterlimit:4;stroke-dasharray:none;paint-order:stroke fill markers"
       id="rect6401-5-0-0"
       width="4.4314909"
       height="4.4826307"
       x="56.775555"
       y="-156.66502"
       rx="0.36933884"
       ry="0.37360102"
       transform="scale(1,-1)" />
    <rect
       style="display:inline;mix-blend-mode:normal;fill:#f32e21;fill-opacity:1;fill-rule:evenodd;stroke:none;stroke-width:2.00001;stroke-linecap:round;stroke-linejoin:round;stroke-miterlimit:4;stroke-dasharray:none;paint-order:stroke fill markers"
       id="rect6401-8-1-1"
       width="4.4314909"
       height="4.4826307"
       x="66.402679"
       y="-67.924736"
       rx="0.36933884"
       ry="0.37360102"
       transform="scale(1,-1)" />
    <rect
       style="display:inline;mix-blend-mode:normal;fill:#027381;fill-opacity:1;fill-rule:evenodd;stroke:none;stroke-width:2.00001;stroke-linecap:round;stroke-linejoin:round;stroke-miterlimit:4;stroke-dasharray:none;paint-order:stroke fill markers"
       id="rect6401-4-2-8"
       width="4.4314909"
       height="4.4826307"
       x="62.740925"
       y="-168.40311"
       rx="0.36933884"
       ry="0.37360102"
       transform="scale(1,-1)" />
    <rect
       style="display:inline;mix-blend-mode:normal;fill:#f32e21;fill-opacity:1;fill-rule:evenodd;stroke:none;stroke-width:2.00001;stroke-linecap:round;stroke-linejoin:round;stroke-miterlimit:4;stroke-dasharray:none;paint-order:stroke fill markers"
       id="rect6401-30-2-3"
       width="4.4314909"
       height="4.4826307"
       x="62.27676"
       y="-188.59265"
       rx="0.36933884"
       ry="0.37360102"
       transform="scale(1,-1)" />
    <rect
       style="display:inline;mix-blend-mode:normal;fill:#f32e21;fill-opacity:1;fill-rule:evenodd;stroke:none;stroke-width:2.00001;stroke-linecap:round;stroke-linejoin:round;stroke-miterlimit:4;stroke-dasharray:none;paint-order:stroke fill markers"
       id="rect6401-36-4-1"
       width="4.4314909"
       height="4.4826307"
       x="69.65184"
       y="-175.446"
       rx="0.36933884"
       ry="0.37360102"
       transform="scale(1,-1)" />
    <rect
       style="display:inline;mix-blend-mode:normal;fill:#f32e21;fill-opacity:1;fill-rule:evenodd;stroke:none;stroke-width:2.00001;stroke-linecap:round;stroke-linejoin:round;stroke-miterlimit:4;stroke-dasharray:none;paint-order:stroke fill markers"
       id="rect6355-5-8"
       width="10.340145"
       height="10.459473"
       x="56.186352"
       y="120.62134"
       rx="0.8617906"
       ry="0.87173575" />
    <rect
       style="display:inline;mix-blend-mode:normal;fill:#f32e21;fill-opacity:1;fill-rule:evenodd;stroke:none;stroke-width:2.00001;stroke-linecap:round;stroke-linejoin:round;stroke-miterlimit:4;stroke-dasharray:none;paint-order:stroke fill markers"
       id="rect12637-2-8-0-6"
       width="10.340145"
       height="10.459473"
       x="48.38464"
       y="165.7126"
       rx="0.8617906"
       ry="0.87173575" />
    <rect
       style="display:inline;mix-blend-mode:normal;fill:#f32e21;fill-opacity:1;fill-rule:evenodd;stroke:none;stroke-width:2.00001;stroke-linecap:round;stroke-linejoin:round;stroke-miterlimit:4;stroke-dasharray:none;paint-order:stroke fill markers"
       id="rect12637-4"
       width="10.340145"
       height="10.459473"
       x="47.290295"
       y="65.883018"
       rx="0.8617906"
       ry="0.87173575" />
    <path
       id="path13048-6-2-5"
       style="color:#000000;font-style:normal;font-variant:normal;font-weight:normal;font-stretch:normal;font-size:medium;line-height:normal;font-family:sans-serif;font-variant-ligatures:normal;font-variant-position:normal;font-variant-caps:normal;font-variant-numeric:normal;font-variant-alternates:normal;font-variant-east-asian:normal;font-feature-settings:normal;font-variation-settings:normal;text-indent:0;text-align:start;text-decoration:none;text-decoration-line:none;text-decoration-style:solid;text-decoration-color:#000000;letter-spacing:normal;word-spacing:normal;text-transform:none;writing-mode:lr-tb;direction:ltr;text-orientation:mixed;dominant-baseline:auto;baseline-shift:baseline;text-anchor:start;white-space:normal;shape-padding:0;shape-margin:0;inline-size:0;clip-rule:nonzero;display:inline;overflow:visible;visibility:visible;opacity:0.502;isolation:auto;mix-blend-mode:normal;color-interpolation:sRGB;color-interpolation-filters:linearRGB;solid-color:#000000;solid-opacity:1;vector-effect:none;fill:url(#linearGradient1598);fill-opacity:1;fill-rule:evenodd;stroke:none;stroke-width:0.264999;stroke-linecap:round;stroke-linejoin:round;stroke-miterlimit:4;stroke-dasharray:none;stroke-dashoffset:0;stroke-opacity:1;paint-order:stroke fill markers;color-rendering:auto;image-rendering:auto;shape-rendering:auto;text-rendering:auto;enable-background:accumulate;stop-color:#000000"
       d="m 48.004165,65.883207 c -0.477453,0 -0.861683,0.389069 -0.861683,0.872008 v 8.715918 c 0,0.482939 0.38423,0.871544 0.861683,0.871544 h 5.752472 c -0.286776,-0.349526 -0.566593,-0.705255 -0.829717,-1.075093 -0.93795,-1.311664 -1.672132,-2.848436 -1.650473,-4.477113 0.02875,-1.404833 0.655632,-2.720827 1.484066,-3.809128 0.288586,-0.380045 0.594374,-0.74519 0.913862,-1.098136 z m 12.172947,18.68791 c -0.204623,0 -0.369011,0.166289 -0.369011,0.37325 v 3.735799 c 0,0.206969 0.164388,0.373258 0.369011,0.373258 h 3.693007 c 0.204605,0 0.369502,-0.166289 0.369502,-0.373258 V 86.13417 c -0.590526,-0.524766 -1.182535,-1.045174 -1.775535,-1.563053 z m 8.618591,6.31941 c -0.204586,0 -0.369019,0.166744 -0.369019,0.373713 v 3.735317 c 0,0.206988 0.164433,0.373732 0.369019,0.373732 h 3.030663 C 71.781337,94.953391 71.64051,94.530246 71.463941,94.13037 71.083296,93.281732 70.526755,92.513609 69.93381,91.780873 69.688142,91.477723 69.433087,91.182551 69.174129,90.890527 Z M 54.969,101.96064 c -0.204614,0 -0.369502,0.16628 -0.369502,0.37325 v 3.7358 c 0,0.20696 0.164888,0.37325 0.369502,0.37325 h 3.21399 c -0.198619,-0.11333 -0.396865,-0.22759 -0.591845,-0.34789 -0.611294,-0.37133 -1.266799,-0.77471 -1.695602,-1.4093 -0.130748,-0.19057 -0.222808,-0.42597 -0.218596,-0.68304 0.01237,-0.23879 0.110571,-0.45453 0.248679,-0.62429 0.39318,-0.4833 0.959418,-0.74593 1.484065,-0.96462 0.39087,-0.1674 0.788463,-0.31559 1.189322,-0.45316 z m 14.534678,9.6025 v 2.94086 c 0,0.207 0.16487,0.37374 0.369474,0.37374 h 3.693026 c 0.204614,0 0.36902,-0.16674 0.36902,-0.37374 v -0.96038 c -1.461005,-0.69993 -2.948082,-1.34519 -4.43152,-1.98048 z m -12.60357,9.05861 c -0.477416,0 -0.861673,0.38861 -0.861673,0.87155 v 6.78341 c 1.466108,-1.31312 3.303265,-2.21006 5.126786,-2.97947 1.700997,-0.72146 3.445394,-1.31894 5.213297,-1.86484 v -1.9391 c 0,-0.48294 -0.384248,-0.87155 -0.861674,-0.87155 z m -3.616849,15.59708 c -0.204632,0 -0.36902,0.16674 -0.36902,0.37369 v 3.73532 c 0,0.20704 0.164388,0.37378 0.36902,0.37378 h 1.962619 c -0.727514,-1.41382 -1.318449,-2.91224 -1.626985,-4.48279 z m 17.020507,5.63445 c -0.391452,1.44948 -0.583594,2.96682 -0.854169,4.48234 h 2.259721 c 0.204604,0 0.369502,-0.16629 0.369502,-0.37324 v -3.73577 c 0,-0.20704 -0.164898,-0.37333 -0.369502,-0.37333 z m -13.306804,10.32929 c -0.204632,0 -0.369502,0.16674 -0.369502,0.3737 v 2.42283 c 0.243429,-0.0409 0.487514,-0.0828 0.728651,-0.12126 1.221506,-0.20149 2.458867,-0.3595 3.702878,-0.51142 v -1.79015 c 0,-0.20696 -0.16487,-0.3737 -0.369474,-0.3737 z m 5.595934,13.04495 v 2.80217 c 0,0.20705 0.16487,0.37379 0.369484,0.37379 h 3.692543 c 0.204605,0 0.369502,-0.16674 0.369502,-0.37379 v -1.5912 c -0.110089,-0.0291 -0.219077,-0.0582 -0.329549,-0.0882 -1.324008,-0.36205 -2.708382,-0.72001 -4.10198,-1.12254 z m -13.494362,0.48514 c -0.477444,0 -0.862156,0.38906 -0.862156,0.87201 v 8.71589 c 0,0.37907 0.23839,0.697 0.571169,0.81753 0.794111,-2.11609 2.516194,-3.93354 4.617212,-5.35718 1.248869,-0.85 2.677144,-1.59248 4.242535,-1.92915 0.295709,-0.0637 0.601278,-0.10589 0.909622,-0.13072 v -2.11637 c 0,-0.48295 -0.384711,-0.87201 -0.862137,-0.87201 z m 20.774618,5.25093 c -0.204604,0 -0.369474,0.16674 -0.369474,0.37369 v 3.73532 c 0,0.20695 0.16487,0.37369 0.369474,0.37369 h 1.241046 c 0.243047,-0.79524 0.400622,-1.62659 0.507218,-2.47359 0.08178,-0.66043 0.138707,-1.3375 0.123643,-2.00911 z m -7.742372,13.49952 c -3.55e-4,0.009 -0.0018,0.0136 -0.0018,0.0209 v 3.73531 c 0,0.20705 0.164415,0.37379 0.369019,0.37379 h 3.159 c -0.233614,-0.41126 -0.50075,-0.84336 -0.808084,-1.29329 -0.583349,-0.851 -1.501896,-2.10626 -2.718061,-2.83646 z"
       sodipodi:nodetypes="sssscccccsssssssccsssssccccsssssccccsccscssssccsscccsssssssccsccsssscsscccssscssssccccsssccccssssssscccscssscccc" />
    <path
       id="rect6399-1-7-3"
       style="display:inline;mix-blend-mode:color-dodge;fill:url(#linearGradient1600);fill-opacity:1;fill-rule:evenodd;stroke:none;stroke-width:2.00001;stroke-linecap:round;stroke-linejoin:round;stroke-miterlimit:4;stroke-dasharray:none;paint-order:stroke fill markers"
       d="m 66.75023,63.442516 c -0.204613,0 -0.369019,0.166271 -0.369019,0.373232 v 3.735798 c 0,0.206988 0.164406,0.373259 0.369019,0.373259 h 3.693026 c 0.204605,0 0.36902,-0.166271 0.36902,-0.373259 v -3.735798 c 0,-0.206961 -0.164415,-0.373232 -0.36902,-0.373232 z m -12.863027,2.440691 c -0.386977,0.414413 -0.756406,0.84308 -1.097189,1.294626 -0.794795,1.055789 -1.398456,2.308779 -1.415449,3.617795 -0.03148,1.524256 0.683359,2.994221 1.591726,4.279213 0.310773,0.437373 0.643424,0.857589 0.989074,1.267836 h 2.791372 c 0.477426,0 0.862137,-0.388605 0.862137,-0.871544 v -8.715918 c 0,-0.482939 -0.384711,-0.872008 -0.862137,-0.872008 z m 8.859747,18.68791 c 0.540412,0.472241 1.08046,0.947065 1.618998,1.426247 v -1.052997 c 0,-0.206961 -0.164897,-0.37325 -0.369502,-0.37325 z m 6.651751,6.31941 c 0.192797,0.221906 0.383274,0.446033 0.568812,0.674571 0.602825,0.741214 1.17503,1.534225 1.577144,2.424253 0.196954,0.429723 0.348297,0.900672 0.391598,1.383938 h 0.678801 c 0.204605,0 0.369502,-0.166744 0.369502,-0.373732 V 91.26424 c 0,-0.206969 -0.164897,-0.373713 -0.369502,-0.373713 z M 59.069452,102.09462 c -0.596275,0.186 -1.184009,0.39163 -1.754385,0.63696 -0.515669,0.22778 -1.037114,0.45669 -1.349134,0.86215 -0.09935,0.12964 -0.172383,0.27745 -0.173466,0.42072 -0.01037,0.15684 0.06286,0.3243 0.16124,0.47902 0.361197,0.55581 0.980596,0.92438 1.588424,1.30545 0.368392,0.22743 0.747091,0.43889 1.130092,0.64402 h 0.115648 c 0.204604,0 0.369474,-0.16629 0.369474,-0.37325 v -3.7358 c 0,-0.0918 -0.03393,-0.17445 -0.08787,-0.23927 z m 10.930027,8.30035 c -0.204604,0 -0.369474,0.16675 -0.369474,0.37372 v 0.56739 c 1.481682,0.63522 2.968468,1.28418 4.43152,1.99176 v -2.55915 c 0,-0.20697 -0.164406,-0.37372 -0.36902,-0.37372 z m -3.494634,13.29178 c -1.848746,0.56445 -3.668328,1.17912 -5.435176,1.92879 -1.754868,0.74848 -3.507106,1.59339 -4.904907,2.80026 v 1.79343 c 0,0.48294 0.384256,0.87201 0.861673,0.87201 h 8.616736 c 0.477426,0 0.861674,-0.38907 0.861674,-0.87201 z m -12.768076,12.53208 c 0.314267,1.56391 0.922213,3.0627 1.665519,4.48279 h 1.700305 c 0.204632,0 0.369502,-0.16674 0.369502,-0.37378 v -3.73532 c 0,-0.20695 -0.16487,-0.37369 -0.369502,-0.37369 z m 14.405868,5.63445 c -0.204632,0 -0.36902,0.16629 -0.36902,0.37333 v 3.73577 c 0,0.20695 0.164388,0.37324 0.36902,0.37324 h 0.738494 c 0.270411,-1.49624 0.462726,-3.00548 0.851331,-4.48234 z m -6.957321,12.74175 c -1.352053,0.1622 -2.693227,0.32931 -4.013624,0.54581 -0.139408,0.0237 -0.278279,0.0482 -0.417905,0.071 v 1.07978 c 0,0.20705 0.16487,0.37379 0.369502,0.37379 h 3.692552 c 0.204605,0 0.369475,-0.16674 0.369475,-0.37379 z m 1.90339,9.32565 c -0.204613,0 -0.369483,0.16675 -0.369483,0.3737 v 0.76112 c 1.292578,0.36961 2.577816,0.70419 3.812894,1.0445 0.206151,0.0564 0.412393,0.11107 0.618635,0.16592 v -1.97154 c 0,-0.20695 -0.164897,-0.3737 -0.369502,-0.3737 z m -4.385463,4.96884 c -0.414867,0.0109 -0.827615,0.0564 -1.22458,0.14009 -1.531023,0.32394 -2.938339,1.05295 -4.176738,1.88977 -2.034584,1.38089 -3.713511,3.11591 -4.516147,5.12821 0.128865,0.0773 0.277825,0.12453 0.439083,0.12453 h 8.616245 c 0.477426,0 0.862137,-0.38861 0.862137,-0.87156 z m 13.057672,2.07407 c 0.01501,0.68808 -0.04357,1.37488 -0.12882,2.03922 -0.105031,0.83181 -0.26054,1.65297 -0.498285,2.44348 h 2.558695 c 0.204614,0 0.36902,-0.16674 0.36902,-0.37369 v -3.73532 c 0,-0.20695 -0.164406,-0.37369 -0.36902,-0.37369 z m -9.136662,13.14647 c -0.204605,0 -0.36902,0.16674 -0.36902,0.3737 v 0.0882 c 1.086673,0.7604 1.902044,1.89304 2.43083,2.68182 0.314212,0.46703 0.586333,0.91459 0.822203,1.33932 h 0.809012 c 0.204614,0 0.369475,-0.16674 0.369475,-0.37379 V 184.484 c 0,-0.20695 -0.164861,-0.3737 -0.369475,-0.3737 z"
       sodipodi:nodetypes="ssssssssscccccsssscccsscccccsssscsccccccsssssssccssscccsssscccsssscssssccscccsssscsscccsssccccsssccccssssccscccssscc" />
  </g>
</svg>
