<svg xmlns="http://www.w3.org/2000/svg" viewBox="0 0 35 34"><defs><style>.cls-1{fill:#7293de}</style></defs><g id="Camada_2" data-name="Camada 2"><g id="Camada_2-2" data-name="Camada 2"><circle class="cls-1" cx="9" cy="24" r="2"/><path class="cls-1" d="M35 12h-2V4.54A4.55 4.55 0 0 0 28.46 0H7.54A4.55 4.55 0 0 0 3 4.54V12H0v5h3v8.46a4.53 4.53 0 0 0 3 4.25v2.45A1.84 1.84 0 0 0 7.84 34h.32A1.84 1.84 0 0 0 10 32.16V30h15v2.16A1.84 1.84 0 0 0 26.84 34h.32A1.84 1.84 0 0 0 29 32.16V30a4.53 4.53 0 0 0 4-4.49V17h2zm-4 13.46A2.54 2.54 0 0 1 28.46 28H7.54A2.54 2.54 0 0 1 5 25.46V4.54A2.54 2.54 0 0 1 7.54 2h20.92A2.54 2.54 0 0 1 31 4.54v20.92z"/><circle class="cls-1" cx="27" cy="24" r="2"/><path class="cls-1" d="M26.91 10H9.09A2.1 2.1 0 0 0 7 12.09v5.82A2.1 2.1 0 0 0 9.09 20h17.82A2.1 2.1 0 0 0 29 17.91v-5.82A2.1 2.1 0 0 0 26.91 10zM17 18H9.09a.09.09 0 0 1-.09-.09v-5.82a.09.09 0 0 1 .09-.09H17zm10-.09a.09.09 0 0 1-.09.09H19v-6h7.91a.09.09 0 0 1 .09.09zM13.5 6.5h8a1 1 0 0 0 0-2h-8a1 1 0 0 0 0 2z"/></g></g></svg>