<svg xmlns="http://www.w3.org/2000/svg" viewBox="0 0 34.5 34.5"><defs><style>.cls-1{fill:#7293de}</style></defs><g id="Camada_2" data-name="Camada 2"><g id="Camada_2-2" data-name="Camada 2"><path class="cls-1" d="M25.64 19A11 11 0 0 1 15.5 8a10.75 10.75 0 0 1 .61-3.59 1.46 1.46 0 0 0-.19-1.31 1.4 1.4 0 0 0-1.16-.6H4.13A4.13 4.13 0 0 0 0 6.64v23.72a4.13 4.13 0 0 0 4.13 4.14h18.74A4.13 4.13 0 0 0 27 30.36v-9.95A1.48 1.48 0 0 0 25.64 19zM25 30.36a2.14 2.14 0 0 1-2.13 2.14H4.13A2.14 2.14 0 0 1 2 30.36V6.64A2.14 2.14 0 0 1 4.13 4.5H14a12.91 12.91 0 0 0-.5 3.5A13 13 0 0 0 25 20.9z"/><path class="cls-1" d="M26.5 0a8 8 0 1 0 8 8 8 8 0 0 0-8-8zm0 14a6 6 0 1 1 6-6 6 6 0 0 1-6 6z"/><path class="cls-1" d="M26.5 8.46V5a1 1 0 0 0-2 0v4.54l3.5 2.29a.94.94 0 0 0 .55.17 1 1 0 0 0 .55-1.83zM6 11h5a1 1 0 0 0 0-2H6a1 1 0 0 0 0 2zm0 6h5a1 1 0 0 0 0-2H6a1 1 0 0 0 0 2zm0 3a1 1 0 0 0 0 2h11a1 1 0 0 0 0-2zm-1 7a1 1 0 0 0 1 1h16a1 1 0 0 0 0-2H6a1 1 0 0 0-1 1z"/></g></g></svg>