<svg xmlns="http://www.w3.org/2000/svg" viewBox="0 0 30.58 22.5"><defs><style>.cls-1{fill:#7293de}</style></defs><g id="Camada_2" data-name="Camada 2"><g id="Camada_2-2" data-name="Camada 2"><path class="cls-1" d="M19.53 18.26a1.51 1.51 0 0 1-1.06-.44 4.49 4.49 0 0 0-6.36 0 1.51 1.51 0 0 1-2.12 0 1.49 1.49 0 0 1 0-2.12 7.48 7.48 0 0 1 10.6 0 1.5 1.5 0 0 1-1.06 2.56z"/><path class="cls-1" d="M24.48 13.31a1.51 1.51 0 0 1-1.06-.44 11.49 11.49 0 0 0-16.26 0 1.51 1.51 0 0 1-2.12 0 1.49 1.49 0 0 1 0-2.12 14.49 14.49 0 0 1 20.5 0 1.5 1.5 0 0 1-1.06 2.56z"/><path class="cls-1" d="M29.08 8.71A1.49 1.49 0 0 1 28 8.27a18 18 0 0 0-25.46 0 1.5 1.5 0 0 1-2.1-2.12 21 21 0 0 1 29.7 0 1.5 1.5 0 0 1-1.06 2.56z"/><circle class="cls-1" cx="15.29" cy="21" r="1.5"/></g></g></svg>