<svg xmlns="http://www.w3.org/2000/svg" viewBox="0 0 16 16"><defs><style>.cls-1{fill:#fff;}.cls-2{fill:#0072ff;}.cls-3{fill:#8314f7;}</style></defs><g id="Camada_2" data-name="Camada 2"><g id="Camada_1-2" data-name="Camada 1"><rect class="cls-1" width="16" height="16" rx="1.65"/><path class="cls-2" d="M13.12,10,8.06,1.22,2.88,10l.65.39.32-.53a1.93,1.93,0,0,1,1.57-.77A1.78,1.78,0,0,1,7.29,10.7H8.71a1.77,1.77,0,0,1,1.86-1.62,2,2,0,0,1,1.78,1.1h0l.11.2ZM10.57,8.32A2.58,2.58,0,0,0,8,10.22,2.6,2.6,0,0,0,5.42,8.31a2.84,2.84,0,0,0-.72.1L8.05,2.74l3.28,5.68A2.68,2.68,0,0,0,10.57,8.32Z"/><polygon class="cls-3" points="7.04 5.32 8.98 5.32 8.01 3.73 7.04 5.32"/><rect class="cls-3" x="2.87" y="11.57" width="0.77" height="3.21"/><rect class="cls-3" x="12.36" y="11.57" width="0.77" height="3.21"/><rect class="cls-3" x="7.63" y="11.57" width="0.77" height="1.89"/></g></g></svg>