<svg width="115" height="42" viewBox="0 0 115 42" xmlns="http://www.w3.org/2000/svg"><g fill="none" fill-rule="evenodd"><path d="M38.793 26.84h2.779v-9.847h-2.779v9.847zm-.073-10.93h2.925v-2.482H38.72v2.481zm5.136 6.576h5.63v-2.682h-5.63zm8.078-8.506h9.653v2.517H54.73v2.609h6.033v2.517H54.73v2.7h6.947v2.518h-9.744zm18.882 7.955v-.037c0-1.635-1.078-2.719-2.376-2.719-1.298 0-2.395 1.066-2.395 2.72v.036c0 1.635 1.097 2.72 2.395 2.72s2.376-1.085 2.376-2.72m-7.55 0v-.037c0-3.288 2.139-5.089 4.46-5.089 1.481 0 2.396.68 3.054 1.47v-4.85h2.779V26.84h-2.78v-1.415c-.676.918-1.608 1.598-3.052 1.598-2.285 0-4.46-1.8-4.46-5.089m12.702 1.434v-6.375h2.779v5.493c0 1.323.621 2.003 1.681 2.003 1.061 0 1.737-.68 1.737-2.003v-5.493h2.779v9.848h-2.779v-1.397c-.64.827-1.462 1.58-2.87 1.58-2.102 0-3.327-1.396-3.327-3.656m10.985-1.396v-.037c0-2.811 2.138-5.126 5.137-5.126 1.846 0 2.998.625 3.911 1.654l-1.7 1.837c-.621-.661-1.242-1.084-2.23-1.084-1.39 0-2.376 1.231-2.376 2.682v.037c0 1.507.969 2.72 2.486 2.72.932 0 1.572-.405 2.248-1.048l1.627 1.654c-.95 1.047-2.047 1.8-4.003 1.8-2.943 0-5.1-2.278-5.1-5.09m16.706 1.397v-.496a4.294 4.294 0 0 0-1.773-.367c-1.189 0-1.92.477-1.92 1.36v.036c0 .753.621 1.194 1.518 1.194 1.297 0 2.175-.716 2.175-1.727m-6.38.643v-.036c0-2.15 1.627-3.142 3.949-3.142.987 0 1.7.165 2.394.404v-.165c0-1.158-.712-1.8-2.102-1.8-1.06 0-1.81.201-2.705.532l-.695-2.131c1.079-.478 2.139-.79 3.802-.79 1.518 0 2.614.404 3.31 1.102.73.735 1.06 1.819 1.06 3.142v5.714h-2.688v-1.066c-.677.753-1.609 1.25-2.962 1.25-1.846 0-3.363-1.067-3.363-3.014m11.405-7.018h2.778v1.984c.567-1.359 1.482-2.241 3.127-2.168v2.921h-.147c-1.846 0-2.98 1.121-2.98 3.473v3.637h-2.778v-9.847zM23.71 21.929c-3.903 0-7.17 2.532-7.93 5.88-.76-3.35-4.026-5.888-7.93-5.888a8.59 8.59 0 0 0-2.218.294L15.941 4.694l10.097 17.559a8.605 8.605 0 0 0-2.328-.324zm7.848 5.188L15.964 0 .016 27.107l2.03 1.204.965-1.64c1.042-1.454 2.849-2.375 4.84-2.375 3.164 0 5.738 2.298 5.738 5.003h4.382c0-2.705 2.575-5.01 5.74-5.01 2.425 0 4.443 1.37 5.458 3.408l.347.604 2.042-1.184z" fill="#2696FF"/><path fill="#8100F7" d="M12.843 12.669h5.968l-2.984-4.903zM0 41.898h2.358V31.99H0zm29.216 0h2.358V31.99h-2.358zM14.648 37.84h2.358v-5.85h-2.358z"/></g></svg>