<svg xmlns="http://www.w3.org/2000/svg" viewBox="0 0 28.08 34"><defs><style>.cls-1{fill:#7293de;}</style></defs><title>book</title><g id="Camada_2" data-name="Camada 2"><g id="Camada_2-2" data-name="Camada 2"><path class="cls-1" d="M25.16,0H5.07a5,5,0,0,0-5,5V27.37a5,5,0,0,0,0,1.82,5,5,0,0,0,5,4.81H25.16a2.92,2.92,0,0,0,2.92-2.92V2.92A2.92,2.92,0,0,0,25.16,0ZM5.07,2H25.16a.92.92,0,0,1,.92.92V24h-21a6.31,6.31,0,0,0-3,.66V5A3,3,0,0,1,5.07,2ZM25.16,32H5.07a3,3,0,0,1-3-3V27.56a1.76,1.76,0,0,1,.32-.68A3.32,3.32,0,0,1,5.08,26h21v5.08A.92.92,0,0,1,25.16,32Z"/></g></g></svg>