<svg xmlns="http://www.w3.org/2000/svg" viewBox="0 0 35 34"><defs><style>.cls-1{fill:#7293de;}</style></defs><title>bus</title><g id="Camada_2" data-name="Camada 2"><g id="Camada_2-2" data-name="Camada 2"><circle class="cls-1" cx="9" cy="24" r="2"/><path class="cls-1" d="M35,12H33V4.54A4.55,4.55,0,0,0,28.46,0H7.54A4.55,4.55,0,0,0,3,4.54V12H0v5H3v8.46a4.53,4.53,0,0,0,3,4.25v2.45A1.84,1.84,0,0,0,7.84,34h.32A1.84,1.84,0,0,0,10,32.16V30H25v2.16A1.84,1.84,0,0,0,26.84,34h.32A1.84,1.84,0,0,0,29,32.16V30a4.53,4.53,0,0,0,4-4.49V17h2ZM31,25.46A2.54,2.54,0,0,1,28.46,28H7.54A2.54,2.54,0,0,1,5,25.46V4.54A2.54,2.54,0,0,1,7.54,2H28.46A2.54,2.54,0,0,1,31,4.54V25.46Z"/><circle class="cls-1" cx="27" cy="24" r="2"/><path class="cls-1" d="M26.91,10H9.09A2.1,2.1,0,0,0,7,12.09v5.82A2.1,2.1,0,0,0,9.09,20H26.91A2.1,2.1,0,0,0,29,17.91V12.09A2.1,2.1,0,0,0,26.91,10ZM17,18H9.09A.09.09,0,0,1,9,17.91V12.09A.09.09,0,0,1,9.09,12H17Zm10-.09a.09.09,0,0,1-.09.09H19V12h7.91a.09.09,0,0,1,.09.09Z"/><path class="cls-1" d="M13.5,6.5h8a1,1,0,0,0,0-2h-8a1,1,0,0,0,0,2Z"/></g></g></svg>