<svg xmlns="http://www.w3.org/2000/svg" viewBox="0 0 34.5 34.5"><defs><style>.cls-1{fill:#7293de;}</style></defs><title>calendar-clock</title><g id="Camada_2" data-name="Camada 2"><g id="Camada_2-2" data-name="Camada 2"><path class="cls-1" d="M25.64,19A11,11,0,0,1,15.5,8a10.75,10.75,0,0,1,.61-3.59,1.46,1.46,0,0,0-.19-1.31,1.4,1.4,0,0,0-1.16-.6H4.13A4.13,4.13,0,0,0,0,6.64V30.36A4.13,4.13,0,0,0,4.13,34.5H22.87A4.13,4.13,0,0,0,27,30.36V20.41A1.48,1.48,0,0,0,25.64,19ZM25,26.5H19v-6h4a12.86,12.86,0,0,0,2,.4Zm-15,0v-6h7v6Zm7,2v4H10v-4Zm0-11.68V18.5H10v-5h4.75A13.22,13.22,0,0,0,17,16.82ZM8,18.5H2v-5H8Zm-6,2H8v6H2Zm12-16A12.91,12.91,0,0,0,13.5,8,12.7,12.7,0,0,0,14,11.5H10v-7Zm-9.85,0H8v7H2V6.64A2.14,2.14,0,0,1,4.13,4.5ZM2,30.36V28.5H8v4H4.13A2.14,2.14,0,0,1,2,30.36ZM22.87,32.5H19v-4h6v1.86A2.14,2.14,0,0,1,22.87,32.5Z"/><path class="cls-1" d="M26.5,0a8,8,0,1,0,8,8A8,8,0,0,0,26.5,0Zm0,14a6,6,0,1,1,6-6A6,6,0,0,1,26.5,14Z"/><path class="cls-1" d="M26.5,8.46V5a1,1,0,0,0-2,0V9.54L28,11.83a.94.94,0,0,0,.55.17,1,1,0,0,0,.55-1.83Z"/></g></g></svg>