<svg xmlns="http://www.w3.org/2000/svg" viewBox="0 0 31 31"><defs><style>.cls-1{fill:#7293de;}</style></defs><title>e-clip</title><g id="Camada_2" data-name="Camada 2"><g id="Camada_2-2" data-name="Camada 2"><path class="cls-1" d="M30,29H1a1,1,0,0,0,0,2H30a1,1,0,0,0,0-2Z"/><path class="cls-1" d="M1.65,25.53a3,3,0,0,0,1.75.55A3.15,3.15,0,0,0,4.13,26H30a1,1,0,0,0,0-2H3.84l-.16.05a1.12,1.12,0,0,1-.86-.14C2.52,23.68,2,23,2,21V4c0-.08,0-2,3-2H26a1.89,1.89,0,0,1,2,2V15l0,.24a3,3,0,0,1-.29,2.14A2.11,2.11,0,0,1,26,18H12s-2-.06-2-1V15h9c1.24,0,5,0,5-4V9a4,4,0,0,0-2.15-3.21A5.93,5.93,0,0,0,19,5H12A3.89,3.89,0,0,0,8,9v8c0,2.37,2.62,3,4,3H26a4,4,0,0,0,3.32-1.39A4.76,4.76,0,0,0,30,14.89V4a3.89,3.89,0,0,0-4-4H5C1,0,0,2.62,0,4V21C0,23.21.56,24.74,1.65,25.53ZM10,9a1.89,1.89,0,0,1,2-2h7a4.12,4.12,0,0,1,1.89.56A2.13,2.13,0,0,1,22,9v2c0,.94,0,2-3,2H10Z"/></g></g></svg>