<svg xmlns="http://www.w3.org/2000/svg" viewBox="0 0 27 30"><defs><style>.cls-1{fill:#7293de;}</style></defs><title>page</title><g id="Camada_2" data-name="Camada 2"><g id="Camada_2-2" data-name="Camada 2"><path class="cls-1" d="M22.88,0H4.12A4.13,4.13,0,0,0,0,4.12V25.88A4.13,4.13,0,0,0,4.12,30H22.88A4.13,4.13,0,0,0,27,25.88V4.12A4.13,4.13,0,0,0,22.88,0ZM25,25.88A2.12,2.12,0,0,1,22.88,28H4.12A2.12,2.12,0,0,1,2,25.88V4.12A2.12,2.12,0,0,1,4.12,2H22.88A2.12,2.12,0,0,1,25,4.12Z"/><path class="cls-1" d="M21,5H6A1,1,0,0,0,6,7H21a1,1,0,0,0,0-2Z"/><path class="cls-1" d="M21,11H6a1,1,0,0,0,0,2H21a1,1,0,0,0,0-2Z"/><path class="cls-1" d="M21,17H6a1,1,0,0,0,0,2H21a1,1,0,0,0,0-2Z"/><path class="cls-1" d="M21,23H6a1,1,0,0,0,0,2H21a1,1,0,0,0,0-2Z"/></g></g></svg>