<svg xmlns="http://www.w3.org/2000/svg" viewBox="0 0 36 31"><defs><style>.cls-1{fill:#7293de;}</style></defs><title>user</title><g id="Camada_2" data-name="Camada 2"><g id="Camada_2-2" data-name="Camada 2"><path class="cls-1" d="M35.71,1.29a1,1,0,0,0-1.42,0L29,6.59l-2.29-2.3a1,1,0,0,0-1.42,1.42L29,9.41l6.71-6.7A1,1,0,0,0,35.71,1.29Z"/><path class="cls-1" d="M13,16A8,8,0,1,0,5,8,8,8,0,0,0,13,16ZM13,2A6,6,0,1,1,7,8,6,6,0,0,1,13,2Z"/><path class="cls-1" d="M20,19H6a5.78,5.78,0,0,0-6,6v5a1,1,0,0,0,2,0V25c0-.16,0-4,4-4H20a3.85,3.85,0,0,1,4,4v5a1,1,0,0,0,2,0V25A5.78,5.78,0,0,0,20,19Z"/></g></g></svg>