<svg width="502" height="556" viewBox="0 0 502 556" xmlns="http://www.w3.org/2000/svg" xmlns:xlink="http://www.w3.org/1999/xlink"><defs><path id="a" d="M0 0h523v556H0z"/><filter x="-10.8%" y="-11.1%" width="138.8%" height="130.4%" filterUnits="objectBoundingBox" id="c"><feOffset dx="36" dy="22" in="SourceAlpha" result="shadowOffsetOuter1"/><feGaussianBlur stdDeviation="21" in="shadowOffsetOuter1" result="shadowBlurOuter1"/><feColorMatrix values="0 0 0 0 0 0 0 0 0 0 0 0 0 0 0 0 0 0 0.1 0" in="shadowBlurOuter1" result="shadowMatrixOuter1"/><feMerge><feMergeNode in="shadowMatrixOuter1"/><feMergeNode in="SourceGraphic"/></feMerge></filter></defs><g transform="translate(-17)" fill="none" fill-rule="evenodd"><mask id="b" fill="#fff"><use xlink:href="#a"/></mask><g mask="url(#b)"><g transform="translate(92.052 56.358)"><rect fill="#8100F7" width="417.948" height="532.642" rx="9.1"/><rect fill="#A139FF" x="43.612" y="65.444" width="330.724" height="1.818" rx=".909"/><rect fill="#A139FF" x="43.612" y="85.441" width="330.724" height="1.818" rx=".909"/><rect fill="#A139FF" x="43.612" y="105.438" width="330.724" height="1.818" rx=".909"/><rect fill="#A139FF" x="43.612" y="125.435" width="330.724" height="1.818" rx=".909"/><rect fill="#A139FF" x="43.612" y="145.431" width="330.724" height="1.818" rx=".909"/><rect fill="#A139FF" x="43.612" y="165.428" width="330.724" height="1.818" rx=".909"/><rect fill="#A139FF" x="43.612" y="185.425" width="330.724" height="1.818" rx=".909"/><rect fill="#A139FF" x="43.612" y="205.422" width="330.724" height="1.818" rx=".909"/><rect fill="#A139FF" x="43.612" y="225.419" width="330.724" height="1.818" rx=".909"/><rect fill="#A139FF" x="43.612" y="245.415" width="330.724" height="1.818" rx=".909"/><rect fill="#A139FF" x="43.612" y="265.412" width="330.724" height="1.818" rx=".909"/><rect fill="#A139FF" x="43.612" y="285.409" width="330.724" height="1.818" rx=".909"/><rect fill="#A139FF" x="43.612" y="305.406" width="330.724" height="1.818" rx=".909"/><rect fill="#A139FF" x="43.612" y="325.403" width="330.724" height="1.818" rx=".909"/><rect fill="#A139FF" x="43.612" y="345.399" width="330.724" height="1.818" rx=".909"/><rect fill="#A139FF" x="43.612" y="365.396" width="330.724" height="1.818" rx=".909"/><rect fill="#A139FF" x="43.612" y="385.393" width="330.724" height="1.818" rx=".909"/><rect fill="#A139FF" x="43.612" y="405.39" width="330.724" height="1.818" rx=".909"/><rect fill="#A139FF" x="43.612" y="425.387" width="330.724" height="1.818" rx=".909"/><rect fill="#A139FF" x="43.612" y="445.383" width="330.724" height="1.818" rx=".909"/><rect fill="#A139FF" x="43.612" y="465.38" width="330.724" height="1.818" rx=".909"/><rect fill="#A139FF" x="43.612" y="485.377" width="330.724" height="1.818" rx=".909"/></g><g transform="translate(55.709)" fill="#A139FF"><rect width="417.948" height="532.642" rx="9.1"/><rect x="43.612" y="65.444" width="330.724" height="1.818" rx=".909"/><rect x="43.612" y="85.441" width="330.724" height="1.818" rx=".909"/><rect x="43.612" y="105.438" width="330.724" height="1.818" rx=".909"/><rect x="43.612" y="125.435" width="330.724" height="1.818" rx=".909"/><rect x="43.612" y="145.431" width="330.724" height="1.818" rx=".909"/><rect x="43.612" y="165.428" width="330.724" height="1.818" rx=".909"/><rect x="43.612" y="185.425" width="330.724" height="1.818" rx=".909"/><rect x="43.612" y="205.422" width="330.724" height="1.818" rx=".909"/><rect x="43.612" y="225.419" width="330.724" height="1.818" rx=".909"/><rect x="43.612" y="245.415" width="330.724" height="1.818" rx=".909"/><rect x="43.612" y="265.412" width="330.724" height="1.818" rx=".909"/><rect x="43.612" y="285.409" width="330.724" height="1.818" rx=".909"/><rect x="43.612" y="305.406" width="330.724" height="1.818" rx=".909"/><rect x="43.612" y="325.403" width="330.724" height="1.818" rx=".909"/><rect x="43.612" y="345.399" width="330.724" height="1.818" rx=".909"/><rect x="43.612" y="365.396" width="330.724" height="1.818" rx=".909"/><rect x="43.612" y="385.393" width="330.724" height="1.818" rx=".909"/><rect x="43.612" y="405.39" width="330.724" height="1.818" rx=".909"/><rect x="43.612" y="425.387" width="330.724" height="1.818" rx=".909"/><rect x="43.612" y="445.383" width="330.724" height="1.818" rx=".909"/><rect x="43.612" y="465.38" width="330.724" height="1.818" rx=".909"/><rect x="43.612" y="485.377" width="330.724" height="1.818" rx=".909"/></g><g filter="url(#c)" transform="translate(23 38.179)"><rect fill="#8100F7" width="417.948" height="532.642" rx="9.1"/><rect fill="#A139FF" x="43.612" y="65.444" width="330.724" height="1.818" rx=".909"/><rect fill="#A139FF" x="43.612" y="85.441" width="330.724" height="1.818" rx=".909"/><rect fill="#A139FF" x="43.612" y="105.438" width="330.724" height="1.818" rx=".909"/><rect fill="#A139FF" x="43.612" y="125.435" width="330.724" height="1.818" rx=".909"/><rect fill="#A139FF" x="43.612" y="145.431" width="330.724" height="1.818" rx=".909"/><rect fill="#A139FF" x="43.612" y="165.428" width="330.724" height="1.818" rx=".909"/><rect fill="#A139FF" x="43.612" y="185.425" width="330.724" height="1.818" rx=".909"/><rect fill="#A139FF" x="43.612" y="205.422" width="330.724" height="1.818" rx=".909"/><rect fill="#A139FF" x="43.612" y="225.419" width="330.724" height="1.818" rx=".909"/><rect fill="#A139FF" x="43.612" y="245.415" width="330.724" height="1.818" rx=".909"/><rect fill="#A139FF" x="43.612" y="265.412" width="330.724" height="1.818" rx=".909"/><rect fill="#A139FF" x="43.612" y="285.409" width="330.724" height="1.818" rx=".909"/><rect fill="#A139FF" x="43.612" y="305.406" width="330.724" height="1.818" rx=".909"/><rect fill="#A139FF" x="43.612" y="325.403" width="330.724" height="1.818" rx=".909"/><rect fill="#A139FF" x="43.612" y="345.399" width="330.724" height="1.818" rx=".909"/><rect fill="#A139FF" x="43.612" y="365.396" width="330.724" height="1.818" rx=".909"/><rect fill="#A139FF" x="43.612" y="385.393" width="330.724" height="1.818" rx=".909"/><rect fill="#A139FF" x="43.612" y="405.39" width="330.724" height="1.818" rx=".909"/><rect fill="#A139FF" x="43.612" y="425.387" width="330.724" height="1.818" rx=".909"/><rect fill="#A139FF" x="43.612" y="445.383" width="330.724" height="1.818" rx=".909"/><rect fill="#A139FF" x="43.612" y="465.38" width="330.724" height="1.818" rx=".909"/><rect fill="#A139FF" x="43.612" y="485.377" width="330.724" height="1.818" rx=".909"/></g></g></g></svg>