<svg data-name="Camada 1" xmlns="http://www.w3.org/2000/svg" viewBox="0 0 107.5 30"><rect x="14.56" y="14.68" width="5.99" height="5.99" rx=".58" ry=".58" fill="#fff"/><rect x="7.36" y=".3" width="5.99" height="5.99" rx=".58" ry=".58" fill="#fff"/><rect x="14.56" y=".3" width="5.99" height="5.99" rx=".58" ry=".58" fill="#fff"/><rect x=".17" y="7.49" width="5.99" height="5.99" rx=".58" ry=".58" fill="#fff"/><rect x="7.36" y="7.49" width="5.99" height="5.99" rx=".58" ry=".58" fill="#fff"/><rect x=".17" y="14.68" width="5.99" height="5.99" rx=".58" ry=".58" fill="#fff"/><rect x="7.36" y="14.68" width="5.99" height="5.99" rx=".58" ry=".58" fill="#fff"/><rect x=".17" y="21.88" width="5.99" height="5.99" rx=".58" ry=".58" fill="#fff"/><rect x="7.36" y="21.88" width="5.99" height="5.99" rx=".58" ry=".58" fill="#fff"/><path d="M6.47 3.3A3.3 3.3 0 1 1 3.17 0a3.3 3.3 0 0 1 3.3 3.3" fill="#fff"/><text transform="translate(23.99 13.35)" font-size="8.352" fill="#fff" font-family="OpenSans-Bold,Open Sans" font-weight="700">I</text><text transform="translate(26.77 13.35)" font-size="8.352" fill="#fff" font-family="OpenSans-Bold,Open Sans" font-weight="700"><tspan letter-spacing=".002em">N</tspan><tspan x="6.81" y="0">S</tspan></text><text transform="translate(38.21 13.35)" font-size="8.352" fill="#fff" font-family="OpenSans-Bold,Open Sans" font-weight="700">TIT</text><text transform="translate(50.7 13.35)" font-size="8.352" fill="#fff" font-family="OpenSans-Bold,Open Sans" font-weight="700">U</text><text transform="translate(57.04 13.35)" font-size="8.352" fill="#fff" font-family="OpenSans-Bold,Open Sans" font-weight="700">T</text><text transform="translate(61.89 13.35)" font-size="8.352" fill="#fff" font-family="OpenSans-Bold,Open Sans" font-weight="700"><tspan letter-spacing=".002em">O </tspan><tspan x="8.85" y="0">F</tspan></text><text transform="translate(75.37 13.35)" font-size="8.352" fill="#fff" font-family="OpenSans-Bold,Open Sans" font-weight="700">EDER</text><text transform="translate(96.49 13.35)" font-size="8.352" fill="#fff" font-family="OpenSans-Bold,Open Sans" font-weight="700">A</text><text transform="translate(102.27 13.35)" font-size="8.352" fill="#fff" font-family="OpenSans-Bold,Open Sans" font-weight="700">L</text><text transform="translate(24.15 20.73)" font-size="6.311" fill="#fff" font-family="OpenSans-Regular,Open Sans">Mato Grosso do Sul</text><text transform="translate(24.15 27.9)" font-size="6.311" fill="#fff" font-family="OpenSans-Regular,Open Sans">Campus</text><text transform="translate(49.94 27.9)" font-size="6.311" fill="#fff" font-family="OpenSans-Regular,Open Sans">Dourados</text></svg>