<svg version="1.1" id="Camada_1" xmlns="http://www.w3.org/2000/svg" x="0" y="0" viewBox="0 0 84.3 141.7" xml:space="preserve"><style>.st0{fill:#fff}</style><path id="XMLID_32_" class="st0" d="M84.3 73.2L42.6 1 0 73.2l5.4 3.2L8 72c2.8-3.9 7.6-6.3 12.9-6.3 8.5 0 15.3 6.1 15.3 13.3H48c0-7.2 6.9-13.3 15.3-13.3 6.5 0 11.9 3.6 14.6 9.1l.9 1.6 5.5-3.2zm-21-13.8c-10.4 0-19.2 6.7-21.2 15.7-2-8.9-10.8-15.7-21.2-15.7-2 0-4 .3-5.9.8l27.6-46.6 27 46.7c-2-.6-4.1-.9-6.3-.9z"/><g id="XMLID_2_"><path id="XMLID_27_" class="st0" d="M34.3 34.7h15.9l-7.9-13z"/><path id="XMLID_34_" class="st0" d="M0 86.2h6.3v26.4H0z"/><path id="XMLID_35_" class="st0" d="M78 86.2h6.3v26.4H78z"/><path id="XMLID_36_" class="st0" d="M39.1 86.2h6.3v15.6h-6.3z"/></g><g id="XMLID_1_"><path id="XMLID_4_" class="st0" d="M1.3 127.2h3.1v2.6H1.3v-2.6zm.1 3.8h3v10.5h-3V131z"/><path id="XMLID_17_" class="st0" d="M6.8 134h6v2.9h-6V134z"/><path id="XMLID_37_" class="st0" d="M15.5 127.8h10.4v2.7h-7.4v2.8H25v2.7h-6.5v2.9H26v2.7H15.5v-13.8z"/><path id="XMLID_39_" class="st0" d="M27.6 136.3c0-3.6 2.3-5.5 4.8-5.5 1.6 0 2.6.7 3.3 1.6v-5.2h3v14.3h-3V140c-.7 1-1.7 1.7-3.3 1.7-2.4 0-4.8-1.9-4.8-5.4zm8.2 0c0-1.8-1.2-2.9-2.6-2.9-1.4 0-2.6 1.1-2.6 2.9 0 1.7 1.2 2.9 2.6 2.9 1.4 0 2.6-1.2 2.6-2.9z"/><path id="XMLID_42_" class="st0" d="M41.3 137.8V131h3v5.9c0 1.4.7 2.1 1.8 2.1s1.9-.7 1.9-2.1V131h3v10.5h-3V140c-.7.9-1.6 1.7-3.1 1.7-2.3 0-3.6-1.5-3.6-3.9z"/><path id="XMLID_44_" class="st0" d="M53.1 136.3c0-3 2.3-5.5 5.5-5.5 2 0 3.2.7 4.2 1.8l-1.8 2c-.7-.7-1.3-1.2-2.4-1.2-1.5 0-2.6 1.3-2.6 2.9 0 1.6 1 2.9 2.7 2.9 1 0 1.7-.4 2.4-1.1l1.7 1.8c-1 1.1-2.2 1.9-4.3 1.9-3.1-.1-5.4-2.5-5.4-5.5z"/><path id="XMLID_48_" class="st0" d="M64.2 138.5c0-2.3 1.7-3.4 4.2-3.4 1.1 0 1.8.2 2.6.4v-.2c0-1.2-.8-1.9-2.3-1.9-1.1 0-1.9.2-2.9.6l-.7-2.3c1.2-.5 2.3-.8 4.1-.8 1.6 0 2.8.4 3.6 1.2.8.8 1.1 1.9 1.1 3.4v6.1H71v-1.1c-.7.8-1.7 1.3-3.2 1.3-2-.1-3.6-1.2-3.6-3.3zm6.8-.7v-.5c-.5-.2-1.2-.4-1.9-.4-1.3 0-2.1.5-2.1 1.5 0 .8.7 1.3 1.6 1.3 1.5-.1 2.4-.8 2.4-1.9z"/><path id="XMLID_67_" class="st0" d="M76.4 131h3v2.1c.6-1.5 1.6-2.4 3.4-2.3v3.1h-.2c-2 0-3.2 1.2-3.2 3.7v3.9h-3V131z"/></g></svg>