<svg version="1.1" id="Camada_1" xmlns="http://www.w3.org/2000/svg" x="0" y="0" viewBox="0 0 387 512" xml:space="preserve"><style>.st0{fill:#fff}</style><path id="XMLID_32_" class="st0" d="M386.8 331.4L195.5 0-.2 331.3 24.7 346l11.8-20c12.8-17.8 34.9-29 59.4-29 38.8 0 70.4 28.1 70.4 61.1H220c0-33.1 31.6-61.2 70.4-61.2 29.8 0 54.5 16.7 67 41.7l4.3 7.4 25.1-14.6zM290.5 268c-47.9 0-88 30.9-97.3 71.9-9.3-40.9-49.4-72-97.3-72-9.4 0-18.5 1.3-27.2 3.6L195.2 57.4 319 271.9c-9.1-2.5-18.7-3.9-28.5-3.9z"/><g id="XMLID_2_"><path id="XMLID_27_" class="st0" d="M157.2 154.8h73.2l-36.6-59.9z"/><path id="XMLID_34_" class="st0" d="M-.4 390.9h28.9V512H-.4z"/><path id="XMLID_35_" class="st0" d="M358 390.9h28.9V512H358z"/><path id="XMLID_36_" class="st0" d="M179.3 390.9h28.9v71.5h-28.9z"/></g></svg>