<svg version="1.1" id="Camada_1" xmlns="http://www.w3.org/2000/svg" x="0" y="0" viewBox="0 0 115 42" xml:space="preserve"><style>.st0{fill:#fff}</style><path class="st0" d="M38.8 26.8h2.8V17h-2.8v9.8zm-.1-10.9h2.9v-2.5h-2.9v2.5zm5.2 6.6h5.6v-2.7h-5.6v2.7zm8-8.5h9.7v2.5h-6.9v2.6h6v2.5h-6v2.7h6.9v2.5h-9.7V14zm18.9 7.9c0-1.7-1.1-2.8-2.4-2.8S66 20.2 66 21.9c0 1.6 1.1 2.7 2.4 2.7s2.4-1 2.4-2.7m-7.5 0c0-3.3 2.1-5.1 4.5-5.1 1.5 0 2.4.7 3.1 1.5v-4.9h2.8v13.4h-2.8v-1.4c-.7.9-1.6 1.6-3.1 1.6-2.4 0-4.5-1.8-4.5-5.1M76 23.4V17h2.8v5.5c0 1.3.6 2 1.7 2s1.7-.7 1.7-2V17H85v9.8h-2.8v-1.4c-.6.8-1.5 1.6-2.9 1.6-2.1 0-3.3-1.4-3.3-3.6M87 22c0-2.8 2.1-5.2 5.1-5.2 1.8 0 3 .6 3.9 1.7l-1.7 1.8c-.6-.7-1.2-1.1-2.2-1.1-1.4 0-2.4 1.2-2.4 2.7 0 1.5 1 2.7 2.5 2.7.9 0 1.6-.4 2.2-1l1.6 1.7c-.9 1-2 1.8-4 1.8-2.9 0-5-2.3-5-5.1m16.7 1.4v-.5c-.6-.2-1.2-.4-1.8-.4-1.2 0-1.9.5-1.9 1.4 0 .8.6 1.2 1.5 1.2 1.3 0 2.2-.7 2.2-1.7m-6.4.6c0-2.2 1.6-3.2 3.9-3.2 1 0 1.7.2 2.4.4V21c0-1.2-.7-1.8-2.1-1.8-1.1 0-1.8.2-2.7.5l-.7-2.1c1.1-.5 2.1-.8 3.8-.8 1.5 0 2.6.4 3.3 1.1.7.7 1.1 1.8 1.1 3.1v5.7h-2.7v-1.1c-.7.8-1.6 1.2-3 1.2-1.8.2-3.3-.8-3.3-2.8m11.4-7h2.8v2c.6-1.4 1.5-2.2 3.1-2.2v2.9h-.1c-1.8 0-3 1.1-3 3.5v3.6h-2.8V17zm-85 4.9c-3.9 0-7.2 2.5-7.9 5.9-.8-3.4-4-5.9-7.9-5.9-.7 0-1.5.1-2.2.3L15.9 4.7 26 22.3c-.7-.3-1.5-.4-2.3-.4zm7.9 5.2L16 0 0 27.1l2 1.2 1-1.6c1-1.5 2.8-2.4 4.8-2.4 3.2 0 5.7 2.3 5.7 5H18c0-2.7 2.6-5 5.7-5 2.4 0 4.4 1.4 5.5 3.4l.3.6 2.1-1.2z"/><path class="st0" d="M12.8 12.7h6l-3-4.9-3 4.9zM0 41.9h2.4V32H0v9.9zm29.2 0h2.4V32h-2.4v9.9zm-14.6-4.1H17V32h-2.4v5.8z"/></svg>